<svg id="svg5180" xmlns="http://www.w3.org/2000/svg" xmlns:xlink="http://www.w3.org/1999/xlink" viewBox="0 0 1250.9 510"><defs><style>.cls-1{stroke-miterlimit:10;fill:url(#linear-gradient);stroke:url(#linear-gradient-2);}.cls-2{fill:#0086b7;}.cls-3{fill:#009b48;}.cls-4{fill:#fff;}.cls-4,.cls-5{fill-opacity:0;}.cls-6{fill:#a2a8aa;}</style><linearGradient id="linear-gradient" x1="595.05" y1="633.6" x2="1239.85" y2="633.6" gradientUnits="userSpaceOnUse"><stop offset="0.45" stop-color="#009b48"/><stop offset="1" stop-color="#0086b7"/></linearGradient><linearGradient id="linear-gradient-2" x1="594.47" y1="633.6" x2="1243.9" y2="633.6" gradientUnits="userSpaceOnUse"><stop offset="0.43" stop-color="#009b48"/><stop offset="1" stop-color="#fff"/></linearGradient></defs><title>logo_BBI_final</title><g id="layer1"><g id="g5066"><path id="_Path_" data-name="&lt;Path&gt;" class="cls-1" d="M1092.95,383.25c-187.4,0-331.4,115.6-416.9,266.5,39.3,0,71.3,33.4,71.3,74.4,0,41.3-32,74.9-71.3,74.9-21.7,0-41.2-10.3-54.3-26.4A679.55,679.55,0,0,0,595,884l143.3-.3c8.9-57.5,21.9-109.1,38.3-155.1h-5.4c-6.7,0-11.7-6-11.7-14.1v-8.3c0-8,5-14.1,11.7-14.1h19.5c15.7-37,33.8-70.1,53.9-99.3v-18.7c0-8.4,5.7-14.3,13.8-14.3h11.1c89.5-108.4,210.8-154.1,336.7-154.1,11.2,0,22.4.4,33.6,1.1-1.9-.6-3.9-1.2-5.8-1.7,1.5.1,3,.3,4.5.5-50.9-15.3-99.5-22.3-145.6-22.3" transform="translate(-366.55 -382.75)"/><path id="_Path_2" data-name="&lt;Path&gt;" class="cls-2" d="M1234.25,405c2,.6,3.9,1.1,5.8,1.7,128.2,38.7,226.7,151.5,277.7,251.8a70.28,70.28,0,0,1,34.2-8.6,69,69,0,0,1,27.3,5.5c-55.3-80.9-150.2-229.1-340.5-249.9-1.5-.2-3-.4-4.5-.5" transform="translate(-366.55 -382.75)"/><path id="_Path_3" data-name="&lt;Path&gt;" class="cls-3" d="M630.45,517a.37.37,0,0,0-.3.1c-28.6,22.1-68.6,20-87.8,44.4s-16.5,49.8,4,65.9a33.93,33.93,0,0,0,7.5,4.5c-.9-3.4.3-8.2,5.8-18.5,18-35.4,52.4-56.4,52.4-56.4s-34.6,29.5-33.3,63.8c.2,8.8,1.3,12.9,2.3,14.6,13.6-2.1,27.4-10,37.6-22.9,18.5-23.4,16-95.5,11.8-95.5" transform="translate(-366.55 -382.75)"/><path id="_Path_4" data-name="&lt;Path&gt;" class="cls-4" d="M676.05,688.75c-17.7,0-31.6,15.7-31.6,35.7h0c-.1,10.6,3.8,20.7,10.6,27.6a29.35,29.35,0,0,0,20.9,9c17.7,0,31.6-16.1,31.6-36.6a37.75,37.75,0,0,0-9.5-25.5,29.16,29.16,0,0,0-22-10.2" transform="translate(-366.55 -382.75)"/><path id="_Compound_Path_" data-name="&lt;Compound Path&gt;" d="M875.55,766.75V687h51.7c24.4,0,44.7,16.9,44.7,39.1,0,22.7-16.4,40.6-39.4,40.6h-57m0-101.5v-74.9h51.7c24.1,0,37.7,14.2,37.7,36.7,0,21.7-13.5,38.2-37.7,38.2h-51.7m51.6-96.6h-68.6c-3.4,0-4.8,2.2-4.8,5.3v207.2c0,3.1,1.4,4.8,4.8,4.8h71.5c40.6,0,68.3-24.6,68.3-59.7,0-29-21-43.5-37.7-50.5,14.7-8.5,30.7-25.8,30.7-50,.1-32.7-26-57.1-64.2-57.1" transform="translate(-366.55 -382.75)"/><path id="_Path_5" data-name="&lt;Path&gt;" class="cls-4" d="M927.15,559.65h-57.5c-1.2,1.5-2.5,3-3.7,4.5H927c39.8,0,68.7,26,68.7,61.7,0,22.1-12.4,39.1-26,49.3,27.1,14.2,33,35.3,33,51.1,0,37.8-30,64.2-72.8,64.2h-71.5c-5.8,0-9.3-3.6-9.3-9.3V586.35c-1.5,2.1-3,4.3-4.5,6.4v188.4c0,8.3,5.6,13.8,13.8,13.8H930c22.1,0,41.2-6.5,55.3-18.9s22-30.1,22-49.7c0-15.3-5-28.6-14.9-39.5a69.19,69.19,0,0,0-14.8-12.3c12.4-11.1,22.7-27.8,22.7-48.7.2-38.3-30.6-66.2-73.1-66.2" transform="translate(-366.55 -382.75)"/><path id="_Path_6" data-name="&lt;Path&gt;" class="cls-4" d="M869.75,559.65h-11.1c-8.1,0-13.8,5.9-13.8,14.3v18.8c1.5-2.2,3-4.3,4.5-6.4V574c0-5.9,3.7-9.8,9.3-9.8h7.5a51.94,51.94,0,0,1,3.6-4.6" transform="translate(-366.55 -382.75)"/><path id="_Compound_Path_2" data-name="&lt;Compound Path&gt;" class="cls-4" d="M884.55,757.75V696h42.7a39.15,39.15,0,0,1,25.6,9,27.72,27.72,0,0,1,10.1,21.1c0,18.3-12.8,31.6-30.4,31.6h-48m42.6-66.2h-47.2v70.7h52.5c19.9,0,34.9-15.5,34.9-36.1,0-19.4-17.6-34.6-40.2-34.6m-42.6-35.3v-56.9h42.7c9.4,0,16.7,2.5,21.5,7.3,4.7,4.6,7.1,11.7,7.1,20.4s-2.5,15.9-7.3,21.1c-5,5.3-12.3,8.1-21.3,8.1h-42.7m42.6-61.3h-47.2v65.9h47.2c20.5,0,33.2-12.9,33.2-33.7,0-20.5-12.1-32.2-33.2-32.2" transform="translate(-366.55 -382.75)"/><path id="_Compound_Path_3" data-name="&lt;Compound Path&gt;" class="cls-4" d="M880.05,762.25v-70.7h47.2c22.5,0,40.2,15.2,40.2,34.6,0,20.6-15,36.1-34.9,36.1h-52.5m47.1-75.2h-51.7v79.7h57c22.9,0,39.4-17.9,39.4-40.6,0-22.2-20.3-39.1-44.7-39.1m-47.1-26.3v-65.9h47.2c21.1,0,33.2,11.7,33.2,32.2,0,20.8-12.7,33.7-33.2,33.7h-47.2m47.1-70.3h-51.7v74.9h51.7c24.1,0,37.7-16.4,37.7-38.2,0-22.5-13.5-36.7-37.7-36.7m-68.6,195.6c-3.4,0-4.8-1.7-4.8-4.8V574.05c0-3.1,1.4-5.3,4.8-5.3h68.6c38.2,0,64.2,24.4,64.2,57.2,0,24.2-15.9,41.5-30.7,50,16.7,7,37.7,21.5,37.7,50.5,0,35-27.8,59.7-68.3,59.7h-71.5m68.6-222h-68.6c-5.6,0-9.3,3.9-9.3,9.8v207.2c0,5.8,3.6,9.3,9.3,9.3h71.5c42.9,0,72.8-26.4,72.8-64.2,0-15.8-6-36.9-33-51.1,13.6-10.2,26-27.3,26-49.3.1-35.7-28.8-61.7-68.7-61.7" transform="translate(-366.55 -382.75)"/><path id="_Compound_Path_4" data-name="&lt;Compound Path&gt;" d="M397.35,766.75V687h51.9c24.4,0,44.7,16.9,44.7,39.1,0,22.7-16.4,40.6-39.4,40.6h-57.2m0-101.5v-74.9h51.9c24.2,0,37.7,14.2,37.7,36.7,0,21.7-13.5,38.2-37.7,38.2h-51.9m51.9-96.6h-68.6c-3.4,0-5.1,2.2-5.1,5.3v207.2c0,3.1,1.7,4.8,5.1,4.8h71.5c40.6,0,68.3-24.6,68.3-59.7,0-29-21-43.5-37.7-50.5,14.7-8.5,30.7-25.8,30.7-50,0-32.7-26-57.1-64.2-57.1" transform="translate(-366.55 -382.75)"/><path id="_Compound_Path_5" data-name="&lt;Compound Path&gt;" class="cls-4" d="M406.35,757.75V696h42.9a39.34,39.34,0,0,1,25.6,9,27.72,27.72,0,0,1,10.1,21.1c0,18.3-12.8,31.6-30.4,31.6h-48.2m42.9-66.2h-47.4v70.7h52.7c19.9,0,34.9-15.5,34.9-36.1,0-19.4-17.7-34.6-40.2-34.6m-42.9-35.3v-56.9h42.9c9.4,0,16.7,2.5,21.5,7.3,4.7,4.6,7.1,11.7,7.1,20.4s-2.5,16-7.3,21.1c-5,5.3-12.3,8.1-21.3,8.1h-42.9m42.9-61.3h-47.4v65.9h47.4c20.5,0,33.2-12.9,33.2-33.7,0-20.5-12.1-32.2-33.2-32.2m-68.6,195.6c-5.8,0-9.6-3.7-9.6-9.3V574c0-5.9,3.8-9.8,9.6-9.8h68.6c39.8,0,68.7,26,68.7,61.7,0,22.1-12.4,39.1-26,49.3,27.1,14.2,33,35.3,33,51.1,0,37.8-30,64.2-72.8,64.2h-71.5m68.6-230.9h-68.6c-8.2,0-14.1,6-14.1,14.3v207.2c0,8.1,5.8,13.8,14.1,13.8h71.5c22.1,0,41.2-6.5,55.3-18.9s22-30.1,22-49.7c0-15.3-5-28.6-14.9-39.5a69.2,69.2,0,0,0-14.8-12.3c12.4-11.1,22.7-27.8,22.7-48.7,0-38.3-30.8-66.2-73.2-66.2" transform="translate(-366.55 -382.75)"/><path id="_Compound_Path_6" data-name="&lt;Compound Path&gt;" class="cls-5" d="M401.85,762.25v-70.7h47.4c22.5,0,40.2,15.2,40.2,34.6,0,20.6-15,36.1-34.9,36.1h-52.7m47.4-75.2h-51.9v79.7h57.2c22.9,0,39.4-17.9,39.4-40.6,0-22.2-20.3-39.1-44.7-39.1m-47.4-26.3v-65.9h47.4c21.1,0,33.2,11.7,33.2,32.2,0,20.8-12.7,33.7-33.2,33.7h-47.4m47.4-70.3h-51.9v74.9h51.9c24.2,0,37.7-16.4,37.7-38.2,0-22.5-13.5-36.7-37.7-36.7m-68.6,195.6c-3.4,0-5.1-1.7-5.1-4.8V574.05c0-3.1,1.7-5.3,5.1-5.3h68.6c38.2,0,64.2,24.4,64.2,57.2,0,24.2-15.9,41.5-30.7,50,16.7,7,37.7,21.5,37.7,50.5,0,35-27.8,59.7-68.3,59.7h-71.5m68.6-222h-68.6c-5.7,0-9.6,3.9-9.6,9.8v207.2c0,5.7,3.8,9.3,9.6,9.3h71.5c42.9,0,72.8-26.4,72.8-64.2,0-15.8-6-36.9-33-51.1,13.6-10.2,26-27.3,26-49.3,0-35.7-28.9-61.7-68.7-61.7" transform="translate(-366.55 -382.75)"/><path id="_Path_7" data-name="&lt;Path&gt;" d="M572.45,662.65h-9.9a6,6,0,0,0-6,6v113.7a6,6,0,0,0,6,6h9.9a6,6,0,0,0,6-6V668.65a5.89,5.89,0,0,0-6-6" transform="translate(-366.55 -382.75)"/><path id="_Compound_Path_7" data-name="&lt;Compound Path&gt;" class="cls-4" d="M562.55,793a10.37,10.37,0,0,1-10.5-10.5V668.65a10.37,10.37,0,0,1,10.5-10.5h9.9a10.37,10.37,0,0,1,10.5,10.5v113.7a10.37,10.37,0,0,1-10.5,10.5h-9.9m9.9-139.2h-9.9a15,15,0,0,0-15,15v113.7a15,15,0,0,0,15,15h9.9a15,15,0,0,0,15-15V668.65a15,15,0,0,0-15-15" transform="translate(-366.55 -382.75)"/><path id="_Compound_Path_8" data-name="&lt;Compound Path&gt;" class="cls-5" d="M562.55,788.45a6,6,0,0,1-6-6V668.65a6,6,0,0,1,6-6h9.9a6,6,0,0,1,6,6v113.7a6,6,0,0,1-6,6h-9.9m9.9-130.2h-9.9a10.37,10.37,0,0,0-10.5,10.5v113.7a10.37,10.37,0,0,0,10.5,10.5h9.9a10.37,10.37,0,0,0,10.5-10.5V668.65a10.37,10.37,0,0,0-10.5-10.5" transform="translate(-366.55 -382.75)"/><path id="_Path_8" data-name="&lt;Path&gt;" d="M1091.85,659c-26.1,0-37.7,16.7-37.7,16.7l-2.4-8.9a5.13,5.13,0,0,0-5.3-3.9h-6c-3.1,0-5.6,1.9-5.6,5.1h.2v113.3c0,3.1,2.4,4.8,5.6,4.8h9.7c3.1,0,6.3-1.7,6.3-4.8v-83.1s9.9-17.6,33.8-17.6a32.77,32.77,0,0,1,12.1,2.4,9.73,9.73,0,0,0,3.2.7c1.8,0,3.4-.9,4.3-3.6l3.9-10.6c3.1-9.1-12.6-10.5-22.1-10.5" transform="translate(-366.55 -382.75)"/><path id="_Compound_Path_9" data-name="&lt;Compound Path&gt;" class="cls-4" d="M1056.45,666.85c6.3-5.4,17.9-12.3,35.4-12.3,13.3,0,21.7,2.4,25.2,7.3a9.75,9.75,0,0,1,1.1,9.1l-3.9,10.7c-1.5,4.2-4.6,6.6-8.5,6.6a12.9,12.9,0,0,1-4.8-1h-.1a28.33,28.33,0,0,0-10.3-2.1c-18.1,0-27,11.1-29.3,14.4v81.8c0,5.3-4.6,9.3-10.8,9.3h-9.7c-5.8,0-10.1-3.9-10.1-9.3V672.45h-.2v-4.5c0-5.5,4.3-9.6,10.1-9.6h6a9.71,9.71,0,0,1,9.7,7.2l.2,1.3m35.4-16.8c-15.1,0-26.1,4.8-33.5,9.8a14.23,14.23,0,0,0-11.9-5.9h-6c-8.3,0-14.6,6-14.6,14.1v9h.2v104.3c0,7.9,6.3,13.8,14.6,13.8h9.7c8.7,0,15.3-5.9,15.3-13.8V701c2.8-3.6,10.6-11.4,24.8-11.4a23.73,23.73,0,0,1,8.6,1.7h.2a17.39,17.39,0,0,0,6.4,1.3c5.9,0,10.7-3.6,12.8-9.6l3.9-10.6h0a14.28,14.28,0,0,0-1.6-13.2c-4.4-6.2-13.8-9.2-28.9-9.2" transform="translate(-366.55 -382.75)"/><path id="_Compound_Path_10" data-name="&lt;Compound Path&gt;" class="cls-5" d="M1054.25,675.65s11.6-16.7,37.7-16.7c9.4,0,25.1,1.4,22,10.4L1110,680c-.9,2.7-2.5,3.6-4.3,3.6a9.73,9.73,0,0,1-3.2-.7,32.33,32.33,0,0,0-12.1-2.4c-23.9,0-33.8,17.6-33.8,17.6v83.1c0,3.1-3.1,4.8-6.3,4.8h-9.7c-3.1,0-5.6-1.7-5.6-4.8V667.95h-.2c0-3.1,2.4-5.1,5.6-5.1h6a5.13,5.13,0,0,1,5.3,3.9l2.5,8.9m37.6-21.1c-17.5,0-29.1,6.9-35.4,12.3l-.3-1.3a9.71,9.71,0,0,0-9.7-7.2h-6c-5.7,0-10.1,4.1-10.1,9.6v4.5h.2v108.8c0,5.4,4.2,9.3,10.1,9.3h9.7c6.1,0,10.8-4,10.8-9.3v-81.8c2.3-3.3,11.2-14.4,29.3-14.4a25.42,25.42,0,0,1,10.3,2.1h.1a12.9,12.9,0,0,0,4.8,1c4,0,7.1-2.4,8.5-6.6l3.9-10.7a9.48,9.48,0,0,0-1.1-9.1c-3.3-4.8-11.8-7.2-25.1-7.2" transform="translate(-366.55 -382.75)"/><path id="_Compound_Path_11" data-name="&lt;Compound Path&gt;" d="M1154.45,662.65h-9.9a6,6,0,0,0-6,6v113.7a6,6,0,0,0,6,6h9.9a6,6,0,0,0,6-6V668.65a5.89,5.89,0,0,0-6-6m-5.1-88.2a14.67,14.67,0,0,0-14.7,15,14.92,14.92,0,0,0,14.7,14.7,14.85,14.85,0,1,0,0-29.7" transform="translate(-366.55 -382.75)"/><path id="_Compound_Path_12" data-name="&lt;Compound Path&gt;" class="cls-4" d="M1144.55,793a10.37,10.37,0,0,1-10.5-10.5V668.65a10.37,10.37,0,0,1,10.5-10.5h9.9a10.37,10.37,0,0,1,10.5,10.5v113.7a10.37,10.37,0,0,1-10.5,10.5h-9.9m9.9-139.2h-9.9a15,15,0,0,0-15,15v113.7a15,15,0,0,0,15,15h9.9a15,15,0,0,0,15-15V668.65a15,15,0,0,0-15-15m-5.1-45a19.47,19.47,0,0,1-19.2-19.2,19.35,19.35,0,1,1,19.2,19.2m0-43.2a23.57,23.57,0,0,0-23.7,24,24,24,0,0,0,23.7,23.7,23.85,23.85,0,1,0,0-47.7" transform="translate(-366.55 -382.75)"/><path id="_Compound_Path_13" data-name="&lt;Compound Path&gt;" class="cls-5" d="M1144.55,788.45a6,6,0,0,1-6-6V668.65a6,6,0,0,1,6-6h9.9a6,6,0,0,1,6,6v113.7a6,6,0,0,1-6,6h-9.9m9.9-130.2h-9.9a10.37,10.37,0,0,0-10.5,10.5v113.7a10.37,10.37,0,0,0,10.5,10.5h9.9a10.37,10.37,0,0,0,10.5-10.5V668.65a10.37,10.37,0,0,0-10.5-10.5m-5.1-54a14.92,14.92,0,0,1-14.7-14.7,14.85,14.85,0,1,1,14.7,14.7m0-34.2a19.15,19.15,0,0,0-19.2,19.5,19.47,19.47,0,0,0,19.2,19.2,19.35,19.35,0,1,0,0-38.7" transform="translate(-366.55 -382.75)"/><path id="_Compound_Path_14" data-name="&lt;Compound Path&gt;" d="M1254.85,770.55c-22.9,0-37.4-21.5-37.4-46.1,0-24.9,13.8-44.7,41.1-44.7a64.82,64.82,0,0,1,29.9,7.5v62.5c0,.1-11.1,20.8-33.6,20.8m50.5-201.9h-9.7c-3.1,0-4.8,2.2-4.8,5.3v93s-13.3-8.2-34.1-8.2c-37.7,0-60.4,28.7-60.4,65.4,0,36,24.9,65.9,56.8,65.9,23.4,0,38.4-16.7,38.4-16.7l1.9,8.2c.7,2.7,2.4,4.3,5.3,4.3h6.5c3.1,0,4.8-1.7,4.8-4.8v-207c.2-3.2-1.5-5.4-4.7-5.4" transform="translate(-366.55 -382.75)"/><path id="_Compound_Path_15" data-name="&lt;Compound Path&gt;" class="cls-4" d="M1254.85,761.55a25,25,0,0,1-20.2-10.3c-5.3-6.9-8.3-16.5-8.3-26.8,0-10.6,2.8-19.6,8.2-25.8,5.6-6.5,13.6-9.8,23.9-9.8a57.44,57.44,0,0,1,20.9,4.2v54.3c-2.7,4.1-11,14.2-24.5,14.2m3.7-77.3c-27,0-36.6,20.8-36.6,40.2,0,27.3,16.6,41.6,32.9,41.6,17,0,26.8-13.8,29.1-17.5v-58.5a61.24,61.24,0,0,0-25.4-5.8m27.8-24.4v-85.8c0-5.8,3.8-9.8,9.3-9.8h9.7c5.5,0,9.3,4,9.3,9.8v207.2c0,5.7-3.7,9.3-9.3,9.3h-6.5c-4.7,0-8.3-2.9-9.7-7.7l-.2-1c-6.9,5.4-19.4,12.8-35.8,12.8-33.8,0-61.3-31.6-61.3-70.4,0-41.2,26.7-69.9,64.9-69.9a78,78,0,0,1,29.6,5.5m19-100.2h-9.7c-8,0-13.8,6-13.8,14.3v79.5a85.38,85.38,0,0,0-25.1-3.7c-20.7,0-38.4,7.6-51.1,22-11.8,13.4-18.3,32-18.3,52.4,0,19.7,6.6,38.2,18.6,52.3,12.4,14.6,29.2,22.6,47.2,22.6a62.4,62.4,0,0,0,33.8-10.4,14,14,0,0,0,11.9,6.2h6.5c8.1,0,13.8-5.7,13.8-13.8V574c.1-8.3-5.8-14.4-13.8-14.4" transform="translate(-366.55 -382.75)"/><path id="_Compound_Path_16" data-name="&lt;Compound Path&gt;" class="cls-5" d="M1254.85,766c-16.4,0-32.9-14.3-32.9-41.6,0-19.4,9.6-40.2,36.6-40.2a62.31,62.31,0,0,1,25.4,5.7v58.6c-2.3,3.7-12,17.5-29.1,17.5m3.7-86.3c-27.3,0-41.1,19.8-41.1,44.7,0,24.6,14.5,46.1,37.4,46.1,22.5,0,33.6-20.8,33.6-20.8v-62.5a64.82,64.82,0,0,0-29.9-7.5m32.3-12.8V574c0-3.1,1.7-5.3,4.8-5.3h9.7c3.1,0,4.8,2.2,4.8,5.3v207.2c0,3.1-1.7,4.8-4.8,4.8h-6.5c-2.9,0-4.6-1.7-5.3-4.3l-1.9-8.2s-15,16.7-38.4,16.7c-31.9,0-56.8-29.9-56.8-65.9,0-36.7,22.7-65.4,60.4-65.4,20.7-.1,34,8.1,34,8.1m14.5-102.8h-9.7c-5.5,0-9.3,4-9.3,9.8v85.8a80.09,80.09,0,0,0-29.6-5.6c-38.2,0-64.9,28.8-64.9,69.9,0,38.8,27.5,70.4,61.3,70.4,16.4,0,28.9-7.4,35.8-12.8l.2,1c1.3,4.8,4.9,7.7,9.7,7.7h6.5c5.7,0,9.3-3.7,9.3-9.3v-207c.1-5.8-3.8-9.9-9.3-9.9" transform="translate(-366.55 -382.75)"/><path id="_Compound_Path_17" data-name="&lt;Compound Path&gt;" d="M1408.05,863.85c-21.3,0-37.7-10.1-37.7-25.6,0-18.4,21-23.4,21-23.4h34.8c22,0,23.9,15.7,23.9,19.8,0,18.3-21.3,29.2-42,29.2m-.5-115.5c-19.1,0-32.8-14.2-32.8-35,0-20.5,13.8-35,32.8-35,18.8,0,31.4,14.2,31.4,35s-12.6,35-31.4,35m52.9-90.3h-52.9c-32.6,0-52.9,26.3-52.9,55.5a57.35,57.35,0,0,0,9.9,31.6s-21.3,12.3-21.3,35.7c0,19.3,15.2,27.5,22.5,29.7v1c-2.4,1.7-17.9,10.1-17.9,29,0,20.8,18.4,43.2,60.4,43.2,37.9,0,64.7-24.6,64.7-50.7,0-27-20.5-40.1-46.9-40.1h-44.7c-11.6,0-17.1-7.5-17.1-15.2,0-12.3,13.8-18.6,13.8-18.6s9.7,7.7,29.7,7.7c32.4,0,52.6-24.6,52.6-53.1,0-24.6-14-35-14-35l17.1-3.4c2.2-.2,3.9-3.1,3.9-5.3v-5.3c.1-3.3-3.6-6.7-6.9-6.7" transform="translate(-366.55 -382.75)"/><path id="_Compound_Path_18" data-name="&lt;Compound Path&gt;" class="cls-4" d="M1408.05,854.85c-14.2,0-28.7-5.7-28.7-16.6,0-9.4,10.1-13.4,13.3-14.4h33.5c6.3,0,10.7,1.6,12.9,4.7a11.77,11.77,0,0,1,2,6.1c0,12.4-17.2,20.2-33,20.2m18.1-35.6H1392c-2.9.8-17.1,5.6-17.1,18.9,0,12.2,14,21.1,33.2,21.1,18.4,0,37.5-9.2,37.5-24.7,0-3.6-1.4-15.3-19.4-15.3m-18.6-79.9c-14.3,0-23.8-10.5-23.8-26s9.6-26,23.8-26c6.6,0,12.1,2.3,16,6.7,4.2,4.7,6.3,11.3,6.3,19.3s-2.2,14.6-6.3,19.3c-3.9,4.4-9.4,6.7-16,6.7m0-56.5c-16.7,0-28.3,12.5-28.3,30.5s11.7,30.5,28.3,30.5c16.3,0,26.9-12,26.9-30.5s-10.6-30.5-26.9-30.5m.7,205.5c-20.3,0-37.2-5.1-48.8-14.9-10.2-8.5-16-20.5-16-32.9,0-11.3,4.7-20.9,14.1-28.6-9.7-5.2-18.7-15.4-18.7-31.1,0-19.5,13-31.9,19.6-37a62.34,62.34,0,0,1-8.3-30.4c0-34.2,24.7-60,57.4-60h52.9c5.9,0,11.5,5.5,11.5,11.3V670c0,4.2-3.1,9.1-7.6,9.8l-9.1,1.8c4.5,6,9.7,16.5,9.7,32.2a58.64,58.64,0,0,1-15.4,40.3c-10.5,11.2-25.3,17.3-41.7,17.3-15.6,0-25.5-4.4-29.9-7-3.2,2-9.1,6.6-9.1,13.4,0,4.9,3.3,10.7,12.6,10.7h44.7c31.7,0,51.4,17.1,51.4,44.6-.1,30.4-31.1,55.2-69.3,55.2m52.2-239.3h-52.9c-17.8,0-34,7-45.4,19.8a66.9,66.9,0,0,0-9.4,74c-7.6,6.7-18.5,19.4-18.5,38.1a38.23,38.23,0,0,0,15.8,31.7,25.73,25.73,0,0,0-2.1,2.4,39.09,39.09,0,0,0-9.1,25.5c0,25.2,21.7,52.2,69.4,52.2,19.9,0,38.5-6.3,52.3-17.6,13.6-11.2,21.4-26.5,21.4-42.1,0-29.8-21.9-49.1-55.9-49.1h-44.7c-3,0-8.1-.8-8.1-6.2,0-3.4,2.6-6.2,4.9-8.1,5.7,2.8,15.5,6.2,29.6,6.2,17.7,0,33.7-6.6,45-18.7,10.7-11.4,16.6-26.8,16.6-43.4a61.19,61.19,0,0,0-6.9-29l2.6-.5c7-1.1,11.4-8.1,11.4-14.2v-5.3c0-8.2-7.7-15.7-16-15.7" transform="translate(-366.55 -382.75)"/><path id="_Compound_Path_19" data-name="&lt;Compound Path&gt;" class="cls-4" d="M1408.05,859.35c-19.2,0-33.2-8.9-33.2-21.1,0-13.3,14.2-18.1,17.1-18.9h34.2c18,0,19.4,11.7,19.4,15.3,0,15.4-19.1,24.7-37.5,24.7m18.1-44.6h-34.8s-21,5.1-21,23.4c0,15.5,16.4,25.6,37.7,25.6,20.8,0,42-10.9,42-29.2,0-4.1-2-19.8-23.9-19.8m-18.6-70.9c-16.7,0-28.3-12.5-28.3-30.5s11.7-30.5,28.3-30.5c16.3,0,26.9,12,26.9,30.5s-10.6,30.5-26.9,30.5m0-65.5c-19.1,0-32.8,14.5-32.8,35,0,20.8,13.8,35,32.8,35,18.8,0,31.4-14.2,31.4-35s-12.6-35-31.4-35m.7,205.5c-42,0-60.4-22.5-60.4-43.2,0-18.8,15.5-27.3,17.9-29v-1c-7.2-2.2-22.5-10.4-22.5-29.7,0-23.4,21.3-35.7,21.3-35.7a57.76,57.76,0,0,1-9.9-31.6c0-29.2,20.3-55.5,52.9-55.5h52.9c3.4,0,7,3.4,7,6.8v5.3c0,2.2-1.7,5.1-3.9,5.3l-17.1,3.4s14,10.4,14,35c0,28.5-20.3,53.1-52.6,53.1-20,0-29.7-7.7-29.7-7.7s-13.8,6.3-13.8,18.6c0,7.7,5.6,15.2,17.1,15.2h44.7c26.3,0,46.9,13,46.9,40.1-.1,26-26.9,50.6-64.8,50.6m52.2-230.3h-52.9c-32.7,0-57.4,25.8-57.4,60a62.34,62.34,0,0,0,8.3,30.4c-6.7,5.1-19.6,17.5-19.6,37,0,15.7,9,25.9,18.7,31.1-9.3,7.7-14.1,17.3-14.1,28.6,0,12.4,5.8,24.3,16,32.9,11.7,9.7,28.5,14.9,48.8,14.9,38.2,0,69.2-24.8,69.2-55.2,0-27.5-19.7-44.6-51.4-44.6h-44.7c-9.3,0-12.6-5.8-12.6-10.7,0-6.7,5.9-11.3,9.1-13.4,4.4,2.5,14.3,7,29.9,7,16.5,0,31.3-6.1,41.7-17.3a58.64,58.64,0,0,0,15.4-40.3c0-15.7-5.3-26.1-9.7-32.2l9.1-1.8c4.6-.7,7.6-5.5,7.6-9.8v-5.3c.1-5.8-5.5-11.3-11.4-11.3" transform="translate(-366.55 -382.75)"/><path id="_Compound_Path_20" data-name="&lt;Compound Path&gt;" d="M1512.55,713.55c2.2-21.7,18.4-34.5,39.4-34.5,19.1,0,34.1,15.2,35,34.5h-74.4m39.4-54.8c-37.9,0-61.3,30.4-61.3,65.9,0,36,23.4,65.7,61.3,65.7,21.7,0,38.6-8.5,46.1-14.5,4.6-3.6,3.4-5.3,1.2-8.2-1.9-2.7-3.4-4.8-5.3-7.2-1-1.4-1.9-1.9-2.9-1.9-1.5,0-3.2,1.2-5.8,2.6-7,4.3-17.9,9.4-30.9,9.4-22.2,0-40.8-21-42-40.3h90.1a6,6,0,0,0,5.6-5.6,51,51,0,0,0,.7-8.7c-.1-32.8-24-57.2-56.8-57.2" transform="translate(-366.55 -382.75)"/><path id="_Path_9" data-name="&lt;Path&gt;" class="cls-4" d="M1579.25,655.25c.8,1.2,1.6,2.4,2.4,3.5H1576a58.92,58.92,0,0,1,19.9,13.1c11.2,11.3,17.4,27,17.4,44.1a57.51,57.51,0,0,1-.8,9.4c-.6,5.2-5,9.4-10,9.4h-84.9c3.5,15.4,18.8,31.3,36.8,31.3,11.9,0,22.1-4.8,28.5-8.7l.2-.1c.5-.3.9-.5,1.3-.7,2.3-1.3,4.3-2.5,6.7-2.5s4.7,1.2,6.5,3.7c1.4,1.7,2.5,3.3,3.7,5,.5.7,1.1,1.5,1.6,2.3,2.1,2.8,6,8-2.1,14.4-8.8,7.1-27,15.5-48.9,15.5-19.4,0-36.1-7.2-48.3-20.9-11.3-12.8-17.6-30.3-17.6-49.3s6.2-36.4,17.6-49.2a61.75,61.75,0,0,1,23.8-16.7h-9.6c-.1-.1-.1-.2-.2-.4a63.5,63.5,0,0,0-17.4,14.1c-12.1,13.7-18.7,32.3-18.7,52.2,0,20.1,6.6,38.7,18.7,52.3,12.8,14.4,31.2,22.4,51.6,22.4,23.1,0,42.3-8.9,51.7-16.5,1.7-1.3,6.5-5.2,6.5-11.4,0-4.2-2.2-7.2-3.7-9.2-.6-.8-1.1-1.5-1.6-2.2-1.2-1.7-2.4-3.3-3.8-5.1a12.08,12.08,0,0,0-10-5.4c-3.6,0-6.4,1.6-8.9,3.1-.4.2-.8.5-1.2.7l-.2.1-.2.1c-5.9,3.7-15.3,8.1-26.2,8.1-8,0-16-3.6-22.5-10.2a41.78,41.78,0,0,1-8.2-12.1h78.7c7.2,0,13.5-5.8,14.5-13.2a61.28,61.28,0,0,0,.8-10.1c0-18.3-6.6-35.1-18.7-47.3a56.72,56.72,0,0,0-19.5-13.6" transform="translate(-366.55 -382.75)"/><path id="_Path_10" data-name="&lt;Path&gt;" class="cls-4" d="M1551.95,649.75a70.28,70.28,0,0,0-34.2,8.6c.1.1.1.2.2.4h9.6a66.25,66.25,0,0,1,24.5-4.5,63.64,63.64,0,0,1,24,4.5h5.7c-.8-1.2-1.6-2.3-2.4-3.5a69.83,69.83,0,0,0-27.4-5.5" transform="translate(-366.55 -382.75)"/><path id="_Compound_Path_21" data-name="&lt;Compound Path&gt;" class="cls-4" d="M1524.05,704.55c4.6-10.4,14.6-16.5,27.9-16.5,10.9,0,20,6.7,24,16.5h-51.9m27.9-21c-17.9,0-30.5,9.7-34.1,25.5H1582c-2.8-14.8-15-25.5-30-25.5" transform="translate(-366.55 -382.75)"/><path id="_Compound_Path_22" data-name="&lt;Compound Path&gt;" class="cls-5" d="M1517.85,709c3.6-15.9,16.2-25.5,34.1-25.5,15,0,27.2,10.7,30,25.5h-64.1m34.1-30c-21,0-37.2,12.8-39.4,34.5h74.4c-1-19.3-15.9-34.5-35-34.5m0,111.3c-37.9,0-61.3-29.7-61.3-65.7,0-35.5,23.4-65.9,61.3-65.9,32.8,0,56.8,24.4,56.8,57.2a51,51,0,0,1-.7,8.7,6,6,0,0,1-5.6,5.6h-90.1c1.2,19.3,19.8,40.3,42,40.3,13,0,23.9-5.1,30.9-9.4,2.6-1.4,4.3-2.6,5.8-2.6,1,0,1.9.5,2.9,1.9,1.9,2.4,3.4,4.6,5.3,7.2,2.2,2.9,3.4,4.6-1.2,8.2-7.5,6.1-24.4,14.5-46.1,14.5m0-136.1a66.25,66.25,0,0,0-24.5,4.5,61.75,61.75,0,0,0-23.8,16.7c-11.3,12.9-17.6,30.4-17.6,49.2,0,19,6.2,36.6,17.6,49.3,12.1,13.6,28.8,20.9,48.3,20.9,22,0,40.1-8.3,48.9-15.5,8.1-6.4,4.1-11.6,2.1-14.4-.6-.8-1.1-1.6-1.6-2.3-1.2-1.7-2.3-3.3-3.7-5-1.8-2.4-4-3.7-6.5-3.7s-4.4,1.1-6.7,2.5c-.4.2-.8.5-1.3.7l-.2.1c-6.4,4-16.6,8.7-28.5,8.7-18,0-33.3-15.9-36.8-31.3h84.9c5,0,9.4-4.2,10-9.4a57.53,57.53,0,0,0,.8-9.4c0-17.1-6.2-32.8-17.4-44.1a58.92,58.92,0,0,0-19.9-13.1,68.72,68.72,0,0,0-24.1-4.4" transform="translate(-366.55 -382.75)"/><path id="_Compound_Path_23" data-name="&lt;Compound Path&gt;" d="M676.05,770.15c-22.9,0-40.8-20.5-40.6-45.6,0-24.6,17.6-44.7,40.6-44.7,22.7,0,40.6,20,40.6,44.7-.1,25.3-17.7,45.6-40.6,45.6m0-111.4c-34.8,0-62.3,30.2-62.3,65.4,0,36,27.5,65.9,62.3,65.9s62.3-29.9,62.3-65.9c0-35.4-27.6-65.4-62.3-65.4" transform="translate(-366.55 -382.75)"/><path id="_Path_11" data-name="&lt;Path&gt;" class="cls-4" d="M676.05,649.75c-19.2,0-37.2,7.9-50.8,22.3a75.58,75.58,0,0,0-20.6,52.1,76.85,76.85,0,0,0,17,48.5c.6-1.7,1.1-3.4,1.7-5.1a72.54,72.54,0,0,1-14.2-43.4c0-37.7,28.6-68.5,64.3-69.9.9-1.5,1.8-3,2.6-4.5h0" transform="translate(-366.55 -382.75)"/><path id="_Path_12" data-name="&lt;Path&gt;" class="cls-4" d="M676.05,649.75c-.9,1.5-1.7,3-2.6,4.5H676c36.8,0,66.8,31.4,66.8,69.9,0,38.8-30,70.4-66.8,70.4-21.3,0-40.3-10.6-52.6-27-.6,1.7-1.2,3.4-1.7,5.1,13.1,16.1,32.6,26.4,54.3,26.4,39.3,0,71.3-33.6,71.3-74.9.1-41-31.9-74.3-71.2-74.4" transform="translate(-366.55 -382.75)"/><path id="_Path_13" data-name="&lt;Path&gt;" class="cls-4" d="M653.85,692.55c-8.4,7.2-13.7,18.4-13.9,31.2,0-.1.1-.2.1-.3a41.11,41.11,0,0,1,12.5-28.2c.4-.8.9-1.8,1.3-2.7" transform="translate(-366.55 -382.75)"/><path id="_Compound_Path_24" data-name="&lt;Compound Path&gt;" class="cls-4" d="M643.75,743.15a40.9,40.9,0,0,0,8.2,12.2,34,34,0,0,0,24.1,10.3c12.9,0,24-7.3,30.4-18.7-6.4,11.1-17.6,18.4-30.4,18.4-14.2,0-26.5-9-32.3-22.2m-3.7-19.6c0,.1-.1.2-.1.3v.7a44,44,0,0,0,.5,7.3,42.61,42.61,0,0,1-.4-6.3v-2m36-39.3a34,34,0,0,0-22.2,8.3c-.4.9-.9,1.9-1.3,2.8a33.9,33.9,0,0,1,23.5-9.6c19.9,0,36,17.8,36,39.8,0,1,0,2-.1,3,.1-1.3.2-2.7.2-4.1-.1-22.1-16.2-40.2-36.1-40.2" transform="translate(-366.55 -382.75)"/><path id="_Path_14" data-name="&lt;Path&gt;" class="cls-4" d="M652.55,695.35a41.55,41.55,0,0,0-12.5,28.2c4-9.5,8.1-18.9,12.5-28.2" transform="translate(-366.55 -382.75)"/><path id="_Compound_Path_25" data-name="&lt;Compound Path&gt;" class="cls-4" d="M676.05,761.15a29.18,29.18,0,0,1-20.9-9c-6.9-6.9-10.7-17-10.6-27.6h0c0-20,13.9-35.7,31.6-35.7a29.61,29.61,0,0,1,22.1,10.1,37.94,37.94,0,0,1,9.5,25.5c-.2,20.6-14,36.7-31.7,36.7m0-75.4a33.9,33.9,0,0,0-23.5,9.6c-4.4,9.3-8.5,18.7-12.5,28.2v2c0,2.1.2,4.2.4,6.3a44,44,0,0,0,3.3,11.4c5.9,13.2,18.1,22.2,32.3,22.2,12.8,0,24-7.4,30.4-18.4a44.46,44.46,0,0,0,5.5-18.4c.1-1,.1-2,.1-3,0-22.1-16.1-39.9-36-39.9" transform="translate(-366.55 -382.75)"/><path id="_Compound_Path_26" data-name="&lt;Compound Path&gt;" class="cls-5" d="M653.85,692.55a33.85,33.85,0,0,1,22.2-8.3c19.9,0,36.1,18,36.1,40.2,0,1.4-.1,2.7-.2,4.1a45.52,45.52,0,0,1-5.5,18.4c-6.4,11.3-17.5,18.7-30.4,18.7a34,34,0,0,1-24.1-10.3,40.9,40.9,0,0,1-8.2-12.2,44,44,0,0,1-3.3-11.4,44.79,44.79,0,0,1-.5-7.3v-.7c.2-12.8,5.5-24,13.9-31.2m22.2-12.8c-22.9,0-40.6,20-40.6,44.7-.2,25.1,17.6,45.6,40.6,45.6s40.6-20.3,40.6-45.6c-.1-24.6-17.9-44.7-40.6-44.7m0,110.4c-34.8,0-62.3-29.9-62.3-65.9,0-35.3,27.5-65.4,62.3-65.4s62.3,29.9,62.3,65.4c0,36-27.6,65.9-62.3,65.9m0-135.9h-2.5c-35.7,1.4-64.3,32.2-64.3,69.9a72.54,72.54,0,0,0,14.2,43.4c12.2,16.4,31.3,27,52.6,27,36.8,0,66.8-31.6,66.8-70.4,0-38.5-30-69.9-66.8-69.9" transform="translate(-366.55 -382.75)"/><path id="_Path_15" data-name="&lt;Path&gt;" d="M821.75,701.15h-50.4c-1.5,0-2.7,2.2-2.7,5.1v8.3c0,2.8,1.2,5.1,2.7,5.1h50.4c1.5,0,2.7-2.2,2.7-5.1v-8.3c-.1-2.9-1.2-5.1-2.7-5.1" transform="translate(-366.55 -382.75)"/><path id="_Path_16" data-name="&lt;Path&gt;" class="cls-4" d="M821.75,692.15h-30.9c-.6,1.5-1.3,3-1.9,4.5h32.8c4.2,0,7.2,4,7.2,9.6v8.3c0,5.5-3,9.6-7.2,9.6h-43.4c-.5,1.5-1.1,3-1.6,4.5h45c6.7,0,11.7-6,11.7-14.1v-8.3c-.1-8.1-5.1-14.1-11.7-14.1" transform="translate(-366.55 -382.75)"/><path id="_Path_17" data-name="&lt;Path&gt;" class="cls-4" d="M790.85,692.15h-19.5c-6.7,0-11.7,6-11.7,14.1v8.3c0,8,5,14.1,11.7,14.1h5.4c.5-1.5,1.1-3,1.6-4.5h-7c-4.2,0-7.2-4-7.2-9.6v-8.3c0-5.5,3-9.6,7.2-9.6H789c.6-1.5,1.3-3,1.9-4.5" transform="translate(-366.55 -382.75)"/><path id="_Compound_Path_27" data-name="&lt;Compound Path&gt;" class="cls-5" d="M771.35,719.55c-1.5,0-2.7-2.2-2.7-5.1v-8.3c0-2.8,1.2-5.1,2.7-5.1h50.4c1.5,0,2.7,2.2,2.7,5.1v8.3c0,2.8-1.2,5.1-2.7,5.1h-50.4m50.4-22.9h-50.4c-4.2,0-7.2,4-7.2,9.6v8.3c0,5.5,3,9.6,7.2,9.6h50.4c4.2,0,7.2-4,7.2-9.6v-8.3c-.1-5.6-3.1-9.6-7.2-9.6" transform="translate(-366.55 -382.75)"/><path id="_Path_18" data-name="&lt;Path&gt;" class="cls-6" d="M802,803.85h-5.4a2.61,2.61,0,0,0-2.5,2.5v73.6a2.61,2.61,0,0,0,2.5,2.5H802a2.61,2.61,0,0,0,2.5-2.5v-73.6a2.61,2.61,0,0,0-2.5-2.5" transform="translate(-366.55 -382.75)"/><path id="_Path_19" data-name="&lt;Path&gt;" class="cls-6" d="M862.35,827.65a29.72,29.72,0,0,0-18.7,7.1l-1.2-4.1a1.9,1.9,0,0,0-2.1-1.6h-2.5a2.61,2.61,0,0,0-2.5,2.5V880a2.61,2.61,0,0,0,2.5,2.5H842a2.61,2.61,0,0,0,2.5-2.5v-35.7s7.2-7.6,17.3-7.6c7.5,0,12,4.9,12,15.1V880a2.61,2.61,0,0,0,2.5,2.5h4.3A2.61,2.61,0,0,0,883,880v-28.2c.1-13.9-5.2-24.1-20.7-24.1" transform="translate(-366.55 -382.75)"/><path id="_Compound_Path_28" data-name="&lt;Compound Path&gt;" class="cls-6" d="M917.45,829h-4.1a2.61,2.61,0,0,0-2.5,2.5V880a2.61,2.61,0,0,0,2.5,2.5h4.1A2.61,2.61,0,0,0,920,880v-48.4a2.47,2.47,0,0,0-2.5-2.5m-2.2-23.9a6.35,6.35,0,1,0,6.4,6.4,6.3,6.3,0,0,0-6.4-6.4" transform="translate(-366.55 -382.75)"/><path id="_Path_20" data-name="&lt;Path&gt;" class="cls-6" d="M958.65,811.35l-4.3.3a2.61,2.61,0,0,0-2.5,2.5V829h-6.8a2.42,2.42,0,0,0-2.5,2.5v2.9a2.54,2.54,0,0,0,2.5,2.5h6.8V869c0,8.3,1.6,14.7,12.3,14.7,6.3,0,13.5-3.3,15.4-4.5,1.5-.9,1.9-1.7.9-3.3l-2-3.3c-.4-.7-.8-1.3-1.6-1.3a3.16,3.16,0,0,0-1.6.5c-1.7.9-6.4,2.9-9.8,2.9-3.1,0-4.4-1.1-4.4-6.4v-31.3h15.5a2.47,2.47,0,0,0,2.5-2.5v-2.9a2.42,2.42,0,0,0-2.5-2.5h-15.5v-15.1a2.51,2.51,0,0,0-2.4-2.7" transform="translate(-366.55 -382.75)"/><path id="_Compound_Path_29" data-name="&lt;Compound Path&gt;" class="cls-6" d="M1010.15,829h-4.1a2.61,2.61,0,0,0-2.5,2.5V880a2.61,2.61,0,0,0,2.5,2.5h4.1a2.61,2.61,0,0,0,2.5-2.5v-48.4a2.47,2.47,0,0,0-2.5-2.5m-2.2-23.9a6.35,6.35,0,1,0,6.4,6.4,6.3,6.3,0,0,0-6.4-6.4" transform="translate(-366.55 -382.75)"/><path id="_Compound_Path_30" data-name="&lt;Compound Path&gt;" class="cls-6" d="M1055.15,875.85c-5.8,0-9.4-4.1-9.4-9.5,0-7,5.3-10.7,12.8-10.7,5.9,0,9.6,1.2,11.2,2.1v10.6a18.72,18.72,0,0,1-14.6,7.5m6.5-48.2a50.32,50.32,0,0,0-18.6,3.5c-1.2.5-2,1.3-1.5,2.9l1.1,3.3c.3.9.8,1.5,1.7,1.5a3.71,3.71,0,0,0,.9-.2,48.31,48.31,0,0,1,16.1-2.9c7.6,0,8.8,4.5,8.7,14.4a44.76,44.76,0,0,0-11.4-1.7c-13.8,0-21.4,7.6-21.4,17.8,0,10.7,7.1,17.5,16.5,17.5a22.84,22.84,0,0,0,16.6-7l1.1,3.6c.4,1.2.8,2,2.3,2h2.5a2.61,2.61,0,0,0,2.5-2.5v-29.7c-.1-15.5-3.4-22.5-17.1-22.5" transform="translate(-366.55 -382.75)"/><path id="_Path_21" data-name="&lt;Path&gt;" class="cls-6" d="M1116.95,811.35l-4.3.3a2.61,2.61,0,0,0-2.5,2.5V829h-6.8a2.42,2.42,0,0,0-2.5,2.5v2.9a2.54,2.54,0,0,0,2.5,2.5h6.8V869c0,8.3,1.6,14.7,12.3,14.7,6.3,0,13.5-3.3,15.4-4.5,1.5-.9,1.9-1.7.9-3.3l-2-3.3c-.4-.7-.8-1.3-1.6-1.3a3.16,3.16,0,0,0-1.6.5c-1.7.9-6.4,2.9-9.8,2.9-3.1,0-4.4-1.1-4.4-6.4v-31.3h15.5a2.47,2.47,0,0,0,2.5-2.5v-2.9a2.42,2.42,0,0,0-2.5-2.5h-15.5v-15.1a2.57,2.57,0,0,0-2.4-2.7" transform="translate(-366.55 -382.75)"/><path id="_Compound_Path_31" data-name="&lt;Compound Path&gt;" class="cls-6" d="M1168.45,829h-4.1a2.61,2.61,0,0,0-2.5,2.5V880a2.61,2.61,0,0,0,2.5,2.5h4.1a2.61,2.61,0,0,0,2.5-2.5v-48.4a2.61,2.61,0,0,0-2.5-2.5m-2.3-23.9a6.35,6.35,0,1,0,6.4,6.4,6.3,6.3,0,0,0-6.4-6.4" transform="translate(-366.55 -382.75)"/><path id="_Path_22" data-name="&lt;Path&gt;" class="cls-6" d="M1240.65,829h-3.5a2.58,2.58,0,0,0-2.3,1.5l-17.7,38.3h-.1l-16.6-38.3a2.62,2.62,0,0,0-2.4-1.5H1194c-2,0-2.8,1.3-2,3.1l22.6,50.4a2.38,2.38,0,0,0,2.3,1.3h.7a2.55,2.55,0,0,0,2.3-1.3l22.9-50.4c.7-1.8-.1-3.1-2.1-3.1" transform="translate(-366.55 -382.75)"/><path id="_Compound_Path_32" data-name="&lt;Compound Path&gt;" class="cls-6" d="M1269.15,850.55a16.61,16.61,0,0,1,16.9-14.7c8.2,0,14.6,7,15,14.7h-31.9m16.8-22.9c-16.2,0-26.2,13-26.2,28.1,0,15.4,10,28.1,26.2,28.1,9.2,0,16.5-3.6,19.7-6.2,2-1.5,1.5-2.3.5-3.5-.8-1.1-1.5-2-2.3-3.1-.4-.6-.8-.9-1.3-.9a7,7,0,0,0-2.5,1.1,25.17,25.17,0,0,1-13.2,4c-9.5,0-17.4-8.4-17.9-17.4h38.5a2.41,2.41,0,0,0,2.4-2.3c.1-.9.3-2.7.3-3.6.1-13.8-10.1-24.3-24.2-24.3" transform="translate(-366.55 -382.75)"/></g></g></svg>