<svg xmlns="http://www.w3.org/2000/svg" shape-rendering="geometricPrecision" text-rendering="optimizeSpeed" viewBox="0 0 400 220" height="220" width="400"><defs><clipPath id="a"><path d="M0 612h792V0H0v612z"/></clipPath><clipPath id="c"><path d="M0 612h792V0H0v612z"/></clipPath></defs><filter id="b" height="130%"><feGaussianBlur in="SourceAlpha" stdDeviation="2"/><feOffset dx="1" dy="-1" result="offsetblur"/><feMerge><feMergeNode/><feMergeNode in="SourceGraphic"/></feMerge></filter><g xmlns="http://www.w3.org/2000/svg" clip-path="url(#a)" transform="matrix(1.25 0 0 -1.25 -535 525)" filter="url(#b)"><path d="M447.8 314.8a4.8 4.8 0 0 0-1.7-1.6 5 5 0 0 0-2.4-.5 5.2 5.2 0 0 0-2.2.5 5.5 5.5 0 0 0-1.8 1.3 6.7 6.7 0 0 0-1.3 2.1c-.3.8-.4 1.7-.4 2.7 0 1 .1 1.9.4 2.7a6.4 6.4 0 0 0 1.3 2.1 5.6 5.6 0 0 0 1.8 1.4 5.7 5.7 0 0 0 2.4.5c.8 0 1.5-.2 2.2-.5a4.2 4.2 0 0 0 1.5-1.1l.5-.6 5.1 4.1-.5.6a8.7 8.7 0 0 1-1.8 1.8 10.2 10.2 0 0 1-4.4 1.7c-.7.2-1.5.2-2.2.2a15 15 0 0 1-5.2-.9 11.8 11.8 0 0 1-7-6.7c-.6-1.5-1-3.3-1-5.3s.4-3.7 1-5.3a11.8 11.8 0 0 1 7-6.7c1.6-.6 3.4-.9 5.2-.9a12.3 12.3 0 0 1 5 1 9.7 9.7 0 0 1 4 3.4l.5.6-5.5 4-.5-.6z" fill="#328f82"/><path d="M466.7 312.7c-1 0-2 .1-2.7.5a5.8 5.8 0 0 0-2 1.3 6 6 0 0 0-1.3 2.1c-.3.8-.4 1.7-.4 2.7 0 1 .1 1.9.4 2.7a6 6 0 0 0 1.3 2.1 5.8 5.8 0 0 0 2 1.4c.8.3 1.7.5 2.7.5 1 0 1.8-.2 2.6-.5a5.9 5.9 0 0 0 2-1.4 6 6 0 0 0 1.3-2c.3-1 .4-1.8.4-2.8 0-1-.1-1.9-.4-2.7a6.1 6.1 0 0 0-1.3-2 5.8 5.8 0 0 0-2-1.4c-.8-.4-1.7-.5-2.6-.5m9.4 16c-1.2 1.2-2.6 2-4.2 2.6a15 15 0 0 1-5.2 1 15 15 0 0 1-5.3-1 11.9 11.9 0 0 1-7-6.7c-.6-1.5-1-3.3-1-5.3s.4-3.7 1-5.3a11.9 11.9 0 0 1 7-6.7c1.6-.6 3.4-.9 5.3-.9 1.8 0 3.6.3 5.2 1 1.6.5 3 1.4 4.2 2.5 1.2 1.1 2.1 2.5 2.8 4.1.7 1.6 1 3.4 1 5.3 0 2-.3 3.7-1 5.3-.7 1.6-1.6 3-2.8 4.1m12.3-3h3.3a3.8 3.8 0 0 0 1.1-.3 1.9 1.9 0 0 0 .8-.6l.2-1c0-.4 0-.7-.2-1a1.6 1.6 0 0 0-.5-.5 2.7 2.7 0 0 0-1-.3 5.6 5.6 0 0 0-1-.1h-2.7v3.9zm9.3 4.4c-.8.5-1.9 1-3 1.2-1.1.2-2.3.3-3.6.3h-9.3V307h6.6v9h3c1.2 0 2.4.1 3.5.4a8 8 0 0 1 3 1.2c.9.7 1.5 1.5 2 2.5s.8 2.3.8 3.7c0 1.5-.3 2.8-.8 3.8s-1.3 1.8-2.2 2.5m4-5.5l3.7-4.4 4 3.5V307h6.2v24.6H510l-8.4-7zm36.4-8.1a6.1 6.1 0 0 1-1 1.8 5.7 5.7 0 0 1-1.5 1.4h-.1a5 5 0 0 1 1.4 1.4c.7 1 1.1 2.3 1.1 3.7a7 7 0 0 1-.7 3.3 6.7 6.7 0 0 1-2 2.2 8 8 0 0 1-2.7 1.3c-2 .5-4.2.5-6.1 0a9 9 0 0 1-2.6-1 7.2 7.2 0 0 1-2.1-1.9c-.6-.8-1-1.7-1.3-2.8l-.2-.8 7-1.4v.7c.2.5.4.8.8 1.1.4.3.8.5 1.4.5.6 0 1.1-.2 1.5-.5.4-.3.6-.7.6-1.2 0-.3 0-.7-.2-.9a1.4 1.4 0 0 0-.6-.5 3.1 3.1 0 0 0-1-.3 8 8 0 0 0-1.2 0h-2.3v-5.9h3.5a3.9 3.9 0 0 0 1.2-.3c.3 0 .5-.3.7-.5.2-.2.3-.6.3-1 0-.7-.2-1.2-.6-1.6-.3-.4-1-.6-1.8-.6s-1.4.1-1.8.5c-.4.4-.7.9-.8 1.5l-.2.8-6.7-1.6.2-.7c.5-2.3 1.6-4 3.3-5 1.6-1 3.5-1.6 5.7-1.6 1.2 0 2.4.2 3.5.5 1 .3 2 .8 2.9 1.4a7.1 7.1 0 0 1 2 2.4c.5 1 .7 2.1.7 3.4a7 7 0 0 1-.3 2.2" fill="#328f82"/><path d="M544 316.8h4.5v-2.4h-4.6v2.4zM560 326c-.4 1-.8 1.6-1.4 2.1-.6.5-1.2.7-1.8.7a3 3 0 0 1-2-.8 6.6 6.6 0 0 1-1.6-2c-.5-1-.8-2-1-3.1a17.5 17.5 0 0 1-.5-3.7c0-1.3.2-2.6.4-3.7.3-1.2.6-2.2 1-3 .5-1 1-1.6 1.6-2.1.6-.5 1.3-.8 2-.8.9 0 1.6.3 2.2.9.6.5 1.2 1.3 1.7 2.4l1.1-1.8a7.6 7.6 0 0 0-2.1-3 4.5 4.5 0 0 0-2.8-1c-1 0-1.9.3-2.7 1-.8.5-1.5 1.4-2.1 2.4-.6 1.1-1 2.4-1.4 3.9a21.6 21.6 0 0 0 1.3 13.4 8 8 0 0 0 2.2 2.6 4.3 4.3 0 0 0 5.2 0c.8-.5 1.5-1.4 2.1-2.7l-1.4-1.7zm10-16.4c.8 0 1.5.3 2.1.8.7.5 1.2 1.2 1.7 2a17.5 17.5 0 0 1 0 13.6c-.5.9-1 1.5-1.7 2a3.3 3.3 0 0 1-4.2 0 6.2 6.2 0 0 1-1.6-2 12 12 0 0 1-1.1-3 17.3 17.3 0 0 1 1-10.6c.5-.8 1-1.5 1.7-2 .6-.5 1.3-.8 2.1-.8m0-2.5c-1 0-2 .3-2.7 1-.9.5-1.6 1.4-2.2 2.4-.6 1.1-1.1 2.4-1.4 3.9a21.7 21.7 0 0 0 1.4 13.5c.6 1 1.3 2 2.2 2.5a4.6 4.6 0 0 0 5.5 0c.8-.6 1.5-1.4 2.1-2.5.7-1 1.1-2.4 1.5-3.8a21.7 21.7 0 0 0-1.5-13.6 8 8 0 0 0-2.1-2.5c-.9-.6-1.8-.9-2.8-.9m11 13.5h2.6c.8 0 1.4.3 1.9 1 .5.5.7 1.5.7 2.8 0 1.3-.2 2.3-.7 2.9-.5.6-1.1 1-2 1h-2.5v-7.7zm-1.6 10.2h3.9c.6 0 1.2-.1 1.7-.4a3.6 3.6 0 0 0 1.5-1c.4-.5.8-1.1 1-2 .3-.8.4-1.8.4-3a10 10 0 0 0-.4-3c-.3-1-.6-1.6-1-2-.5-.5-1-.9-1.5-1a4 4 0 0 0-1.4-.4H581v-10.3h-1.6v23zm11 0h2.3l4.5-18.1 4.5 18h2.3v-23h-1.6V327l-4.7-19.3h-1l-4.7 19.3v-19.3h-1.6v23zm23-21.2c.7 0 1.4.3 2 .8.7.5 1.3 1.2 1.7 2a17.6 17.6 0 0 1 1.5 6.8 17.7 17.7 0 0 1-.4 3.8 12 12 0 0 1-1 3c-.5.9-1 1.5-1.7 2a3.3 3.3 0 0 1-4.2 0 6.2 6.2 0 0 1-1.7-2 12 12 0 0 1-1-3 17.5 17.5 0 0 1-.4-3.8c0-1.3 0-2.5.3-3.7a12 12 0 0 1 1.1-3c.5-1 1-1.6 1.7-2.1.6-.5 1.3-.8 2-.8m0-2.5c-1 0-1.9.3-2.7 1a8 8 0 0 0-2.2 2.4c-.6 1.1-1 2.4-1.4 3.9a21.7 21.7 0 0 0 1.4 13.5c.6 1 1.4 2 2.2 2.5a4.6 4.6 0 0 0 5.5 0c.9-.6 1.6-1.4 2.2-2.5.6-1 1-2.4 1.4-3.8a21.6 21.6 0 0 0-1.4-13.6 8 8 0 0 0-2.2-2.5c-.8-.6-1.7-.9-2.7-.9m11 13.5h2.5c.8 0 1.5.3 2 1 .4.5.7 1.5.7 2.8 0 1.3-.3 2.3-.8 2.9-.4.6-1 1-1.9 1h-2.6v-7.7zm-1.7 10.2h4c.6 0 1.1-.1 1.7-.4.5-.2 1-.5 1.5-1 .4-.5.7-1.1 1-2 .2-.8.4-1.8.4-3s-.2-2.3-.5-3c-.2-1-.6-1.6-1-2-.4-.5-.9-.9-1.4-1a4 4 0 0 0-1.5-.4h-2.6v-10.3h-1.6v23zm12.4-5.8c0-1.1.2-2 .6-2.8.4-.7 1-1 1.6-1 .6 0 1.2.3 1.6 1 .4.8.6 1.7.6 2.8 0 1-.2 2-.6 2.7-.4.7-1 1.1-1.6 1.1s-1.2-.4-1.6-1c-.4-.8-.6-1.7-.6-2.8m-.4-10.8c0-.6 0-1.3.2-1.8 0-.6.3-1 .5-1.5l.9-1a1.7 1.7 0 0 1 2 0l.9 1 .5 1.5a8 8 0 0 1-.5 5.1 3.1 3.1 0 0 1-.9 1 1.7 1.7 0 0 1-1 .3c-.4 0-.7 0-1-.3a3.1 3.1 0 0 1-.9-1 5 5 0 0 1-.5-1.4 7.7 7.7 0 0 1-.2-1.9m-1.2 11c0 .8.1 1.7.3 2.4l.8 1.9c.3.5.7 1 1.2 1.2a2.7 2.7 0 0 0 3 0 4 4 0 0 0 1.2-1.2c.3-.5.6-1.2.8-2a9.8 9.8 0 0 0 0-4 7.4 7.4 0 0 0-.3-1.5 5.1 5.1 0 0 0-.7-1.2c-.3-.4-.6-.6-1-.8a2.8 2.8 0 0 0 1.2-.8l.8-1.3a8.5 8.5 0 0 0 .5-1.8 11.3 11.3 0 0 0-.1-4.9c-.3-.8-.5-1.5-1-2.1-.3-.6-.8-1-1.3-1.3a3.2 3.2 0 0 0-1.6-.5c-.6 0-1.1.2-1.7.5-.5.3-1 .7-1.3 1.3-.4.6-.7 1.3-.9 2.1a11.3 11.3 0 0 0-.1 5 8.4 8.4 0 0 0 .5 1.7l.8 1.3c.3.4.7.6 1 .8l-.8.8a5 5 0 0 0-.7 1.2 7.4 7.4 0 0 0-.4 1.5 8.9 8.9 0 0 0-.2 1.6m9.8-8.4h4.5v-2.4h-4.5v2.4zm16.2 9.3c-.4 1-.9 1.6-1.5 2.1s-1.2.7-1.8.7a3 3 0 0 1-2-.8 6.6 6.6 0 0 1-1.6-2c-.4-1-.8-2-1-3.1a17.3 17.3 0 0 1-.4-3.7c0-1.3.1-2.6.4-3.7.2-1.2.5-2.2 1-3 .4-1 1-1.6 1.6-2.1.6-.5 1.3-.8 2-.8.8 0 1.5.3 2.2.9.6.5 1.1 1.3 1.6 2.4l1.2-1.8a7.6 7.6 0 0 0-2.2-3 4.5 4.5 0 0 0-2.8-1c-1 0-1.8.3-2.6 1-.9.5-1.6 1.4-2.2 2.4-.6 1.1-1 2.4-1.4 3.9a21.6 21.6 0 0 0 1.4 13.4c.6 1.1 1.3 2 2.1 2.6a4.3 4.3 0 0 0 5.3 0c.8-.5 1.5-1.4 2-2.7l-1.3-1.7zm10-16.4c.7 0 1.4.3 2 .8.7.5 1.3 1.2 1.7 2a17.4 17.4 0 0 1 0 13.6c-.4.9-1 1.5-1.6 2a3.3 3.3 0 0 1-4.2 0 6.3 6.3 0 0 1-1.7-2c-.4-.9-.8-1.9-1-3a17.7 17.7 0 0 1-.4-3.8c0-1.3 0-2.5.3-3.7.3-1.2.7-2.2 1.1-3 .5-1 1-1.6 1.7-2.1.6-.5 1.3-.8 2-.8m0-2.5c-1 0-1.9.3-2.7 1-.8.5-1.6 1.4-2.2 2.4-.6 1.1-1 2.4-1.4 3.9a21.6 21.6 0 0 0 1.4 13.5c.6 1 1.4 2 2.2 2.5a4.6 4.6 0 0 0 5.5 0c.9-.6 1.6-1.4 2.2-2.5.6-1 1-2.4 1.4-3.8a21.6 21.6 0 0 0-1.4-13.6c-.6-1-1.3-1.9-2.2-2.5-.8-.6-1.7-.9-2.7-.9m10.9 13.5h2.6c.8 0 1.5.3 2 1 .4.5.7 1.5.7 2.8 0 1.3-.3 2.3-.8 2.9-.4.6-1 1-1.9 1h-2.6v-7.7zm-1.6 10.2h4c.6 0 1.1-.1 1.7-.4.5-.2 1-.5 1.4-1 .5-.5.8-1.1 1-2a10.2 10.2 0 0 0 0-6.1c-.2-.8-.6-1.5-1-2-.4-.4-.9-.8-1.4-1a4 4 0 0 0-1.5-.3h-2.6v-10.3h-1.6v23zm11 0h2.4l4.4-18.1 4.6 18h2.2v-23H702V327l-4.8-19.3h-1l-4.6 19.3v-19.3H690v23zm23-21.2c.8 0 1.5.3 2.1.8.7.5 1.2 1.2 1.7 2 .4 1 .8 2 1 3a17.3 17.3 0 0 1 .4 3.8 17.3 17.3 0 0 1-.4 3.8 12 12 0 0 1-1 3c-.5.9-1 1.5-1.7 2a3.3 3.3 0 0 1-4.2 0 6.2 6.2 0 0 1-1.6-2 12 12 0 0 1-1.1-3 17.5 17.5 0 0 1-.4-3.8c0-1.3.1-2.5.4-3.7a12 12 0 0 1 1-3c.5-1 1-1.6 1.7-2.1.6-.5 1.3-.8 2.1-.8m0-2.5c-1 0-2 .3-2.7 1-.9.5-1.6 1.4-2.2 2.4-.6 1.1-1.1 2.4-1.4 3.9A21.7 21.7 0 0 0 708 328c.6 1 1.3 2 2.2 2.5a4.6 4.6 0 0 0 5.5 0c.8-.6 1.5-1.4 2.1-2.5.7-1 1.1-2.4 1.5-3.8a21.7 21.7 0 0 0-1.4-13.6c-.7-1-1.4-1.9-2.2-2.5-.9-.6-1.8-.9-2.8-.9m11 13.5h2.6c.8 0 1.4.3 1.9 1 .5.5.7 1.5.7 2.8 0 1.3-.2 2.3-.7 2.9-.5.6-1.1 1-2 1H724v-7.7zm-1.6 10.2h3.9c.6 0 1.2-.1 1.7-.4.6-.2 1-.5 1.5-1 .4-.5.8-1.1 1-2 .3-.8.4-1.8.4-3s-.1-2.3-.4-3c-.3-1-.6-1.6-1-2-.5-.5-1-.9-1.5-1a4 4 0 0 0-1.4-.4h-2.6v-10.3h-1.6v23zm10.3-20l5 8.5a33.6 33.6 0 0 1 1.4 2.7 7.3 7.3 0 0 1 .4 2.9c0 .6 0 1.1-.2 1.6a4.1 4.1 0 0 1-.5 1.2 2.5 2.5 0 0 1-.7.8 1.7 1.7 0 0 1-1 .3c-.6 0-1.2-.3-1.6-1-.5-.7-.7-1.6-.9-2.7l-1.7.3.5 2.5c.3.7.6 1.3 1 1.8.3.5.7.8 1.2 1 .4.3 1 .4 1.5.4s1 0 1.5-.4c.5-.2 1-.6 1.3-1.2.4-.5.6-1.1.9-2a13.3 13.3 0 0 0 .1-5.2 12 12 0 0 0-.6-2 14.8 14.8 0 0 0-.8-1.7l-1-1.6-4-6.7h6.7v-2.6h-8.5v3.1z" fill="#fff"/></g><g xmlns="http://www.w3.org/2000/svg" clip-path="url(#c)" transform="matrix(1.25 0 0 -1.25 -535 525)" filter="url(#b)"><path d="M446.2 283.8a7 7 0 0 0-2.7-2.4 7.8 7.8 0 0 0-3.4-.7c-1.2 0-2.4.2-3.4.6a7.7 7.7 0 0 0-2.7 2c-.7.7-1.3 1.7-1.7 2.8-.4 1-.6 2.3-.6 3.6 0 1.3.2 2.5.6 3.6.4 1.1 1 2 1.7 2.9a7.8 7.8 0 0 0 2.7 1.9 8.5 8.5 0 0 0 6.6 0c1-.4 1.8-1 2.5-2l-1.3-1.1c-.5.8-1.1 1.4-2 1.7a5.7 5.7 0 0 1-2.4.6c-1 0-2-.2-2.8-.6a6.4 6.4 0 0 1-2.2-1.6 7.2 7.2 0 0 1-1.4-2.4 9 9 0 0 1-.5-3c0-1 .2-2 .5-3a7.2 7.2 0 0 1 1.4-2.4 6.4 6.4 0 0 1 2.2-1.6c.8-.4 1.8-.6 2.8-.6a5.7 5.7 0 0 1 2.6.7l1.3.8 1 1.2 1.2-1z" fill="#328f82"/><path d="M440.1 298.2a8 8 0 0 1-3.2-.7 7.4 7.4 0 0 1-2.5-1.7 8.1 8.1 0 0 1-1.6-2.7 9.8 9.8 0 0 1 0-6.8c.4-1 1-2 1.6-2.7a7.1 7.1 0 0 1 2.5-1.7 8 8 0 0 1 6.4 0c.8.4 1.5 1 2.1 1.8l-.3.3a5.7 5.7 0 0 0-.8-.8 7 7 0 0 0-1.3-1 6.4 6.4 0 0 0-1.4-.5 6.4 6.4 0 0 0-1.5-.2c-1.1 0-2.1.3-3 .7a7 7 0 0 0-2.4 1.7 7.8 7.8 0 0 0-1.5 2.6 9.6 9.6 0 0 0-.6 3.2c0 1.1.2 2.2.6 3.2a7.8 7.8 0 0 0 1.5 2.6 7 7 0 0 0 2.3 1.7c1 .4 2 .7 3.1.7 1 0 1.8-.2 2.7-.6a5 5 0 0 0 1.8-1.5l.4.3c-.6.7-1.2 1.2-2 1.5a7.3 7.3 0 0 1-2.9.6m0-18.1c-1.3 0-2.5.2-3.6.7a8.3 8.3 0 0 0-2.9 2c-.8.9-1.4 1.9-1.8 3-.5 1.2-.7 2.5-.7 4 0 1.3.2 2.6.7 3.7.4 1.2 1 2.2 1.8 3a8.4 8.4 0 0 0 2.9 2.1 9 9 0 0 0 7 0c1-.4 2-1.1 2.7-2.2l.4-.4-2.2-2-.3.6a4 4 0 0 1-1.7 1.6 5.2 5.2 0 0 1-2.3.5c-1 0-1.8-.2-2.6-.5a5.9 5.9 0 0 1-2-1.5 6.7 6.7 0 0 1-1.3-2.2 8.4 8.4 0 0 1-.4-2.8c0-1 .1-2 .4-2.8a6.7 6.7 0 0 1 1.3-2.2 6 6 0 0 1 2-1.5 6.4 6.4 0 0 1 3.8-.3 5.1 5.1 0 0 1 2.3 1.1l1 1.1.2.5 2.2-1.7-.3-.4a7.6 7.6 0 0 0-6.6-3.4m17.7 16.5l-3.9-9.5h7.6l-3.7 9.5zm-.8 1.7h1.6l7-17.2h-1.8l-1.8 4.6h-8.7l-1.8-4.6h-1.6l7.1 17.2z" fill="#328f82"/><path d="M454.8 287.7h5.8l-2.8 7.3-3-7.3zm9.4-6h.5l-6.5 16h-.3l4.4-11.1h-9.2l4.5 11.1h-.2l-6.6-16h.3l1.9 4.6h9.4l1.8-4.6zm2.1-1.2h-2.9l-1.8 4.6h-7.9l-1.8-4.6H449l7.7 18.4h2.3l7.3-18.4zm4.6 17.8h2l10-15v15h1.5v-17.2h-2l-10 15v-15H471v17.2z" fill="#328f82"/><path d="M482.7 281.7h1.1v16h-.4v-15h-.8l-.3.2-9.7 14.8h-1.2v-16h.4v15h.9l.2-.2 9.8-14.8zm2.2-1.2h-2.8l-9.1 13.9v-13.9h-2.7V299h2.8l9.2-13.8v13.8h2.6v-18.4zm20.5 3.3a7 7 0 0 0-2.8-2.4 7.8 7.8 0 0 0-3.3-.7c-1.3 0-2.4.2-3.5.6a7.7 7.7 0 0 0-2.6 2c-.8.7-1.3 1.7-1.8 2.8-.4 1-.6 2.3-.6 3.6 0 1.3.2 2.5.6 3.6.5 1.1 1 2 1.8 2.9a7.8 7.8 0 0 0 2.6 1.9c1 .4 2.2.6 3.5.6a7.8 7.8 0 0 0 3-.6c1-.4 1.9-1 2.6-2l-1.2-1.1c-.5.8-1.2 1.4-2 1.7a5.7 5.7 0 0 1-2.4.6c-1 0-2-.2-2.9-.6a6.4 6.4 0 0 1-2.2-1.6 7.1 7.1 0 0 1-1.4-2.4 9 9 0 0 1-.5-3c0-1 .2-2 .5-3a7.1 7.1 0 0 1 1.4-2.4 6.4 6.4 0 0 1 2.2-1.6 6.9 6.9 0 0 1 4.2-.4 5.8 5.8 0 0 1 3.5 2.5l1.3-1z" fill="#328f82"/><path d="M499.3 298.2a8 8 0 0 1-3.2-.7 7.3 7.3 0 0 1-2.5-1.7 8.2 8.2 0 0 1-1.6-2.7 9.7 9.7 0 0 1 0-6.8c.3-1 .9-2 1.6-2.7a7.1 7.1 0 0 1 2.5-1.7 8 8 0 0 1 6.3 0c.8.4 1.5 1 2.2 1.8l-.4.3a5.6 5.6 0 0 0-.8-.8 6.9 6.9 0 0 0-1.3-1 6.4 6.4 0 0 0-1.4-.5 6.4 6.4 0 0 0-1.4-.2c-1.2 0-2.2.3-3.1.7a7 7 0 0 0-2.4 1.7 7.8 7.8 0 0 0-1.5 2.6 9.6 9.6 0 0 0-.5 3.2 9.6 9.6 0 0 0 .5 3.2 7.8 7.8 0 0 0 1.5 2.6 7 7 0 0 0 2.4 1.7c.9.4 2 .7 3 .7s1.9-.2 2.7-.6a5 5 0 0 0 1.9-1.5l.3.3c-.5.7-1.2 1.2-2 1.5a7.4 7.4 0 0 1-2.8.6m0-18.1c-1.3 0-2.6.2-3.7.7a8.3 8.3 0 0 0-2.8 2c-.8.9-1.4 1.9-1.9 3-.4 1.2-.6 2.5-.6 4a9.3 9.3 0 0 0 2.5 6.9 8.4 8.4 0 0 0 2.8 1.9 9 9 0 0 0 7 0c1-.4 2-1.1 2.8-2.2l.3-.4-2.2-2-.3.6a4 4 0 0 1-1.7 1.6 5.2 5.2 0 0 1-2.2.5c-1 0-1.9-.2-2.7-.5a5.8 5.8 0 0 1-2-1.5 6.6 6.6 0 0 1-1.2-2.2 8.4 8.4 0 0 1-.5-2.8c0-1 .2-2 .5-2.8a6.6 6.6 0 0 1 1.2-2.2 5.9 5.9 0 0 1 2-1.5c.8-.3 1.7-.5 2.7-.5a5.1 5.1 0 0 1 2.3.6l1.1.7 1 1.1.3.5 2.1-1.7-.3-.4a7.6 7.6 0 0 0-6.5-3.4m23.5 7.6c0-1-.1-1.8-.3-2.7a6.3 6.3 0 0 0-1-2.2 5 5 0 0 0-1.9-1.5c-.7-.4-1.7-.6-2.8-.6-1 0-2 .2-2.8.6-.7.3-1.4.9-1.8 1.5a6.2 6.2 0 0 0-1 2.2l-.3 2.7v10.6h1.5v-10.2c0-.6 0-1.3.2-2a6 6 0 0 1 .6-1.9 4 4 0 0 1 1.3-1.5 4 4 0 0 1 2.3-.6c1 0 1.8.2 2.3.6a4 4 0 0 1 1.4 1.5c.3.6.5 1.2.6 2l.2 2v10.1h1.5v-10.6z" fill="#328f82"/><path d="M511.4 297.7v-10c0-.9.1-1.7.3-2.5.2-.8.5-1.5 1-2a4.6 4.6 0 0 1 1.6-1.4c.6-.4 1.5-.5 2.5-.5s2 .1 2.6.5c.7.3 1.2.8 1.6 1.4.5.5.8 1.2 1 2l.2 2.5v10h-.4v-9.6l-.1-2a6.8 6.8 0 0 0-.7-2.2 4.6 4.6 0 0 0-1.6-1.7c-.6-.4-1.5-.6-2.6-.6-1 0-2 .2-2.6.6a4.6 4.6 0 0 0-1.5 1.7 6.8 6.8 0 0 0-.7 2.1 13.6 13.6 0 0 0-.2 2.1v9.6h-.4zm5.4-17.6c-1.2 0-2.2.2-3 .6a5.7 5.7 0 0 0-2 1.8 6.8 6.8 0 0 0-1.2 2.4 12 12 0 0 0-.3 2.8v11.2h2.6V288l.2-1.9a5.6 5.6 0 0 1 .6-1.7c.3-.5.6-1 1.1-1.3.5-.3 1.2-.5 2-.5.9 0 1.5.2 2 .5s1 .8 1.2 1.3c.3.5.5 1.1.6 1.7a12.4 12.4 0 0 1 .1 2v10.7h2.7v-11.2c0-1-.2-2-.4-2.8a6.7 6.7 0 0 0-1-2.4 5.7 5.7 0 0 0-2.1-1.8c-.9-.4-1.9-.6-3-.6m13 18.2h2l10-15v15h1.6v-17.2h-2l-10 15v-15H530v17.2z" fill="#328f82"/><path d="M541.8 281.7h1.1v16h-.4v-15h-.8l-.2.2-9.8 14.8h-1.2v-16h.5v15h.8l.2-.2 9.8-14.8zm2.3-1.2h-2.9l-9.1 13.9v-13.9h-2.7V299h2.8l9.2-13.8v13.8h2.7v-18.4zm7.3 2.8h1.6l-1.7-5.5h-1.4l1.5 5.5z" fill="#328f82"/><path d="M550.6 278.3h.3l1.4 4.4h-.5l-1.2-4.4zm1-1.1h-2.4l1.8 6.7h2.8l-2.1-6.7zm17.3 21.1h2.3l6-14.4 5.9 14.4h2.2v-17.2h-1.6v15.2l-6.3-15.2h-.6l-6.4 15.2V281h-1.5v17.2z" fill="#328f82"/><path d="M584.3 281.7h.4v16h-1.2l-6.4-15.3-6.3 15.3h-1.4v-16h.4v15.1h1l.1-.3 6.2-14.7 6.2 15h1v-15.1zm1.5-1.2h-2.6v13l-5.4-13h-1.4l-5.5 13v-13h-2.6V299h3.2l5.6-13.5 5.6 13.5h3.1v-18.4zm6.8 17.8h10v-1.5h-8.5v-6h8v-1.5h-8v-6.7h8.9V281h-10.4v17.2z" fill="#328f82"/><path d="M593.2 281.7h9.2v.3h-8.8v7.9h8v.2h-8v7.3h8.4v.3h-8.8v-16zm10.3-1.2H592V299h11.2v-2.6h-8.5v-5h8v-2.6h-8V283h8.8v-2.6zm9.7 9.6l-5.6 8.2h1.8l4.8-7 4.6 7h1.8l-5.5-8.2 6-9h-1.8L614 289l-5.2-7.8h-1.8l6.1 9z" fill="#328f82"/><path d="M619.6 281.7h.5l-5.7 8.4 5.2 7.6h-.5l-5-7.4-5 7.4h-.4l5.2-7.6-5.7-8.4h.4l5.5 8.2 5.5-8.2zm2.7-1.2H619L614 288l-4.9-7.4H606l6.6 9.6-6 8.8h3.1l4.5-6.6 4.3 6.6h3.2l-6-8.8 6.6-9.6zm4.2 17.8h1.5v-17.2h-1.5v17.2z" fill="#328f82"/><path d="M627 281.7h.4v16h-.4v-16zm1.5-1.2H626V299h2.6v-18.4zm20.5 3.3a7 7 0 0 0-2.8-2.4 7.8 7.8 0 0 0-3.3-.7c-1.3 0-2.4.2-3.5.6a7.7 7.7 0 0 0-2.6 2c-.8.7-1.4 1.7-1.8 2.8-.4 1-.6 2.3-.6 3.6 0 1.3.2 2.5.6 3.6.4 1.1 1 2 1.8 2.9a7.9 7.9 0 0 0 2.6 1.9c1 .4 2.2.6 3.5.6a7.8 7.8 0 0 0 3-.6c1-.4 1.9-1 2.6-2l-1.2-1.1c-.5.8-1.2 1.4-2 1.7a5.8 5.8 0 0 1-2.4.6c-1.1 0-2-.2-3-.6a6.4 6.4 0 0 1-2.1-1.6c-.6-.7-1-1.5-1.4-2.4a9 9 0 0 1-.5-3c0-1 .2-2 .5-3 .3-.9.8-1.7 1.4-2.4a6.4 6.4 0 0 1 2.2-1.6c.8-.4 1.8-.6 2.9-.6a5.7 5.7 0 0 1 2.6.7l1.2.8c.4.3.7.7 1 1.2l1.3-1z" fill="#328f82"/><path d="M642.9 298.2a8 8 0 0 1-3.2-.7 7.3 7.3 0 0 1-2.5-1.7 8.1 8.1 0 0 1-1.6-2.7c-.4-1-.6-2.2-.6-3.4 0-1.2.2-2.4.6-3.4.3-1 .9-2 1.6-2.7a7 7 0 0 1 2.4-1.7 8 8 0 0 1 6.4 0c.8.4 1.5 1 2.2 1.8l-.4.3a5.8 5.8 0 0 0-.8-.8 7.2 7.2 0 0 0-1.3-1 6.4 6.4 0 0 0-1.4-.5 6.4 6.4 0 0 0-1.4-.2c-1.2 0-2.2.3-3.1.7a7 7 0 0 0-2.4 1.7 7.8 7.8 0 0 0-1.5 2.6 9.6 9.6 0 0 0-.5 3.2c0 1.1.1 2.2.5 3.2.3 1 .8 1.9 1.5 2.6a7 7 0 0 0 2.4 1.7c.9.4 2 .7 3 .7s1.9-.2 2.7-.6a5 5 0 0 0 1.9-1.5l.3.3c-.6.7-1.2 1.2-2 1.5a7.3 7.3 0 0 1-2.8.6m0-18.1c-1.3 0-2.6.2-3.7.7a8.3 8.3 0 0 0-2.8 2 9.3 9.3 0 0 0-1.9 3c-.4 1.2-.7 2.5-.7 4 0 1.3.3 2.6.7 3.7a9.3 9.3 0 0 0 1.9 3 8.5 8.5 0 0 0 2.8 2.1 9 9 0 0 0 7 0c1-.4 2-1.1 2.8-2.2l.3-.4-2.2-2-.3.6a4 4 0 0 1-1.7 1.6 5.2 5.2 0 0 1-2.2.5c-1 0-2-.2-2.7-.5a5.9 5.9 0 0 1-2-1.5 6.6 6.6 0 0 1-1.3-2.2 8.3 8.3 0 0 1-.4-2.8c0-1 .1-2 .4-2.8a6.6 6.6 0 0 1 1.3-2.2 6 6 0 0 1 2-1.5 6.4 6.4 0 0 1 3.8-.3c.4 0 .8.2 1.2.4l1.1.7 1 1.1.3.5 2.1-1.7-.3-.4a7.6 7.6 0 0 0-6.5-3.4m12.3 9.6c0-1 .2-2 .5-3a7.1 7.1 0 0 1 1.4-2.4 6.4 6.4 0 0 1 2.2-1.6c.8-.4 1.8-.6 2.9-.6 1 0 2 .2 2.8.6a6.4 6.4 0 0 1 2.2 1.6 7.2 7.2 0 0 1 1.4 2.4c.3 1 .5 2 .5 3a9 9 0 0 1-.5 3 7.2 7.2 0 0 1-1.4 2.4 6.5 6.5 0 0 1-2.2 1.6 7 7 0 0 1-2.8.6c-1.1 0-2-.2-3-.6a6.4 6.4 0 0 1-2.1-1.6 7.1 7.1 0 0 1-1.4-2.4 9 9 0 0 1-.5-3m-1.5 0c0 1.3.2 2.5.6 3.6.4 1.1 1 2 1.8 2.9a7.8 7.8 0 0 0 2.6 1.9c1 .4 2.2.6 3.5.6 1.2 0 2.3-.2 3.4-.6a7.9 7.9 0 0 0 2.7-2c.7-.7 1.3-1.7 1.7-2.8.4-1 .6-2.3.6-3.6 0-1.3-.2-2.5-.6-3.6-.4-1.1-1-2-1.7-2.9a7.7 7.7 0 0 0-2.7-1.9c-1-.4-2.2-.6-3.4-.6-1.3 0-2.4.2-3.5.6a7.7 7.7 0 0 0-2.7 2c-.7.7-1.3 1.7-1.7 2.8-.4 1-.6 2.3-.6 3.6" fill="#328f82"/><path d="M662.2 296.7c-1 0-2-.2-2.7-.5a6 6 0 0 1-2-1.5 6.6 6.6 0 0 1-1.3-2.2 8.4 8.4 0 0 1-.4-2.8c0-1 .1-2 .4-2.8a6.6 6.6 0 0 1 1.3-2.2 6 6 0 0 1 2-1.5c.8-.3 1.7-.5 2.7-.5 1 0 1.8.2 2.6.5a6 6 0 0 1 2 1.5c.6.6 1 1.4 1.3 2.2.3.9.4 1.8.4 2.8a8.4 8.4 0 0 1-.4 2.8 6.6 6.6 0 0 1-1.3 2.2 5.9 5.9 0 0 1-2 1.5c-.8.3-1.7.5-2.6.5m0-15.2c-1.2 0-2.2.3-3.1.7a7 7 0 0 0-2.4 1.7 7.8 7.8 0 0 0-1.5 2.6 9.6 9.6 0 0 0-.5 3.2c0 1.1.1 2.2.5 3.2a7.9 7.9 0 0 0 1.5 2.6 7 7 0 0 0 2.4 1.7 7.5 7.5 0 0 0 6.2 0 7 7 0 0 0 2.3-1.7 8 8 0 0 0 1.5-2.6 9.6 9.6 0 0 0 .6-3.2 9.6 9.6 0 0 0-.6-3.2 7.9 7.9 0 0 0-1.5-2.6 7.1 7.1 0 0 0-2.3-1.7c-1-.4-2-.7-3.1-.7m0 16.7a8 8 0 0 1-3.3-.7 7.3 7.3 0 0 1-2.4-1.7 8.2 8.2 0 0 1-1.7-2.7c-.4-1-.5-2.2-.5-3.4a8.1 8.1 0 0 1 2.2-6 7.1 7.1 0 0 1 2.4-1.8c1-.4 2-.6 3.3-.6a8 8 0 0 1 3.2.6 7.2 7.2 0 0 1 2.5 1.7c.6.8 1.2 1.7 1.6 2.7.4 1 .6 2.2.6 3.4 0 1.2-.2 2.4-.6 3.4a8.2 8.2 0 0 1-1.6 2.7 7.4 7.4 0 0 1-2.5 1.7 8 8 0 0 1-3.2.7m0-18.1c-1.4 0-2.6.2-3.7.7a8.3 8.3 0 0 0-2.9 2c-.7.9-1.4 1.9-1.8 3-.4 1.2-.7 2.5-.7 4 0 1.3.3 2.6.7 3.7.4 1.2 1 2.2 1.8 3a8.4 8.4 0 0 0 2.9 2 9 9 0 0 0 3.7.8 9 9 0 0 0 3.6-.7 8.3 8.3 0 0 0 2.9-2c.8-.9 1.4-1.9 1.8-3 .5-1.2.7-2.5.7-3.9s-.2-2.7-.7-3.8c-.4-1.2-1-2.2-1.8-3a8.3 8.3 0 0 0-2.9-2.1 9.2 9.2 0 0 0-3.6-.7m22.6 2.7l6.1 6.8a18.3 18.3 0 0 1 1.6 2l.6 1.2.2 1.3a3 3 0 0 1-1 2.3c-.6.6-1.4.9-2.3.9-.8 0-1.6-.3-2.1-.8-.6-.5-1-1.2-1.2-2l-1.6.1c.3 1.4.8 2.4 1.7 3 1 .7 2 1 3.3 1l1.8-.3a4.6 4.6 0 0 0 1.5-.9 4 4 0 0 0 1-1.3c.3-.6.4-1.2.4-1.9s-.1-1.3-.3-1.8a7.8 7.8 0 0 0-.8-1.7 10 10 0 0 0-1-1.4l-1.3-1.4-5.1-5.5h8.6v-1.3h-10.1v1.7z" fill="#328f82"/><path d="M685.3 282.6v-.4l5.7 6.1 1.2 1.4c.4.4.8.9 1 1.4.4.4.6 1 .8 1.4l.2 1.7c0 .6 0 1.1-.3 1.6-.2.5-.5.9-.9 1.2a4.3 4.3 0 0 1-1.3.7 4.8 4.8 0 0 1-1.6.3c-1.2 0-2.2-.3-3-.9-.6-.4-1-1-1.3-2h.5a4 4 0 0 0 1.2 1.8c.7.7 1.5 1 2.5 1s2-.4 2.7-1c.7-.7 1.1-1.7 1.1-2.8 0-.6 0-1-.2-1.5a6.4 6.4 0 0 0-.6-1.3 9.7 9.7 0 0 0-.8-1.1 21.4 21.4 0 0 0-.9-1l-6-6.6zm0-1h9v.2h-9v-.1zm10.2-1h-11.3v2.4l6.3 7a21 21 0 0 1 1.5 2l.5 1 .2 1c0 1-.2 1.5-.7 2-.5.5-1.2.7-2 .7-.7 0-1.3-.2-1.8-.6a3 3 0 0 1-1-1.8v-.5l-2.8.3.1.7c.3 1.4 1 2.5 2 3.3 1 .7 2.2 1 3.6 1a6 6 0 0 0 2-.3 5.3 5.3 0 0 0 1.6-1 4.6 4.6 0 0 0 1.2-1.5 5 5 0 0 0 .4-2.1c0-.7 0-1.4-.3-2a8.1 8.1 0 0 0-.8-1.8 11 11 0 0 0-1.1-1.5 198.3 198.3 0 0 0-1.3-1.4l-4.2-4.5h7.9v-2.5zm5.5 9.1a29.2 29.2 0 0 1 .2-3.1l.4-1.7a5.4 5.4 0 0 1 .7-1.4 3.4 3.4 0 0 1 1-1c.5-.2 1-.4 1.6-.4.5 0 1 .2 1.5.4l1 1 .7 1.4a11 11 0 0 1 .6 3.3 29.3 29.3 0 0 1 0 3 16.4 16.4 0 0 1-.2 1.7 11 11 0 0 1-.4 1.6 5.4 5.4 0 0 1-.7 1.4c-.3.4-.6.8-1 1-.5.3-1 .4-1.5.4-.6 0-1.1-.1-1.5-.4a3.4 3.4 0 0 1-1-1 5.4 5.4 0 0 1-.8-1.4 10.9 10.9 0 0 1-.4-1.6 16.7 16.7 0 0 1-.2-1.7 29.6 29.6 0 0 1 0-1.5m-1.5 0a25.1 25.1 0 0 0 .3 4l.6 1.9 1 1.5a4.4 4.4 0 0 0 3.5 1.5c.7 0 1.4-.1 2-.4a4.4 4.4 0 0 0 1.4-1l1-1.6a14.6 14.6 0 0 0 1-5.8l-.1-2a14.4 14.4 0 0 0-.3-2 10.2 10.2 0 0 0-.6-2 5.8 5.8 0 0 0-1-1.5 4.5 4.5 0 0 0-1.4-1 4.6 4.6 0 0 0-4 0 4.4 4.4 0 0 0-1.5 1 5.7 5.7 0 0 0-1 1.6 10.6 10.6 0 0 0-.6 1.8 14.1 14.1 0 0 0-.3 2 24.4 24.4 0 0 0 0 2" fill="#328f82"/><path d="M704.9 296.7c-.5 0-.9-.1-1.2-.3a2.8 2.8 0 0 1-1-.8 4.9 4.9 0 0 1-.5-1.3 10.2 10.2 0 0 1-.4-1.5 14.7 14.7 0 0 1-.2-1.6 27.7 27.7 0 0 1 0-1.5 27.4 27.4 0 0 1 .2-3c0-.6.2-1 .3-1.6l.7-1.3.8-.8c.4-.2.8-.3 1.3-.3a2.4 2.4 0 0 1 2 1.1l.7 1.3.4 1.6a15 15 0 0 1 .2 3v1.5a15.5 15.5 0 0 1-.2 1.6l-.4 1.5a5 5 0 0 1-.6 1.3 2.8 2.8 0 0 1-1 .8c-.3.2-.7.3-1.1.3m0-15.1c-.7 0-1.3.1-1.8.4a4 4 0 0 0-1.2 1.2 6.2 6.2 0 0 0-.8 1.5 11.3 11.3 0 0 0-.4 1.8 16.6 16.6 0 0 0-.2 1.7 26 26 0 0 0 0 3 16.7 16.7 0 0 0 .6 3.5c.2.6.4 1.1.8 1.6.3.4.7.8 1.2 1.1.5.3 1.1.5 1.8.5.6 0 1.2-.2 1.7-.5s1-.7 1.3-1.1c.3-.5.6-1 .7-1.6a11 11 0 0 0 .7-3.5 27.1 27.1 0 0 0 0-3 16.3 16.3 0 0 0-.2-1.7 11 11 0 0 0-.5-1.8 6.3 6.3 0 0 0-.7-1.5 4 4 0 0 0-1.3-1.2c-.5-.3-1-.4-1.7-.4m0 16.4c-.7 0-1.3-.1-1.8-.3a4 4 0 0 1-1.3-1 5.2 5.2 0 0 1-.8-1.4 10.4 10.4 0 0 1-.6-1.8 13.8 13.8 0 0 1-.3-1.9 24.8 24.8 0 0 1 0-1.9 25 25 0 0 1 .3-3.8l.6-1.8a5.1 5.1 0 0 1 .8-1.4 3.8 3.8 0 0 1 1.3-1c.5-.2 1-.3 1.8-.3.7 0 1.3.1 1.7.3.5.3 1 .6 1.3 1 .4.4.7.9.9 1.4a10.2 10.2 0 0 1 .8 3.7 24.4 24.4 0 0 1 0 3.8 14.1 14.1 0 0 1-.2 2 10.3 10.3 0 0 1-.6 1.7c-.2.5-.5 1-.9 1.4a4 4 0 0 1-1.3 1c-.4.2-1 .3-1.7.3m0-17.8c-.9 0-1.6.2-2.3.5a5 5 0 0 0-1.6 1.2 6.3 6.3 0 0 0-1 1.7 10.8 10.8 0 0 0-.7 2 15 15 0 0 0-.3 2 25 25 0 0 0-.1 2.1 25.1 25.1 0 0 0 .4 4.1c.1.7.4 1.4.6 2l1.1 1.7c.5.5 1 1 1.6 1.2.7.3 1.4.5 2.3.5.8 0 1.6-.2 2.2-.5a5 5 0 0 0 1.6-1.2 6.4 6.4 0 0 0 1.1-1.7 11.6 11.6 0 0 0 1-4 24.7 24.7 0 0 0 0-4.1 14.8 14.8 0 0 0-.4-2.1 11.3 11.3 0 0 0-.6-2 6.3 6.3 0 0 0-1-1.7 5 5 0 0 0-1.7-1.2c-.6-.3-1.4-.5-2.2-.5m15 16l-3-2.5-.8 1.1 4 3.5h1.2v-17.2H720v15.2z" fill="#328f82"/><path d="M720.5 281.7h.3v16h-.5l-3.4-3 .1-.2 2.7 2.3h.8v-15.1zm1.4-1.2h-2.5V295l-2.5-2.1-1.6 2 4.6 4h2v-18.4zm13 9.7a3.5 3.5 0 0 1-1.5-.3 3.8 3.8 0 0 1-1.2-.9 4 4 0 0 1-.8-1.3 4 4 0 0 1-.3-1.5c0-.6 0-1.2.3-1.7.2-.5.4-.9.8-1.3a3.5 3.5 0 0 1 1.2-.8 4.1 4.1 0 0 1 3.1 0 3.5 3.5 0 0 1 2 2.1c.2.5.3 1 .3 1.7a4.1 4.1 0 0 1-1.2 2.8 3.7 3.7 0 0 1-1.2.9 3.5 3.5 0 0 1-1.5.3m-2 .5c.2.3.6.5 1 .6l1.4.2a4.9 4.9 0 0 0 2-.5 5 5 0 0 0 1.6-1 5 5 0 0 0 1-1.8 5.7 5.7 0 0 0 .4-2c0-.8-.1-1.5-.4-2.2a5 5 0 0 0-1.1-1.7 5.1 5.1 0 0 0-1.7-1 5.7 5.7 0 0 0-2.2-.5c-.7 0-1.4.2-2.1.4a5.1 5.1 0 0 0-1.7 1.1 5 5 0 0 0-1.1 1.7 5.7 5.7 0 0 0-.4 2.2 5.8 5.8 0 0 0 .5 2.4 17.2 17.2 0 0 0 1 2l4.4 7.7h1.8l-4.5-7.6z" fill="#328f82"/><path d="M735 289.6a3 3 0 0 1-1.3-.3 3.3 3.3 0 0 1-1-.7 3.6 3.6 0 0 1-1-2.4c0-.6 0-1 .2-1.5l.7-1a3 3 0 0 1 1-.7c.8-.4 1.9-.4 2.7 0 .4.1.7.4 1 .7l.7 1 .2 1.5a3.6 3.6 0 0 1-1 2.4c-.2.3-.6.6-1 .7a3 3 0 0 1-1.3.3m1 8.1l-4.3-7.4a21.7 21.7 0 0 1-.5-1 14.3 14.3 0 0 1-.5-1 6 6 0 0 1-.3-1 5 5 0 0 1-.2-1.1c0-.7.1-1.4.4-2 .2-.5.6-1 1-1.5a4.6 4.6 0 0 1 1.5-1c1.2-.4 2.7-.4 3.9 0a4.7 4.7 0 0 1 1.5 1l1 1.5c.2.6.3 1.3.3 2 0 .6 0 1.3-.3 1.8a4.4 4.4 0 0 1-2.3 2.5c-.9.4-1.8.5-3 .2a1.2 1.2 0 0 1-.2 0 4.3 4.3 0 0 0 2.7-.3 4.4 4.4 0 0 0 1.4-1 4.7 4.7 0 0 0 1.3-3.2c0-.7 0-1.3-.3-1.9a4.3 4.3 0 0 0-.9-1.5 4 4 0 0 0-1.4-1c-1-.4-2.5-.4-3.5 0a4 4 0 0 0-1.4 1c-.4.4-.7 1-1 1.5a5.2 5.2 0 0 0-.3 1.9 4.7 4.7 0 0 0 2.2 4h-.8l.4.8 4 6.7h-.5zm-1-17.5c-.8 0-1.6.2-2.3.5a5.7 5.7 0 0 0-1.9 1.2 5.6 5.6 0 0 0-1.2 1.9 6.2 6.2 0 0 0-.5 2.4 6.5 6.5 0 0 0 .6 2.6 12 12 0 0 0 1 2l4.6 8h3l-4-6.9c1.3.3 2.3.1 3.3-.3a5.6 5.6 0 0 0 1.8-1.3 5.7 5.7 0 0 0 1.2-1.8 6.4 6.4 0 0 0 .4-2.3c0-.9-.2-1.7-.5-2.4a5.6 5.6 0 0 0-1.2-1.9 5.8 5.8 0 0 0-2-1.2 6.3 6.3 0 0 0-2.3-.5" fill="#328f82"/><path d="M431.1 342.2h311m-311-73h311" fill="none" stroke="#fff" stroke-width="2" stroke-miterlimit="10"/><path d="M430.2 366.3c0 10 6.2 15.2 14 15.2 2.6 0 6.2-.8 8.1-2.1l-.6-3c-2 1.2-4.8 2.1-7.2 2.1-6 0-10.5-4-10.5-12.2 0-8 5-11.5 10.8-11.5 2.5 0 5.1.6 7.5 1.8l.4-3c-2.5-1.3-5.4-2-8.3-2-7.2 0-14.2 4.4-14.2 14.7m56 .5c0 7.2-3.3 11.8-9.6 11.8-6.2 0-9.4-5-9.4-11.9 0-7.1 3.2-12.1 9.4-12.1s9.6 4.5 9.6 12.2m-22.7 0c0 8 4.2 14.7 13.2 14.7s13.3-6.8 13.3-14.7c0-8.5-4.4-15.2-13.2-15.2-9 0-13.3 6.8-13.3 15.1m61-15a490.3 490.3 0 0 1-18.2 23.6h-.2V352h-3.4v29.3h3a447 447 0 0 0 17.2-22h.1v22h3.5V352l-2-.4zm15.7 29.5h14.5v-2.9h-11v-10.2h8.9l-.4-2.9h-8.5V352h-3.5v29.3zm26.5 0h14.5v-2.9h-11v-10.1h8.5l-.4-2.9h-8V355h11.2v-3h-14.8v29.3zm31-14h2.8c4.2 0 6.8 1.5 6.8 5.8 0 3.8-2.2 5.3-6.3 5.3h-3.3v-11.2zm16.7-15.3l-2-.3c-1.5 0-2.4.4-3.2 1.4a71.1 71.1 0 0 0-6.7 11.3h-4.8v-12.4h-3.5v29.3h7.5c6 0 9.2-2.7 9.2-8.1 0-3.8-1.4-6.2-5.1-7.8 1.1-2.1 3.2-6.2 5.8-9.6.9-1.2 1.5-1.4 2.4-1.4h.4V352zm11.5 29.3h14.5v-2.9h-11v-10.1h8.5l-.4-2.9h-8V355h11.1v-3H626v29.3zm49.3-29.6a490.3 490.3 0 0 1-18.2 23.7h-.2V352h-3.4v29.3h3a447 447 0 0 0 17.1-22h.2v22h3.5V352l-2-.4zm14.5 14.7c0 10 6.2 15.2 14 15.2 2.7 0 6.2-.8 8.1-2.1l-.6-3c-1.9 1.2-4.8 2.1-7.2 2.1-6 0-10.5-4-10.5-12.2 0-8 5-11.5 10.8-11.5 2.6 0 5.2.6 7.5 1.8l.4-3c-2.5-1.3-5.4-2-8.3-2-7.2 0-14.2 4.4-14.2 14.7m35 15h14.5v-3h-11v-10.1h8.5l-.4-2.9h-8V355h11.2v-3h-14.7v29.3zm-294 18.3v16.5h3.3v-16.6c0-5.7 3.6-8.5 7.4-8.5 3.7 0 7.3 2.8 7.3 8.5v16.6h3.2v-16.7c0-7.6-5-11.2-10.5-11.2-5.6 0-10.6 3.6-10.6 11.4m45.7-11.4a461.5 461.5 0 0 1-16.8 22.3h-.2v-22h-3.2V416h2.7c3.7-4.4 11.9-14.9 16-20.7h.1V416h3.2v-27.6l-1.8-.3z" fill="#fff"/><path d="M497.6 393.4c3 0 4.5 1.7 4.5 4 0 2.4-1.8 3.6-4.8 3.6h-2.8v-7.6h3zm-1.1 11.8c2.5 0 4.1 1.6 4.1 3.8 0 2.2-1.2 3.3-3.6 3.3h-2.5v-7h2zm-9 11.6h10.7c5 0 9.7-1.2 9.7-7 0-3-1.7-5-4.2-5.9v-.3c3-.8 5.6-2.6 5.6-6.9 0-4.5-3-7.9-10.1-7.9h-11.7v28zm24.3 0h7v-28h-7v28zm30.4-13.9c0 6.3-2.3 9.2-6.6 9.2-4.4 0-6.6-3.2-6.6-9.3 0-5.8 2.2-9.2 6.6-9.2 4.3 0 6.6 3.2 6.6 9.3m-20.5 0c0 8.8 4.6 14.4 13.9 14.4 9.2 0 14-5.6 14-14.3 0-9.4-5.3-14.6-14-14.6s-14 5.3-14 14.4m37.8-8.7h3.5c4.9 0 7.2 3.4 7.2 8.8 0 6.3-2.8 8.6-7.4 8.6h-3.3V394zm-7 22.7h11.2c9.5 0 14-5 14-14 0-9.1-5-14-13.7-14h-11.5v28zm28.1 0h7v-28h-7v28zm19.1-28c-1.8 4.2-7.7 20.2-10 28h7.3a481 481 0 0 1 6.3-19.8h.2c2.6 7.1 5 15.4 6.3 19.8h7.4c-2.2-7.1-8.6-24.2-10.3-28h-7.2zm19.4 28h16.8v-5.3H626v-6.2h7.3l-.7-4.7h-6.6v-6.4h9.8v-5.4H619v28zm26.8-12.7h1.8c2.8 0 4.5 1.1 4.5 3.9 0 2.6-1.5 3.5-4.3 3.5h-2v-7.4zm16-15.3c-.8-.2-2.3-.4-3.3-.4-1.9 0-3.2.3-4.5 1.7a58.2 58.2 0 0 0-5.6 8.8h-2.6v-10.1h-7v28h10.1c6.7 0 10.3-2.8 10.3-8.4 0-3.8-1.4-6-4.3-7.6.9-1.6 2.4-4 4-6a3 3 0 0 1 2.5-1.2h.5v-4.8zm.9 2l1 5.5c2.1-1.3 5.4-2.4 8.3-2.4 2.5 0 4 .8 4 2.6 0 2.4-3.9 3.2-7.5 5.2-3 1.6-5.4 3.4-5.4 7.5 0 5.4 4 8 10.2 8a22 22 0 0 0 8.5-1.8l-1.2-5.2c-1.8.8-4.6 1.5-6.8 1.5-2.3 0-3.6-.7-3.6-2.3 0-2.4 4.8-3.2 8.5-5.5 2.4-1.5 4.1-3.3 4.1-6.9 0-6.4-4.9-8.6-10.6-8.6-3.7 0-7.2 1-9.5 2.4m23.2 26h7v-28h-7v28zm18-5.3h-8.5v5.3h24.1v-5.3H711v-22.7h-7v22.7zm25.2-10.9a220 220 0 0 1-6 9.2c-1 1.3-1.6 1.7-2.7 1.7v5.3l2.8.2c2.3 0 3.9-.7 5.4-3.3l4-6.6h.1c1.4 2.2 3 5.4 5.2 9.7h7.6c-2.9-5.4-7.4-13-9.4-16.1v-11.9h-7v11.8z" fill="#3ca79b"/><path d="M721.3 411.5h-4.5v5.3h4.5v-5.3z" fill="#3ca79b"/></g><text xmlns="http://www.w3.org/2000/svg" style="-inkscape-font-specification:Arial-BoldMT" transform="matrix(1.25 0 0 1.25 4.6 215.3)" font-weight="700" font-size="12.5" font-family="Arial" fill="#fff" filter="url(#b)"><tspan y="0" x="0 10.437407 19.483995 22.967306 32.013893 40.371338 48.027107 57.073696 65.431137 74.477722 84.915131 88.398445 97.44503 107.19329 110.67661 119.7232 123.2065 132.95477 142.00136 145.48466 153.84212 162.19955 171.24614 179.60359 183.0869 190.74266 198.87332 202.35663 210.01241 219.76067 228.80725 232.29056 244.11879 252.47623 260.13199 267.78778 271.96024 281.00681 289.36426 292.84756 301.89417">MAINSTREAMING BIODIVERSITY FOR WELL-BEING</tspan></text></svg>