<svg xmlns="http://www.w3.org/2000/svg" shape-rendering="geometricPrecision" text-rendering="optimizeSpeed" viewBox="0 0 400 220" height="220" width="400"><defs><clipPath id="a"><path d="M0 612h792V0H0v612z"/></clipPath><clipPath id="b"><path d="M0 612h792V0H0v612z"/></clipPath></defs><filter id="dropshadow" height="130%">
  <feGaussianBlur in="SourceAlpha" stdDeviation="2"/> <!-- stdDeviation is how much to blur -->
  <feOffset dx="1" dy="-1" result="offsetblur"/> <!-- how much to offset -->
  <feMerge>
    <feMergeNode/> <!-- this contains the offset blurred image -->
    <feMergeNode in="SourceGraphic"/> <!-- this contains the element that the filter is applied to -->
  </feMerge>
</filter><g xmlns="http://www.w3.org/2000/svg" style="filter:url(#dropshadow)" clip-path="url(#a)" transform="matrix(1.25 0 0 -1.25 -535 525)"><path d="M447.798 314.804a4.77 4.77 0 0 0-1.709-1.572c-.683-.37-1.489-.556-2.396-.556a5.23 5.23 0 0 0-2.228.48 5.541 5.541 0 0 0-1.814 1.357 6.698 6.698 0 0 0-1.24 2.1c-.302.81-.453 1.72-.453 2.71 0 .969.151 1.872.456 2.692a6.444 6.444 0 0 0 1.25 2.108 5.632 5.632 0 0 0 1.857 1.363 5.663 5.663 0 0 0 2.333.48c.842 0 1.583-.137 2.205-.417a4.2 4.2 0 0 0 1.56-1.188l.495-.598 5.107 4.17-.482.603a8.742 8.742 0 0 1-1.86 1.755c-.682.467-1.398.847-2.137 1.127-.728.277-1.478.485-2.233.613-.744.128-1.474.19-2.164.19-1.886 0-3.657-.301-5.256-.897-1.614-.598-3.03-1.47-4.209-2.591-1.183-1.124-2.113-2.503-2.772-4.098-.655-1.585-.99-3.374-.99-5.312 0-1.941.335-3.73.99-5.315.66-1.596 1.59-2.97 2.772-4.095 1.18-1.125 2.595-1.993 4.21-2.596 1.598-.591 3.37-.895 5.255-.895a12.3 12.3 0 0 1 4.935 1.04 9.65 9.65 0 0 1 4.036 3.293l.446.623-5.506 4.11-.458-.684z" fill="#328f82"/><path d="M466.66 312.675c-.979 0-1.869.166-2.646.495a5.781 5.781 0 0 0-2 1.362 6.04 6.04 0 0 0-1.286 2.081c-.302.81-.456 1.72-.456 2.71 0 .968.154 1.871.457 2.691.3.811.73 1.513 1.284 2.094a5.835 5.835 0 0 0 2.001 1.367c.78.33 1.67.492 2.646.492.975 0 1.864-.163 2.646-.492a5.86 5.86 0 0 0 2-1.367 6.03 6.03 0 0 0 1.283-2.094c.302-.82.454-1.726.454-2.692 0-.989-.152-1.9-.452-2.709a6.1 6.1 0 0 0-1.285-2.08 5.806 5.806 0 0 0-2-1.363c-.78-.329-1.67-.495-2.646-.495m9.462 16.057c-1.179 1.121-2.594 1.993-4.208 2.592-1.602.595-3.369.897-5.254.897-1.889 0-3.657-.302-5.257-.897-1.613-.599-3.027-1.47-4.209-2.592-1.18-1.124-2.114-2.503-2.773-4.098-.655-1.584-.987-3.374-.987-5.312 0-1.94.332-3.73.987-5.315.66-1.596 1.592-2.97 2.773-4.095 1.182-1.124 2.596-1.992 4.21-2.595 1.601-.59 3.368-.896 5.256-.896 1.885 0 3.651.305 5.254.896 1.614.603 3.03 1.471 4.208 2.595 1.182 1.125 2.117 2.5 2.774 4.095.656 1.585.988 3.375.988 5.315 0 1.938-.332 3.728-.988 5.312-.657 1.595-1.592 2.974-2.774 4.098M488.418 325.774h1.826c.445 0 .924-.03 1.42-.076a3.768 3.768 0 0 0 1.168-.31 1.9 1.9 0 0 0 .747-.595c.167-.217.249-.532.249-.944 0-.405-.07-.727-.205-.962a1.578 1.578 0 0 0-.546-.571 2.686 2.686 0 0 0-.888-.34 5.602 5.602 0 0 0-1.163-.117h-2.608v3.915zm9.313 4.277c-.875.585-1.903 1.003-3.065 1.238-1.113.23-2.304.344-3.544.344h-9.344V307.01h6.64V316h2.933c1.266 0 2.464.122 3.554.36 1.142.249 2.147.682 2.99 1.284.868.616 1.554 1.454 2.046 2.482.48 1.014.726 2.267.726 3.723 0 1.485-.266 2.756-.788 3.765-.527 1.015-1.25 1.834-2.148 2.437M501.612 324.583l3.805-4.378 3.917 3.45V307.01h6.252v24.623h-5.627l-8.347-7.05zM538.091 316.465a6.108 6.108 0 0 1-.975 1.869 5.719 5.719 0 0 1-1.56 1.39c-.03.024-.062.039-.09.056a5.056 5.056 0 0 1 1.402 1.293c.77 1.046 1.161 2.309 1.161 3.755 0 1.229-.244 2.316-.722 3.23a6.735 6.735 0 0 1-1.935 2.263c-.795.592-1.725 1.028-2.76 1.302-1.966.519-4.198.519-6.11.072a9.04 9.04 0 0 1-2.623-1.056 7.162 7.162 0 0 1-2.076-1.913c-.58-.78-1.018-1.735-1.304-2.825l-.207-.792 6.914-1.43.182.73c.111.448.344.81.716 1.119.358.298.815.439 1.392.439.624 0 1.127-.163 1.54-.51.373-.303.548-.66.548-1.12 0-.387-.07-.688-.204-.893a1.436 1.436 0 0 0-.562-.515 3.104 3.104 0 0 0-.947-.294 7.945 7.945 0 0 0-1.222-.091h-2.376v-5.796h1.921c.53 0 1.062-.018 1.58-.048a3.862 3.862 0 0 0 1.223-.252c.305-.121.542-.302.73-.544.161-.218.247-.578.247-1.048 0-.67-.183-1.191-.559-1.604-.353-.383-.955-.576-1.788-.576-.839 0-1.459.173-1.842.514-.408.37-.674.87-.816 1.533l-.164.783-6.68-1.564.175-.76c.522-2.258 1.627-3.944 3.287-5.005 1.607-1.036 3.54-1.558 5.747-1.558 1.193 0 2.343.152 3.42.453 1.101.304 2.075.782 2.903 1.419a7.144 7.144 0 0 1 2.01 2.43c.5.976.753 2.114.753 3.384 0 .75-.11 1.478-.329 2.16" fill="#328f82"/><path d="M543.925 316.779h4.551v-2.343h-4.551v2.343zM560.14 326.098c-.397.932-.887 1.631-1.466 2.098-.584.467-1.189.702-1.822.702-.73 0-1.403-.259-2.015-.786-.613-.516-1.14-1.218-1.585-2.096-.45-.883-.795-1.9-1.043-3.063a17.521 17.521 0 0 1-.372-3.63c0-1.347.126-2.603.372-3.766.248-1.163.59-2.17 1.03-3.028.438-.862.967-1.537 1.58-2.034.613-.502 1.288-.752 2.033-.752.805 0 1.523.277 2.156.834.63.551 1.184 1.35 1.653 2.392l1.17-1.727c-.594-1.392-1.312-2.408-2.147-3.063a4.491 4.491 0 0 0-2.832-.976c-.94 0-1.818.304-2.638.91-.815.61-1.527 1.45-2.127 2.526-.599 1.077-1.07 2.35-1.41 3.828-.34 1.478-.51 3.093-.51 4.855 0 1.693.163 3.281.492 4.756.326 1.474.79 2.757 1.385 3.844.591 1.087 1.297 1.941 2.116 2.571.816.63 1.713.95 2.692.95.893 0 1.75-.285 2.571-.853.824-.564 1.516-1.488 2.074-2.765l-1.357-1.727zM570.115 309.744c.766 0 1.471.25 2.107.75.638.499 1.188 1.184 1.643 2.049.46.872.818 1.886 1.07 3.05.253 1.162.378 2.405.378 3.73 0 1.322-.125 2.568-.379 3.73-.25 1.16-.61 2.173-1.069 3.046-.455.869-1.005 1.55-1.643 2.05-.636.5-1.34.75-2.107.75-.769 0-1.47-.25-2.108-.75-.64-.5-1.188-1.181-1.644-2.05-.459-.873-.816-1.886-1.067-3.046-.257-1.162-.38-2.408-.38-3.73 0-1.325.123-2.568.38-3.73.251-1.164.608-2.178 1.067-3.05.456-.865 1.004-1.55 1.644-2.048.637-.501 1.34-.751 2.108-.751m0-2.541c-1.002 0-1.922.305-2.76.91-.835.61-1.559 1.45-2.17 2.527-.613 1.077-1.09 2.353-1.433 3.845-.34 1.484-.508 3.1-.508 4.838 0 1.737.167 3.349.508 4.838.342 1.485.82 2.768 1.432 3.84.612 1.078 1.336 1.919 2.171 2.527.838.606 1.758.914 2.76.914 1.004 0 1.922-.308 2.758-.914.834-.608 1.562-1.45 2.174-2.526.61-1.073 1.088-2.356 1.43-3.841.34-1.49.512-3.101.512-4.838 0-1.738-.173-3.354-.512-4.838-.342-1.492-.82-2.768-1.43-3.845-.612-1.076-1.34-1.917-2.174-2.527-.836-.605-1.754-.91-2.758-.91M581.056 320.69h2.637c.78 0 1.416.309 1.902.932.492.615.736 1.577.736 2.878 0 1.305-.244 2.264-.736 2.884-.486.618-1.122.93-1.902.93h-2.637v-7.624zm-1.56 10.164h3.902c.607 0 1.184-.104 1.736-.311a3.612 3.612 0 0 0 1.466-1.043c.428-.487.769-1.137 1.02-1.955.256-.813.383-1.817.383-3.011 0-1.26-.134-2.301-.41-3.127-.27-.828-.622-1.478-1.047-1.956-.43-.475-.896-.814-1.402-1.009-.508-.196-.992-.296-1.451-.296h-2.637v-10.358h-1.56v23.065zM590.512 330.854h2.322l4.455-18.082h.039l4.492 18.082h2.27v-23.065h-1.564v19.352h-.034l-4.718-19.352h-.948l-4.72 19.352h-.034v-19.352h-1.56v23.065zM613.467 309.744c.766 0 1.471.25 2.108.75.637.499 1.185 1.184 1.642 2.049.46.872.818 1.886 1.072 3.05.251 1.162.38 2.405.38 3.73a17.66 17.66 0 0 1-.38 3.73c-.254 1.16-.612 2.173-1.072 3.046-.457.869-1.005 1.55-1.642 2.05-.637.5-1.342.75-2.108.75-.769 0-1.469-.25-2.108-.75-.638-.5-1.187-1.181-1.644-2.05-.459-.873-.813-1.886-1.067-3.046a17.458 17.458 0 0 1-.384-3.73c0-1.325.13-2.568.384-3.73.254-1.164.608-2.178 1.067-3.05.457-.865 1.006-1.55 1.644-2.048.64-.501 1.34-.751 2.108-.751m0-2.541c-1.002 0-1.92.305-2.759.91-.836.61-1.558 1.45-2.173 2.527-.61 1.077-1.088 2.353-1.43 3.845-.34 1.484-.51 3.1-.51 4.838 0 1.737.17 3.349.51 4.838.342 1.485.82 2.768 1.43 3.84.615 1.078 1.337 1.919 2.173 2.527.838.606 1.757.914 2.76.914s1.922-.308 2.76-.914c.835-.608 1.56-1.45 2.173-2.526.613-1.073 1.086-2.356 1.429-3.841.342-1.49.51-3.101.51-4.838 0-1.738-.168-3.354-.51-4.838-.344-1.492-.817-2.768-1.43-3.845-.613-1.076-1.338-1.917-2.173-2.527-.838-.605-1.757-.91-2.76-.91M624.409 320.69h2.636c.78 0 1.417.309 1.905.932.49.615.734 1.577.734 2.878 0 1.305-.244 2.264-.734 2.884-.488.618-1.124.93-1.905.93h-2.636v-7.624zm-1.56 10.164h3.899c.608 0 1.185-.104 1.736-.311.552-.205 1.042-.554 1.469-1.043.429-.487.769-1.137 1.02-1.955.254-.813.38-1.817.38-3.011 0-1.26-.135-2.301-.406-3.127-.271-.828-.623-1.478-1.048-1.956-.43-.475-.896-.814-1.404-1.009-.508-.196-.992-.296-1.45-.296h-2.636v-10.358h-1.56v23.065zM635.202 325.087c0-1.107.2-2.02.6-2.737.404-.716.933-1.073 1.59-1.073.655 0 1.186.357 1.589 1.073.4.717.6 1.63.6 2.737 0 1.107-.2 2.02-.6 2.738-.403.713-.934 1.073-1.59 1.073s-1.185-.36-1.588-1.073c-.401-.719-.601-1.63-.601-2.738m-.447-10.748c0-.675.066-1.295.206-1.859.133-.564.322-1.05.564-1.449.239-.402.519-.717.835-.946a1.727 1.727 0 0 1 2.065 0c.314.23.592.544.833.946.244.398.43.885.567 1.45.135.563.208 1.183.208 1.858 0 .672-.073 1.287-.208 1.854-.137.565-.323 1.046-.567 1.451a3.147 3.147 0 0 1-.833.944 1.72 1.72 0 0 1-1.033.34c-.372 0-.716-.11-1.032-.34a3.099 3.099 0 0 1-.835-.944 5.079 5.079 0 0 1-.564-1.45 7.713 7.713 0 0 1-.206-1.855m-1.115 10.876c0 .91.096 1.738.286 2.48.195.736.456 1.366.79 1.888.333.52.73.927 1.19 1.221a2.734 2.734 0 0 0 2.973 0 4.044 4.044 0 0 0 1.187-1.22c.337-.523.598-1.153.79-1.89.193-.74.288-1.569.288-2.479 0-.543-.047-1.085-.15-1.629a7.378 7.378 0 0 0-.428-1.498 5.143 5.143 0 0 0-.676-1.2c-.267-.352-.565-.6-.9-.753v-.066a2.796 2.796 0 0 0 1.076-.76c.323-.365.595-.803.816-1.322a8.49 8.49 0 0 0 .523-1.777c.123-.663.185-1.355.185-2.069 0-1.04-.111-1.982-.325-2.816-.216-.838-.514-1.55-.891-2.135-.38-.586-.825-1.03-1.338-1.337a3.218 3.218 0 0 0-1.644-.456c-.582 0-1.132.156-1.643.456-.514.306-.96.751-1.34 1.337-.375.584-.673 1.297-.89 2.135-.216.834-.326 1.775-.326 2.816 0 .714.062 1.406.186 2.07a8.37 8.37 0 0 0 .524 1.776c.22.52.493.957.813 1.321.323.357.685.61 1.077.761v.066c-.333.153-.633.401-.898.752a5.008 5.008 0 0 0-.678 1.201 7.442 7.442 0 0 0-.427 1.498 8.896 8.896 0 0 0-.15 1.63M643.372 316.779h4.552v-2.343h-4.552v2.343zM659.587 326.098c-.394.932-.885 1.631-1.465 2.098-.581.467-1.191.702-1.823.702-.728 0-1.398-.259-2.011-.786-.614-.516-1.143-1.218-1.591-2.096-.444-.883-.793-1.9-1.04-3.063a17.253 17.253 0 0 1-.37-3.63c0-1.347.12-2.603.37-3.766.246-1.163.591-2.17 1.03-3.028.442-.862.965-1.537 1.582-2.034.612-.502 1.289-.752 2.03-.752.808 0 1.526.277 2.158.834.63.551 1.182 1.35 1.652 2.392l1.17-1.727c-.595-1.392-1.308-2.408-2.143-3.063a4.503 4.503 0 0 0-2.837-.976c-.94 0-1.82.304-2.633.91-.82.61-1.53 1.45-2.128 2.526-.6 1.077-1.07 2.35-1.416 3.828-.34 1.478-.51 3.093-.51 4.855 0 1.693.164 3.281.493 4.756.329 1.474.79 2.757 1.384 3.844.596 1.087 1.304 1.941 2.118 2.571.818.63 1.718.95 2.692.95.894 0 1.75-.285 2.574-.853.824-.564 1.513-1.488 2.075-2.765l-1.361-1.727zM669.562 309.744c.769 0 1.47.25 2.11.75.636.499 1.182 1.184 1.643 2.049.458.872.814 1.886 1.069 3.05.254 1.162.38 2.405.38 3.73 0 1.322-.126 2.568-.38 3.73-.255 1.16-.611 2.173-1.07 3.046-.46.869-1.006 1.55-1.642 2.05-.64.5-1.341.75-2.11.75-.767 0-1.471-.25-2.108-.75s-1.184-1.181-1.644-2.05c-.457-.873-.813-1.886-1.068-3.046a17.657 17.657 0 0 1-.381-3.73c0-1.325.13-2.568.38-3.73.256-1.164.612-2.178 1.069-3.05.46-.865 1.007-1.55 1.644-2.048.637-.501 1.34-.751 2.108-.751m0-2.541c-1.005 0-1.921.305-2.755.91-.838.61-1.564 1.45-2.178 2.527-.61 1.077-1.088 2.353-1.427 3.845-.342 1.484-.512 3.1-.512 4.838 0 1.737.17 3.349.512 4.838.339 1.485.817 2.768 1.427 3.84.614 1.078 1.34 1.919 2.178 2.527.834.606 1.75.914 2.755.914 1.004 0 1.924-.308 2.76-.914.838-.608 1.56-1.45 2.174-2.526.61-1.073 1.086-2.356 1.428-3.841.342-1.49.512-3.101.512-4.838 0-1.738-.17-3.354-.512-4.838-.342-1.492-.818-2.768-1.428-3.845-.614-1.076-1.336-1.917-2.174-2.527-.836-.605-1.756-.91-2.76-.91M680.503 320.69h2.64c.777 0 1.412.309 1.901.932.488.615.734 1.577.734 2.878 0 1.305-.246 2.264-.734 2.884-.489.618-1.124.93-1.9.93h-2.64v-7.624zm-1.56 10.164h3.9c.607 0 1.187-.104 1.736-.311.553-.205 1.043-.554 1.47-1.043.427-.487.764-1.137 1.02-1.955.253-.813.381-1.817.381-3.011 0-1.26-.138-2.301-.408-3.127-.274-.828-.623-1.478-1.048-1.956-.43-.475-.895-.814-1.405-1.009-.507-.196-.99-.296-1.446-.296h-2.64v-10.358h-1.56v23.065zM689.957 330.854h2.322l4.458-18.082h.039l4.494 18.082h2.264v-23.065h-1.56v19.352h-.037l-4.717-19.352h-.944l-4.721 19.352h-.036v-19.352h-1.562v23.065zM712.914 309.744c.77 0 1.472.25 2.108.75.64.499 1.187 1.184 1.647 2.049.457.872.815 1.886 1.064 3.05a17.25 17.25 0 0 1 .382 3.73 17.27 17.27 0 0 1-.382 3.73c-.25 1.16-.607 2.173-1.064 3.046-.46.869-1.007 1.55-1.647 2.05-.636.5-1.338.75-2.108.75s-1.471-.25-2.107-.75c-.637-.5-1.188-1.181-1.643-2.05-.458-.873-.817-1.886-1.067-3.046a17.462 17.462 0 0 1-.381-3.73c0-1.325.127-2.568.38-3.73.25-1.164.61-2.178 1.068-3.05.455-.865 1.006-1.55 1.643-2.048.636-.501 1.338-.751 2.107-.751m0-2.541c-1 0-1.921.305-2.756.91-.837.61-1.561 1.45-2.175 2.527-.61 1.077-1.091 2.353-1.428 3.845-.34 1.484-.513 3.1-.513 4.838 0 1.737.173 3.349.513 4.838.337 1.485.818 2.768 1.428 3.84.614 1.078 1.338 1.919 2.175 2.527.835.606 1.757.914 2.756.914 1.005 0 1.925-.308 2.76-.914.838-.608 1.562-1.45 2.176-2.526.61-1.073 1.086-2.356 1.427-3.841.34-1.49.514-3.101.514-4.838 0-1.738-.173-3.354-.514-4.838-.341-1.492-.817-2.768-1.427-3.845-.614-1.076-1.338-1.917-2.176-2.527-.835-.605-1.755-.91-2.76-.91M723.855 320.69h2.64c.777 0 1.412.309 1.901.932.49.615.736 1.577.736 2.878 0 1.305-.246 2.264-.736 2.884-.489.618-1.124.93-1.902.93h-2.639v-7.624zm-1.559 10.164h3.9c.61 0 1.188-.104 1.735-.311.553-.205 1.044-.554 1.471-1.043.424-.487.764-1.137 1.021-1.955.254-.813.38-1.817.38-3.011 0-1.26-.136-2.301-.407-3.127-.276-.828-.623-1.478-1.049-1.956-.429-.475-.898-.814-1.406-1.009-.508-.196-.99-.296-1.447-.296h-2.639v-10.358h-1.559v23.065zM732.604 310.916l4.959 8.468c.31.524.584 1.004.819 1.451.235.446.43.878.587 1.305.153.421.269.865.343 1.318.072.457.11.97.11 1.533 0 .605-.063 1.15-.184 1.626a4.106 4.106 0 0 1-.516 1.222 2.5 2.5 0 0 1-.76.783 1.692 1.692 0 0 1-.936.276c-.67 0-1.221-.338-1.652-1.01-.435-.675-.714-1.565-.838-2.672l-1.688.264c.085.934.25 1.765.49 2.487.24.731.546 1.332.908 1.814.368.477.78.838 1.238 1.086.46.253.954.378 1.486.378.545 0 1.06-.136 1.543-.409.483-.269.906-.667 1.27-1.19.367-.52.658-1.17.876-1.952.213-.783.32-1.685.32-2.703 0-.913-.07-1.74-.21-2.477a12.08 12.08 0 0 0-.576-2.035 14.82 14.82 0 0 0-.82-1.762c-.3-.554-.621-1.1-.954-1.644l-4.05-6.679v-.066h6.706v-2.54h-8.471v3.128z" fill="#ffffff"/></g><g xmlns="http://www.w3.org/2000/svg" clip-path="url(#b)" style="filter:url(#dropshadow)" transform="matrix(1.25 0 0 -1.25 -535 525)"><path d="M446.223 283.806c-.786-1.117-1.696-1.917-2.73-2.405a7.801 7.801 0 0 0-3.353-.726c-1.249 0-2.394.22-3.436.669a7.655 7.655 0 0 0-2.668 1.865c-.74.803-1.32 1.759-1.735 2.865-.418 1.11-.624 2.322-.624 3.635 0 1.309.206 2.513.624 3.616.414 1.1.994 2.054 1.735 2.854a7.816 7.816 0 0 0 2.668 1.881c1.042.455 2.187.68 3.436.68 1.11 0 2.147-.207 3.111-.62.963-.411 1.806-1.103 2.533-2.075l-1.249-1.092c-.51.81-1.16 1.4-1.955 1.772a5.732 5.732 0 0 1-2.44.557c-1.063 0-2.024-.196-2.88-.583a6.422 6.422 0 0 1-2.185-1.602 7.177 7.177 0 0 1-1.388-2.405 9.01 9.01 0 0 1-.483-2.983c0-1.07.162-2.065.483-2.987a7.177 7.177 0 0 1 1.388-2.405 6.428 6.428 0 0 1 2.185-1.604c.856-.39 1.817-.581 2.88-.581a5.688 5.688 0 0 1 2.601.64c.426.22.83.499 1.213.828.387.33.726.735 1.02 1.201l1.25-.995z" fill="#328f82"/><path d="M440.14 298.16c-1.167 0-2.249-.213-3.219-.636a7.359 7.359 0 0 1-2.483-1.747c-.687-.741-1.23-1.641-1.618-2.666-.387-1.026-.586-2.173-.586-3.402 0-1.233.2-2.387.586-3.421.39-1.031.934-1.932 1.618-2.673a7.134 7.134 0 0 1 2.482-1.733c.968-.42 2.053-.63 3.22-.63 1.118 0 2.17.232 3.121.68.798.373 1.528.967 2.172 1.77l-.343.274a5.694 5.694 0 0 0-.776-.824 7.035 7.035 0 0 0-1.325-.901 6.383 6.383 0 0 0-1.43-.532 6.377 6.377 0 0 0-1.419-.17c-1.137 0-2.18.214-3.103.63a7.062 7.062 0 0 0-2.373 1.743 7.831 7.831 0 0 0-1.502 2.6 9.62 9.62 0 0 0-.517 3.187c0 1.128.173 2.203.517 3.182a7.845 7.845 0 0 0 1.502 2.604 7.051 7.051 0 0 0 2.373 1.739c.922.416 1.966.63 3.103.63.908 0 1.808-.202 2.671-.607a5.09 5.09 0 0 0 1.821-1.457l.365.318c-.58.664-1.238 1.157-1.96 1.467a7.326 7.326 0 0 1-2.897.576m0-18.07c-1.315 0-2.543.24-3.646.713a8.298 8.298 0 0 0-2.862 2.004c-.789.853-1.412 1.88-1.854 3.057-.44 1.17-.66 2.466-.66 3.844 0 1.377.22 2.665.664 3.83.438 1.164 1.061 2.19 1.85 3.04a8.393 8.393 0 0 0 2.857 2.016c1.108.484 2.333.726 3.651.726 1.18 0 2.3-.22 3.326-.661 1.048-.45 1.98-1.21 2.76-2.261l.33-.437-2.145-1.877-.345.55c-.452.719-1.013 1.229-1.716 1.563a5.2 5.2 0 0 1-2.21.506c-.98 0-1.875-.181-2.655-.54a5.853 5.853 0 0 1-1.996-1.461 6.65 6.65 0 0 1-1.276-2.207 8.414 8.414 0 0 1-.45-2.787c0-.998.15-1.932.45-2.788a6.659 6.659 0 0 1 1.276-2.211 5.913 5.913 0 0 1 1.996-1.464c.78-.355 1.675-.532 2.655-.532.374 0 .767.048 1.171.14.402.095.8.244 1.182.443.383.199.757.447 1.106.752.338.289.644.65.906 1.07l.326.529 2.167-1.726-.324-.46c-.84-1.193-1.832-2.064-2.95-2.588-1.102-.522-2.308-.782-3.584-.782M457.764 296.555l-3.817-9.421h7.517l-3.7 9.42zm-.718 1.75h1.573l6.894-17.193H463.8l-1.781 4.565h-8.671l-1.853-4.565H449.9l7.146 17.194z" fill="#328f82"/><path d="M454.789 287.716h5.841l-2.873 7.32-2.968-7.32zm9.387-6.022h.496l-6.425 16.028h-.338l4.389-11.17h-9.194l4.525 11.17h-.214l-6.662-16.027h.372l1.849 4.563h9.422l1.78-4.563zm2.174-1.165h-2.926l-1.782 4.565h-7.923l-1.853-4.565h-2.817l7.63 18.355h2.313l7.358-18.355zM470.877 298.306h1.964l9.97-15.06h.045v15.06h1.527v-17.194h-1.966l-9.967 15.053h-.045v-15.053h-1.527v17.194z" fill="#328f82"/><path d="M482.71 281.695h1.11v16.028h-.404v-15.06h-.856l-.213.254-9.796 14.806h-1.117v-16.028h.409v15.05h.854l.215-.247 9.799-14.803zm2.232-1.165h-2.818l-9.162 13.837V280.53h-2.645v18.355h2.82l9.158-13.834v13.834h2.647V280.53zM505.358 283.806c-.786-1.117-1.696-1.917-2.73-2.405a7.798 7.798 0 0 0-3.353-.726c-1.249 0-2.394.22-3.436.669a7.665 7.665 0 0 0-2.668 1.865c-.74.803-1.32 1.759-1.736 2.865-.416 1.11-.623 2.322-.623 3.635 0 1.309.207 2.513.623 3.616.416 1.1.995 2.054 1.736 2.854a7.826 7.826 0 0 0 2.668 1.881c1.042.455 2.187.68 3.436.68a7.82 7.82 0 0 0 3.112-.62c.962-.411 1.805-1.103 2.532-2.075l-1.249-1.092c-.508.81-1.16 1.4-1.954 1.772a5.74 5.74 0 0 1-2.44.557c-1.063 0-2.024-.196-2.88-.583a6.395 6.395 0 0 1-2.184-1.602 7.146 7.146 0 0 1-1.389-2.405 8.985 8.985 0 0 1-.486-2.983c0-1.07.164-2.065.486-2.987a7.146 7.146 0 0 1 1.39-2.405 6.4 6.4 0 0 1 2.182-1.604c.857-.39 1.818-.581 2.88-.581.42 0 .848.051 1.294.155.45.108.885.268 1.308.485.425.22.83.499 1.215.828.386.33.725.735 1.016 1.201l1.25-.995z" fill="#328f82"/><path d="M499.275 298.16c-1.167 0-2.25-.213-3.216-.636a7.341 7.341 0 0 1-2.486-1.747c-.684-.741-1.228-1.641-1.617-2.666-.388-1.026-.587-2.173-.587-3.402 0-1.233.199-2.387.587-3.421.389-1.031.933-1.932 1.617-2.673a7.134 7.134 0 0 1 2.482-1.733c.968-.42 2.053-.63 3.22-.63 1.119 0 2.17.232 3.126.68.793.373 1.522.967 2.167 1.77l-.34.274a5.558 5.558 0 0 0-.78-.824 6.865 6.865 0 0 0-1.323-.901 6.394 6.394 0 0 0-1.43-.532 6.402 6.402 0 0 0-1.42-.17c-1.137 0-2.182.214-3.103.63a7.044 7.044 0 0 0-2.371 1.743 7.797 7.797 0 0 0-1.502 2.6 9.594 9.594 0 0 0-.521 3.187 9.57 9.57 0 0 0 .52 3.182 7.811 7.811 0 0 0 1.503 2.604 7.034 7.034 0 0 0 2.37 1.739c.922.416 1.967.63 3.104.63.909 0 1.808-.202 2.673-.607a5.069 5.069 0 0 0 1.817-1.457l.365.318c-.578.664-1.236 1.157-1.955 1.467a7.355 7.355 0 0 1-2.9.576m0-18.07c-1.315 0-2.543.24-3.648.713a8.295 8.295 0 0 0-2.86 2.004c-.787.853-1.412 1.88-1.853 3.057-.44 1.17-.66 2.466-.66 3.844 0 1.377.222 2.665.66 3.83.442 1.164 1.066 2.19 1.854 3.04a8.368 8.368 0 0 0 2.858 2.016c1.105.484 2.334.726 3.649.726 1.18 0 2.297-.22 3.324-.661 1.053-.45 1.982-1.21 2.76-2.261l.33-.437-2.143-1.877-.345.55c-.454.719-1.012 1.229-1.715 1.563a5.2 5.2 0 0 1-2.211.506c-.98 0-1.875-.181-2.655-.54a5.843 5.843 0 0 1-1.996-1.461 6.592 6.592 0 0 1-1.273-2.207 8.389 8.389 0 0 1-.454-2.787c0-.998.153-1.932.454-2.788a6.601 6.601 0 0 1 1.273-2.211 5.903 5.903 0 0 1 1.996-1.464c.78-.355 1.675-.532 2.655-.532a5.106 5.106 0 0 1 2.356.583c.38.199.754.447 1.103.752.34.289.645.65.908 1.07l.326.529 2.165-1.726-.324-.46c-.841-1.193-1.83-2.064-2.95-2.588-1.102-.522-2.307-.782-3.584-.782M522.797 287.69c0-.921-.102-1.804-.302-2.644a6.259 6.259 0 0 0-1.004-2.234c-.47-.651-1.088-1.165-1.853-1.556-.761-.387-1.698-.581-2.81-.581-1.11 0-2.044.194-2.808.58-.764.392-1.38.906-1.85 1.557a6.198 6.198 0 0 0-1.008 2.234c-.2.84-.298 1.723-.298 2.645v10.615h1.525v-10.2c0-.62.054-1.272.164-1.967a6.024 6.024 0 0 1 .635-1.943 4.04 4.04 0 0 1 1.339-1.482c.58-.391 1.346-.582 2.3-.582.958 0 1.725.19 2.303.582a4.034 4.034 0 0 1 1.343 1.482c.314.597.528 1.245.635 1.943.109.695.162 1.348.162 1.968v10.199h1.527V287.69z" fill="#328f82"/><path d="M511.423 297.722v-10.03c0-.877.096-1.716.283-2.508.18-.759.49-1.443.909-2.022a4.593 4.593 0 0 1 1.652-1.385c.68-.348 1.543-.524 2.56-.524 1.02 0 1.886.176 2.567.524.68.347 1.232.814 1.65 1.385.42.582.726 1.263.909 2.022.187.796.283 1.64.283 2.507v10.031h-.406v-9.616c0-.643-.058-1.338-.168-2.06a6.806 6.806 0 0 0-.701-2.132 4.588 4.588 0 0 0-1.526-1.689c-.67-.448-1.546-.675-2.607-.675-1.06 0-1.936.227-2.604.675a4.62 4.62 0 0 0-1.528 1.69 6.8 6.8 0 0 0-.697 2.13 13.57 13.57 0 0 0-.17 2.061v9.616h-.406zm5.405-17.63c-1.19 0-2.22.216-3.055.644a5.663 5.663 0 0 0-2.05 1.724 6.784 6.784 0 0 0-1.102 2.446c-.21.878-.317 1.82-.317 2.785v11.193h2.643v-10.778c0-.578.053-1.21.156-1.877a5.56 5.56 0 0 1 .576-1.754c.273-.517.65-.933 1.154-1.274.483-.325 1.155-.488 1.995-.488.844 0 1.515.163 1.998.488.504.338.88.757 1.154 1.274.285.54.478 1.128.575 1.754a12.4 12.4 0 0 1 .156 1.877v10.778h2.645v-11.193c0-.964-.107-1.904-.32-2.785a6.713 6.713 0 0 0-1.1-2.446 5.655 5.655 0 0 0-2.05-1.724c-.837-.428-1.866-.645-3.058-.645M529.99 298.306h1.962l9.97-15.06h.047v15.06h1.525v-17.194h-1.966l-9.967 15.053h-.047v-15.053h-1.525v17.194z" fill="#328f82"/><path d="M541.822 281.695h1.113v16.028h-.408v-15.06h-.854l-.215.254-9.799 14.806h-1.11v-16.028h.407v15.05h.854l.208-.247 9.804-14.803zm2.233-1.165h-2.823l-9.162 13.837V280.53h-2.642v18.355h2.818l9.164-13.834v13.834h2.645V280.53zM551.426 283.297h1.618l-1.78-5.538H549.9l1.525 5.538z" fill="#328f82"/><path d="M550.641 278.342h.22l1.407 4.372h-.419l-1.208-4.372zm1.025-1.165h-2.51l1.846 6.7h2.821l-2.157-6.7zM568.864 298.306h2.288l5.97-14.427 5.965 14.427h2.176v-17.194h-1.528v15.15h-.047l-6.243-15.15h-.67l-6.339 15.15h-.045v-15.15h-1.527v17.194z" fill="#328f82"/><path d="M584.293 281.695h.406v16.028h-1.244l-6.334-15.32-6.334 15.32h-1.363v-16.028h.407v15.149h.925l.193-.346 6.157-14.725 6.213 15.07h.93l.044-.58v-14.568zm1.528-1.165h-2.647v13.013l-5.363-13.013h-1.405l-5.457 13.049v-13.05h-2.644v18.356h3.217l5.6-13.531 5.597 13.53h3.102V280.53zM592.592 298.306h10.01v-1.462h-8.485v-6.12h7.955v-1.452h-7.955v-6.703h8.86v-1.457h-10.385v17.194z" fill="#328f82"/><path d="M593.153 281.695h9.264v.292h-8.86v7.866h7.957v.293h-7.957v7.28h8.488v.297h-8.892v-16.028zm10.385-1.165h-11.504v18.355H603.164v-2.62h-8.487v-4.957h7.956v-2.62h-7.956v-5.54h8.86v-2.618zM613.243 290.146l-5.595 8.16h1.8l4.72-6.995 4.648 6.995h1.828l-5.551-8.16 6.086-9.034h-1.9l-5.18 7.768-5.18-7.768h-1.827l6.15 9.034z" fill="#328f82"/><path d="M619.573 281.695h.529l-5.693 8.45 5.155 7.578h-.453l-4.942-7.433-5.01 7.433h-.428l5.202-7.577-5.758-8.451h.452l5.473 8.21 5.473-8.21zm2.678-1.165h-3.264l-4.887 7.33-4.89-7.33h-3.2l6.549 9.613-5.998 8.742h3.184l4.419-6.557 4.359 6.557h3.204l-5.95-8.742 6.474-9.613zM626.451 298.306h1.524v-17.194h-1.524v17.194z" fill="#328f82"/><path d="M627.01 281.695h.403v16.028h-.403v-16.028zm1.524-1.165h-2.644v18.354h2.644V280.53zM648.95 283.806c-.786-1.117-1.695-1.917-2.73-2.405a7.798 7.798 0 0 0-3.353-.726c-1.249 0-2.393.22-3.432.669a7.71 7.71 0 0 0-2.675 1.865c-.737.803-1.315 1.759-1.73 2.865-.417 1.11-.625 2.322-.625 3.635 0 1.309.208 2.513.624 3.616.416 1.1.994 2.054 1.731 2.854a7.873 7.873 0 0 0 2.675 1.881c1.04.455 2.183.68 3.432.68a7.81 7.81 0 0 0 3.112-.62c.963-.411 1.807-1.103 2.533-2.075l-1.25-1.092c-.508.81-1.16 1.4-1.953 1.772a5.768 5.768 0 0 1-2.442.557c-1.063 0-2.023-.196-2.878-.583a6.384 6.384 0 0 1-2.185-1.602c-.605-.679-1.066-1.483-1.39-2.405a9.01 9.01 0 0 1-.482-2.983c0-1.07.16-2.065.481-2.987.325-.922.786-1.726 1.391-2.405a6.39 6.39 0 0 1 2.185-1.604c.855-.39 1.815-.581 2.878-.581a5.698 5.698 0 0 1 2.601.64c.426.22.83.499 1.216.828.384.33.723.735 1.02 1.201l1.246-.995z" fill="#328f82"/><path d="M642.867 298.16c-1.167 0-2.25-.213-3.216-.636a7.315 7.315 0 0 1-2.482-1.747c-.687-.741-1.231-1.641-1.618-2.666-.39-1.026-.587-2.173-.587-3.402 0-1.233.197-2.387.587-3.421.387-1.031.93-1.932 1.618-2.673a7.075 7.075 0 0 1 2.48-1.733c.966-.42 2.05-.63 3.218-.63 1.118 0 2.17.232 3.124.68.798.373 1.526.967 2.172 1.77l-.345.274a5.85 5.85 0 0 0-.774-.824 7.166 7.166 0 0 0-1.325-.901 6.443 6.443 0 0 0-1.433-.532 6.364 6.364 0 0 0-1.42-.17c-1.134 0-2.18.214-3.101.63a7.004 7.004 0 0 0-2.371 1.743 7.798 7.798 0 0 0-1.505 2.6 9.632 9.632 0 0 0-.52 3.187c0 1.128.177 2.206.52 3.182.35.995.856 1.866 1.505 2.604a7.034 7.034 0 0 0 2.37 1.739c.923.416 1.968.63 3.103.63.909 0 1.808-.202 2.672-.607a5.079 5.079 0 0 0 1.82-1.457l.365.318c-.578.664-1.237 1.157-1.957 1.467a7.347 7.347 0 0 1-2.9.576m0-18.07c-1.313 0-2.542.24-3.646.713a8.29 8.29 0 0 0-2.865 2.004 9.283 9.283 0 0 0-1.848 3.057c-.44 1.17-.663 2.466-.663 3.844 0 1.374.223 2.665.664 3.83a9.298 9.298 0 0 0 1.847 3.04 8.471 8.471 0 0 0 2.862 2.016c1.105.484 2.334.726 3.649.726 1.183 0 2.299-.22 3.324-.661 1.052-.45 1.98-1.21 2.764-2.261l.327-.437-2.144-1.877-.346.55c-.451.719-1.012 1.229-1.714 1.563a5.19 5.19 0 0 1-2.211.506c-.98 0-1.872-.181-2.653-.54a5.9 5.9 0 0 1-1.998-1.461 6.563 6.563 0 0 1-1.273-2.207 8.338 8.338 0 0 1-.454-2.787c0-.998.15-1.932.454-2.788a6.601 6.601 0 0 1 1.273-2.211 5.96 5.96 0 0 1 1.998-1.464c.78-.355 1.673-.532 2.653-.532.377 0 .77.048 1.176.14.399.095.797.244 1.177.443.386.199.757.447 1.105.749.344.295.644.654.907 1.073l.332.529 2.162-1.726-.323-.46c-.84-1.193-1.834-2.064-2.952-2.588-1.102-.522-2.304-.782-3.584-.782M655.218 289.709c0-1.07.162-2.065.487-2.987a7.133 7.133 0 0 1 1.386-2.405 6.412 6.412 0 0 1 2.185-1.603c.858-.39 1.815-.582 2.879-.582 1.063 0 2.024.192 2.88.582a6.42 6.42 0 0 1 2.187 1.603 7.166 7.166 0 0 1 1.386 2.405c.324.922.485 1.917.485 2.987a8.944 8.944 0 0 1-.485 2.984 7.166 7.166 0 0 1-1.386 2.405 6.457 6.457 0 0 1-2.187 1.602c-.856.387-1.817.583-2.88.583-1.064 0-2.021-.196-2.88-.583a6.449 6.449 0 0 1-2.184-1.602 7.133 7.133 0 0 1-1.386-2.405 8.92 8.92 0 0 1-.487-2.984m-1.525 0c0 1.309.206 2.514.623 3.617.416 1.1.995 2.054 1.734 2.854a7.822 7.822 0 0 0 2.674 1.88c1.039.455 2.186.68 3.43.68 1.252 0 2.395-.225 3.437-.68a7.858 7.858 0 0 0 2.67-1.88c.739-.8 1.32-1.754 1.738-2.854.412-1.103.625-2.308.625-3.617 0-1.313-.213-2.524-.625-3.635-.418-1.106-1-2.061-1.737-2.864a7.688 7.688 0 0 0-2.671-1.866c-1.042-.45-2.185-.67-3.436-.67-1.245 0-2.392.22-3.431.67a7.654 7.654 0 0 0-2.674 1.866c-.74.803-1.318 1.758-1.734 2.864-.417 1.11-.623 2.322-.623 3.635" fill="#328f82"/><path d="M662.155 296.704c-.981 0-1.877-.181-2.656-.54a5.917 5.917 0 0 1-1.996-1.461 6.575 6.575 0 0 1-1.273-2.206 8.373 8.373 0 0 1-.453-2.788c0-.998.151-1.932.453-2.788a6.618 6.618 0 0 1 1.273-2.211 5.963 5.963 0 0 1 1.996-1.464c.779-.355 1.675-.532 2.656-.532.982 0 1.876.177 2.653.532a5.923 5.923 0 0 1 2.001 1.464c.548.62.978 1.364 1.274 2.21.299.857.45 1.79.45 2.789a8.45 8.45 0 0 1-.45 2.788 6.59 6.59 0 0 1-1.274 2.206 5.878 5.878 0 0 1-2.001 1.462c-.777.358-1.671.539-2.653.539m0-15.154c-1.135 0-2.179.213-3.104.629a7.008 7.008 0 0 0-2.372 1.743 7.836 7.836 0 0 0-1.502 2.6 9.581 9.581 0 0 0-.519 3.187c0 1.128.174 2.206.519 3.182a7.88 7.88 0 0 0 1.502 2.604 7.024 7.024 0 0 0 2.372 1.739c.925.416 1.969.63 3.104.63 1.137 0 2.181-.214 3.104-.63a7.036 7.036 0 0 0 2.375-1.74 7.915 7.915 0 0 0 1.502-2.603 9.608 9.608 0 0 0 .517-3.182 9.632 9.632 0 0 0-.517-3.186 7.9 7.9 0 0 0-1.502-2.601 7.114 7.114 0 0 0-2.375-1.743c-.923-.416-1.967-.63-3.104-.63m0 16.612c-1.167 0-2.249-.214-3.217-.637a7.339 7.339 0 0 1-2.484-1.747c-.685-.741-1.23-1.641-1.618-2.665-.388-1.027-.584-2.173-.584-3.403 0-1.233.196-2.387.584-3.421.388-1.031.933-1.932 1.618-2.673a7.13 7.13 0 0 1 2.481-1.733c.967-.42 2.051-.628 3.22-.628 1.17 0 2.255.209 3.22.628a7.15 7.15 0 0 1 2.484 1.733c.681.74 1.226 1.642 1.613 2.673.392 1.037.587 2.188.587 3.42 0 1.23-.195 2.377-.587 3.404a8.163 8.163 0 0 1-1.613 2.665 7.351 7.351 0 0 1-2.487 1.747c-.965.423-2.047.637-3.217.637m0-18.07c-1.315 0-2.542.24-3.648.713a8.253 8.253 0 0 0-2.862 2.005c-.787.853-1.409 1.88-1.851 3.056-.441 1.17-.663 2.467-.663 3.844 0 1.374.222 2.666.663 3.83.442 1.164 1.067 2.19 1.851 3.04a8.422 8.422 0 0 0 2.858 2.016c1.108.484 2.336.727 3.652.727 1.319 0 2.546-.243 3.652-.727a8.337 8.337 0 0 0 2.856-2.015c.79-.85 1.414-1.873 1.853-3.041.442-1.164.666-2.456.666-3.83 0-1.377-.224-2.673-.666-3.844-.439-1.176-1.063-2.203-1.853-3.056a8.266 8.266 0 0 0-2.859-2.005c-1.105-.473-2.331-.712-3.649-.712M684.774 282.812l6.15 6.825c.278.289.555.6.834.933.275.333.527.679.754 1.045.22.362.4.749.542 1.15.139.406.207.843.207 1.313 0 1.005-.307 1.79-.925 2.358-.615.568-1.396.847-2.334.847-.85 0-1.567-.259-2.152-.776-.585-.52-.964-1.2-1.132-2.04l-1.622.167c.264 1.331.844 2.323 1.737 2.976.894.66 1.973.98 3.237.98.632 0 1.232-.097 1.802-.3a4.586 4.586 0 0 0 1.505-.863 4.072 4.072 0 0 0 1.03-1.372c.255-.539.382-1.16.382-1.859 0-.657-.098-1.277-.291-1.845a7.799 7.799 0 0 0-.764-1.612 9.954 9.954 0 0 0-1.088-1.447c-.408-.452-.817-.904-1.236-1.356l-5.111-5.515h8.605v-1.31h-10.13v1.7z" fill="#328f82"/><path d="M685.335 282.58v-.361l5.673 6.119c.415.449.825.904 1.23 1.353.387.426.729.883 1.029 1.364.288.47.526.97.702 1.493.172.499.258 1.056.258 1.648 0 .609-.108 1.147-.324 1.607-.22.462-.513.86-.883 1.183a4.333 4.333 0 0 1-1.328.755 4.827 4.827 0 0 1-1.622.27c-1.142 0-2.122-.291-2.917-.873-.632-.467-1.08-1.121-1.35-1.99l.496-.05a4.058 4.058 0 0 0 1.187 1.852c.688.607 1.533.914 2.516.914 1.074 0 1.988-.333 2.705-.994.74-.68 1.117-1.62 1.117-2.793 0-.532-.083-1.041-.244-1.504a6.439 6.439 0 0 0-.6-1.273 9.741 9.741 0 0 0-.8-1.11 21.406 21.406 0 0 0-.856-.966l-5.99-6.643zm0-.885h9.008v.145h-9.008v-.145zm10.128-1.165h-11.25v2.509l6.302 6.992c.28.293.552.6.822.918.255.312.496.64.699.976.202.326.365.677.489 1.039.118.34.176.713.176 1.113 0 .837-.24 1.465-.736 1.922-.515.473-1.157.705-1.963.705-.718 0-1.306-.211-1.786-.64-.495-.44-.808-1-.95-1.715l-.103-.514-2.74.289.125.63c.293 1.472.952 2.593 1.96 3.335.989.723 2.185 1.088 3.562 1.088.689 0 1.357-.112 1.985-.333a5.311 5.311 0 0 0 1.679-.97 4.562 4.562 0 0 0 1.174-1.562c.29-.621.439-1.33.439-2.116 0-.723-.11-1.41-.322-2.035a8.133 8.133 0 0 0-.822-1.736 10.953 10.953 0 0 0-1.143-1.53 198.35 198.35 0 0 0-1.246-1.36l-4.197-4.532h7.846v-2.473zM700.985 289.709c0-.455.016-.951.044-1.493.033-.543.094-1.093.185-1.654.093-.56.23-1.103.406-1.638a5.431 5.431 0 0 1 .694-1.421 3.381 3.381 0 0 1 1.053-.994c.416-.253.916-.377 1.503-.377.57 0 1.066.124 1.492.377.422.249.78.582 1.062.994.288.412.52.887.695 1.42.176.536.312 1.079.405 1.639.093.56.152 1.11.186 1.654.028.542.046 1.038.046 1.493 0 .437-.018.93-.046 1.48a16.407 16.407 0 0 1-.186 1.667 11.02 11.02 0 0 1-.405 1.634 5.418 5.418 0 0 1-.695 1.42c-.283.414-.64.746-1.062.999-.426.25-.923.374-1.492.374-.572 0-1.067-.124-1.49-.374a3.392 3.392 0 0 1-1.066-.998 5.416 5.416 0 0 1-.694-1.421 10.9 10.9 0 0 1-.406-1.634 16.69 16.69 0 0 1-.185-1.667 29.577 29.577 0 0 1-.044-1.48m-1.528 0c0 .615.03 1.263.084 1.953.052.687.151 1.359.297 2.015.148.658.348 1.279.602 1.873.252.589.583 1.11.986 1.566.4.452.881.813 1.445 1.077.561.268 1.228.398 2 .398.77 0 1.436-.13 2-.398a4.445 4.445 0 0 0 1.446-1.077c.4-.456.73-.977.983-1.566.255-.594.455-1.215.6-1.873.146-.656.245-1.328.3-2.015.056-.69.083-1.338.083-1.953 0-.633-.027-1.287-.084-1.968a14.434 14.434 0 0 0-.299-2.003 10.24 10.24 0 0 0-.6-1.87 5.773 5.773 0 0 0-.983-1.566 4.473 4.473 0 0 0-1.446-1.082c-.564-.266-1.23-.4-2-.4-.772 0-1.439.134-2 .4a4.427 4.427 0 0 0-1.445 1.082 5.662 5.662 0 0 0-.986 1.566 10.562 10.562 0 0 0-.602 1.87 14.138 14.138 0 0 0-.297 2.003 24.449 24.449 0 0 0-.084 1.968" fill="#328f82"/><path d="M704.87 296.704c-.476 0-.875-.102-1.214-.304a2.763 2.763 0 0 1-.887-.83 4.88 4.88 0 0 1-.618-1.268 10.237 10.237 0 0 1-.383-1.548 14.684 14.684 0 0 1-.18-1.598 27.736 27.736 0 0 1-.043-1.447c0-.452.016-.943.044-1.462.03-.517.089-1.05.179-1.587.086-.53.218-1.048.382-1.544.158-.481.365-.907.619-1.274.242-.346.527-.622.878-.831.33-.195.74-.297 1.224-.297.467 0 .879.102 1.215.297.354.214.644.485.886.83.249.368.46.794.619 1.275.165.499.296 1.023.38 1.547.09.535.149 1.067.18 1.584.028.537.044 1.028.044 1.462 0 .416-.016.904-.043 1.447a15.473 15.473 0 0 1-.18 1.598c-.085.52-.216 1.045-.381 1.548-.158.478-.37.907-.622 1.269a2.76 2.76 0 0 1-.883.829c-.34.202-.748.304-1.215.304m0-15.154c-.686 0-1.283.15-1.783.455-.486.29-.9.68-1.23 1.158a6.203 6.203 0 0 0-.767 1.573 11.272 11.272 0 0 0-.426 1.728 16.606 16.606 0 0 0-.193 1.715 26.069 26.069 0 0 0 0 3.046c.034.566.097 1.15.193 1.728.097.59.242 1.17.43 1.729.189.586.45 1.113.763 1.57.334.48.75.87 1.244 1.16.508.3 1.102.452 1.769.452.665 0 1.258-.152 1.769-.452.49-.29.91-.68 1.238-1.16.317-.457.574-.984.77-1.57.187-.561.332-1.143.426-1.73.096-.577.16-1.161.194-1.732.032-.563.048-1.074.048-1.511 0-.46-.016-.97-.048-1.53a16.34 16.34 0 0 0-.194-1.715 11.093 11.093 0 0 0-.425-1.728 6.256 6.256 0 0 0-.768-1.573 3.995 3.995 0 0 0-1.241-1.161c-.508-.301-1.104-.452-1.77-.452m0 16.462c-.686 0-1.281-.115-1.768-.347a3.958 3.958 0 0 1-1.264-.943 5.246 5.246 0 0 1-.886-1.41 10.387 10.387 0 0 1-.567-1.767 13.775 13.775 0 0 1-.287-1.93 24.799 24.799 0 0 1-.081-1.906c0-.618.029-1.263.08-1.92.053-.656.149-1.3.288-1.917.138-.62.33-1.211.567-1.77a5.122 5.122 0 0 1 .886-1.406 3.81 3.81 0 0 1 1.264-.947c.487-.232 1.082-.351 1.769-.351.683 0 1.282.119 1.769.35.488.232.915.554 1.263.948.36.405.658.88.885 1.407.235.553.428 1.147.567 1.769.138.626.237 1.269.289 1.917.052.657.077 1.302.077 1.92 0 .597-.025 1.237-.077 1.906a14.142 14.142 0 0 1-.29 1.935 10.332 10.332 0 0 1-.566 1.762c-.227.53-.527 1-.885 1.41a3.976 3.976 0 0 1-1.263.943c-.487.232-1.085.347-1.77.347m0-17.776c-.847 0-1.598.157-2.233.452a5.074 5.074 0 0 0-1.624 1.219 6.312 6.312 0 0 0-1.082 1.726 10.811 10.811 0 0 0-.636 1.97c-.152.68-.257 1.383-.312 2.09a24.96 24.96 0 0 0-.084 2.016c0 .63.028 1.302.084 2 .055.715.16 1.425.312 2.102.152.687.367 1.35.636 1.974.279.648.64 1.226 1.082 1.725.449.507.997.918 1.624 1.215.633.297 1.383.452 2.234.452.847 0 1.598-.155 2.23-.452a5.06 5.06 0 0 0 1.626-1.215 6.41 6.41 0 0 0 1.085-1.725c.264-.618.478-1.284.635-1.974.152-.684.257-1.39.31-2.102.057-.698.084-1.37.084-2 0-.648-.027-1.328-.084-2.015a14.75 14.75 0 0 0-.31-2.09 11.302 11.302 0 0 0-.638-1.971 6.288 6.288 0 0 0-1.082-1.726 5.094 5.094 0 0 0-1.626-1.22c-.632-.294-1.383-.451-2.23-.451M719.926 296.262h-.026l-2.958-2.55-.855 1.117 4.046 3.476h1.18v-17.194h-1.387v15.151z" fill="#328f82"/><path d="M720.487 281.695h.265v16.028h-.42l-3.465-2.977.158-.206 2.675 2.304h.762l.025-.581v-14.568zm1.386-1.165h-2.507v14.516l-2.505-2.158-1.554 2.029 4.625 3.968h1.94V280.53zM734.934 290.194a3.54 3.54 0 0 1-1.503-.32 3.773 3.773 0 0 1-1.215-.86 3.95 3.95 0 0 1-.819-1.287 4.092 4.092 0 0 1-.302-1.565c0-.597.093-1.144.277-1.64.184-.494.445-.915.787-1.276a3.525 3.525 0 0 1 1.215-.825c.473-.191.99-.29 1.56-.29.57 0 1.09.099 1.563.29.47.196.873.468 1.213.825.34.36.601.782.785 1.276.185.496.275 1.043.275 1.64a4.146 4.146 0 0 1-1.12 2.852 3.692 3.692 0 0 1-1.226.86 3.544 3.544 0 0 1-1.49.32m-2.128.53h.049c.275.243.649.428 1.119.55.47.12.905.18 1.308.18a4.89 4.89 0 0 0 2.011-.41 4.913 4.913 0 0 0 1.596-1.13 5.094 5.094 0 0 0 1.041-1.677 5.737 5.737 0 0 0 .371-2.075c0-.778-.136-1.495-.404-2.15a5.085 5.085 0 0 0-1.127-1.69 5.145 5.145 0 0 0-1.695-1.102 5.657 5.657 0 0 0-2.141-.401c-.773 0-1.483.135-2.137.4a5.146 5.146 0 0 0-1.702 1.104 5.057 5.057 0 0 0-1.122 1.69 5.655 5.655 0 0 0-.403 2.149c0 .455.045.88.137 1.286.095.406.216.789.37 1.155.155.364.318.705.484 1.033.174.323.342.63.511.92l4.44 7.75h1.758l-4.464-7.581z" fill="#328f82"/><path d="M734.934 289.61c-.46 0-.89-.09-1.277-.266a3.296 3.296 0 0 1-1.043-.738 3.551 3.551 0 0 1-.958-2.444c0-.525.081-1.003.239-1.43.155-.415.38-.776.66-1.073a2.974 2.974 0 0 1 1.025-.695c.8-.333 1.903-.333 2.711 0 .4.163.734.39 1.021.695.284.297.506.66.661 1.074.159.426.24.904.24 1.429a3.552 3.552 0 0 1-.959 2.444c-.292.31-.648.558-1.05.734a3.04 3.04 0 0 1-1.27.27m.896 8.113l-4.277-7.464a21.745 21.745 0 0 1-.499-.904 14.334 14.334 0 0 1-.465-.987 6.061 6.061 0 0 1-.335-1.054 4.958 4.958 0 0 1-.122-1.152c0-.695.118-1.338.357-1.922.236-.578.57-1.08.993-1.493a4.632 4.632 0 0 1 1.518-.984c1.174-.481 2.692-.481 3.869 0a4.694 4.694 0 0 1 1.521.984c.419.413.751.915.992 1.493.236.584.358 1.227.358 1.922 0 .664-.112 1.29-.331 1.862a4.376 4.376 0 0 1-2.338 2.484c-.839.376-1.769.51-2.96.199a1.248 1.248 0 0 1-.173-.047 4.32 4.32 0 0 0 2.71-.246 4.42 4.42 0 0 0 1.402-.991 4.74 4.74 0 0 0 1.283-3.261c0-.67-.105-1.292-.316-1.85a4.277 4.277 0 0 0-.908-1.472 4.072 4.072 0 0 0-1.408-.958c-1.07-.44-2.469-.44-3.533 0a3.99 3.99 0 0 0-1.406.958c-.393.41-.698.905-.908 1.473a5.164 5.164 0 0 0-.319 1.849c0 .625.115 1.229.347 1.793.226.56.54 1.052.935 1.468.268.278.564.524.893.723h-.854l.473.883 3.942 6.694h-.441zm-.896-17.487c-.835 0-1.625.153-2.344.442a5.728 5.728 0 0 0-1.879 1.227 5.569 5.569 0 0 0-1.251 1.88 6.188 6.188 0 0 0-.449 2.377c0 .498.051.976.151 1.42.102.442.237.864.406 1.256.152.375.325.734.503 1.073.174.333.348.648.522.948l4.599 8.026h3.077l-4.108-6.97c1.291.264 2.368.1 3.354-.336a5.568 5.568 0 0 0 1.774-1.258 5.748 5.748 0 0 0 1.162-1.863 6.427 6.427 0 0 0 .408-2.296c0-.855-.152-1.653-.449-2.377a5.583 5.583 0 0 0-1.251-1.88 5.75 5.75 0 0 0-1.879-1.227 6.27 6.27 0 0 0-2.346-.442" fill="#328f82"/><path d="M431.118 342.204h311M431.118 269.204h311" fill="none" stroke="#ffffff" stroke-width="2" stroke-miterlimit="10"/><path d="M430.188 366.277c0 10.036 6.205 15.27 14.01 15.27 2.627 0 6.206-.82 8.11-2.148l-.61-3.008c-1.94 1.172-4.834 2.11-7.196 2.11-6.053 0-10.546-4.023-10.546-12.185 0-8.044 5.027-11.559 10.813-11.559 2.551 0 5.178.625 7.501 1.835l.381-2.929c-2.475-1.366-5.369-2.03-8.263-2.03-7.233 0-14.2 4.412-14.2 14.644M486.236 366.824c0 7.185-3.351 11.794-9.595 11.794-6.244 0-9.404-4.96-9.404-11.91 0-7.148 3.16-12.107 9.404-12.107 6.169 0 9.595 4.452 9.595 12.223m-22.731-.117c0 8.005 4.227 14.84 13.212 14.84 9.062 0 13.25-6.874 13.25-14.762 0-8.513-4.341-15.152-13.212-15.152-8.946 0-13.25 6.795-13.25 15.074M524.505 351.633c-3.77 5.428-13.897 18.628-18.162 23.705h-.228v-23.392h-3.388v29.288h2.93c3.999-4.686 12.756-15.777 17.21-21.986h.152v21.986h3.465v-29.25l-1.98-.351zM540.196 381.234h14.506v-2.929h-11.003v-10.232h8.87l-.38-2.85h-8.49v-13.278h-3.503v29.29zM566.736 381.234h14.468v-2.929H570.24v-10.153h8.452l-.38-2.812h-8.072v-10.466h11.231v-2.929h-14.734v29.29zM597.731 367.137h2.741c4.227 0 6.854 1.562 6.854 5.857 0 3.789-2.209 5.312-6.283 5.312h-3.312v-11.17zm16.676-15.191c-.609-.156-1.37-.313-2.017-.313-1.524 0-2.362.352-3.198 1.367-1.219 1.406-4.569 6.756-6.739 11.286h-4.722v-12.34h-3.503v29.289h7.463c5.94 0 9.213-2.773 9.213-8.162 0-3.788-1.447-6.131-5.1-7.733 1.102-2.186 3.235-6.248 5.785-9.645.915-1.211 1.486-1.367 2.4-1.367h.418v-2.382zM625.909 381.234h14.468v-2.929h-10.965v-10.153h8.452l-.38-2.812h-8.072v-10.466h11.231v-2.929h-14.734v29.29zM675.18 351.633c-3.77 5.428-13.897 18.628-18.162 23.705h-.228v-23.392h-3.388v29.288h2.93c3.999-4.686 12.756-15.777 17.21-21.986h.152v21.986h3.465v-29.25l-1.98-.351zM689.729 366.277c0 10.036 6.205 15.27 14.01 15.27 2.627 0 6.206-.82 8.109-2.148l-.61-3.008c-1.94 1.172-4.834 2.11-7.196 2.11-6.053 0-10.546-4.023-10.546-12.185 0-8.044 5.027-11.559 10.813-11.559 2.551 0 5.178.625 7.501 1.835l.38-2.929c-2.474-1.366-5.368-2.03-8.262-2.03-7.233 0-14.2 4.412-14.2 14.644M724.759 381.234h14.468v-2.929h-10.965v-10.153h8.452l-.381-2.812h-8.071v-10.466h11.231v-2.929h-14.734v29.29zM430.751 399.622v16.458h3.241v-16.569c0-5.707 3.629-8.468 7.399-8.468 3.666 0 7.294 2.725 7.294 8.468v16.57h3.242v-16.643c0-7.622-5.004-11.267-10.571-11.267-5.531 0-10.605 3.645-10.605 11.451M476.49 388.171c-3.489 5.118-12.86 17.563-16.807 22.35h-.212v-22.056h-3.136v27.616h2.714c3.7-4.419 11.802-14.876 15.925-20.73h.142v20.73h3.206v-27.579l-1.833-.331z" fill="#ffffff"/><path d="M497.58 393.366c3.083 0 4.479 1.72 4.479 3.963 0 2.468-1.725 3.702-4.808 3.702h-2.717v-7.665h3.046zm-1.101 11.852c2.533 0 4.148 1.57 4.148 3.813 0 2.206-1.212 3.29-3.671 3.29h-2.422v-7.103h1.945zm-8.955 11.628h10.68c4.992 0 9.653-1.234 9.653-7.03 0-3.065-1.688-5.01-4.147-5.907v-.261c3.047-.823 5.579-2.693 5.579-6.917 0-4.524-2.9-7.926-10.094-7.926h-11.671v28.04zM511.779 416.845h7.047v-28.041h-7.047v28.041zM542.165 402.9c0 6.28-2.31 9.196-6.606 9.196-4.405 0-6.533-3.215-6.533-9.272 0-5.832 2.128-9.197 6.533-9.197 4.367 0 6.606 3.215 6.606 9.272m-20.479-.075c0 8.861 4.624 14.432 13.91 14.432 9.212 0 13.91-5.534 13.91-14.245 0-9.42-5.213-14.619-13.91-14.619-8.699 0-13.91 5.347-13.91 14.432M559.41 394.15h3.45c4.919 0 7.268 3.329 7.268 8.75 0 6.318-2.863 8.562-7.452 8.562h-3.266V394.15zm-7.047 22.696h11.23c9.47 0 14.095-5.123 14.095-14.058 0-9.123-5.065-13.983-13.837-13.983h-11.488v28.04zM580.544 416.845h7.047v-28.041h-7.047v28.041zM599.628 388.804c-1.799 4.187-7.708 20.19-10.094 28.041h7.414c1.47-5.085 3.744-12.637 6.203-19.89h.22c2.642 7.178 5.102 15.441 6.313 19.89h7.378c-2.166-7.14-8.552-24.265-10.24-28.04h-7.194zM619 416.845h16.774v-5.347h-9.691v-6.169h7.268l-.624-4.71h-6.644v-6.43h9.837v-5.385H619v28.041zM645.826 404.096h1.76c2.828 0 4.553 1.122 4.553 3.889 0 2.617-1.58 3.514-4.295 3.514h-2.018v-7.403zm16.039-15.292c-.844-.224-2.386-.411-3.413-.411-1.836 0-3.156.262-4.441 1.682-1.248 1.422-3.597 5.123-5.58 8.86h-2.605v-10.131h-7.047v28.042h10.13c6.68 0 10.313-2.842 10.313-8.45 0-3.814-1.468-5.945-4.367-7.553.917-1.607 2.459-4.112 4.038-6.131.88-.972 1.614-1.122 2.495-1.122h.477v-4.786zM662.667 390.786l1.027 5.534c2.13-1.347 5.396-2.468 8.26-2.468 2.568 0 4.11.86 4.11 2.617 0 2.468-3.965 3.216-7.56 5.234-2.937 1.645-5.434 3.403-5.434 7.515 0 5.422 4.002 8.039 10.204 8.039 2.68 0 6.203-.711 8.552-1.832l-1.248-5.235c-1.799.86-4.55 1.533-6.826 1.533-2.203 0-3.524-.71-3.524-2.355 0-2.318 4.771-3.178 8.515-5.496 2.35-1.458 4.074-3.29 4.074-6.842 0-6.431-4.919-8.637-10.57-8.637-3.78 0-7.267 1.01-9.58 2.393M685.859 416.845h7.047v-28.041h-7.047v28.041zM703.913 411.498h-8.514v5.347h24.114v-5.347h-8.516v-22.694h-7.084v22.694zM729.085 400.619c-1.982 3.178-4.734 7.478-5.982 9.197-.918 1.234-1.651 1.683-2.68 1.683v5.309c.845.112 1.653.15 2.753.15 2.276 0 3.89-.674 5.469-3.253.293-.486 3.523-5.944 3.89-6.618h.184c1.395 2.206 2.973 5.459 5.138 9.759h7.67c-2.898-5.422-7.45-12.974-9.431-16.152v-11.89h-7.011v11.815z" fill="#3ca79b"/><path d="M721.327 411.487h-4.562v5.356h4.562v-5.356z" fill="#3ca79b"/></g><text xmlns="http://www.w3.org/2000/svg" style="filter:url(#dropshadow);-inkscape-font-specification:Arial-BoldMT" transform="matrix(1.25 0 0 1.25 4.583 215.344)" font-weight="700" font-size="12.53" font-family="Arial" fill="#ffffff"><tspan y="0" x="0 10.437407 19.483995 22.967306 32.013893 40.371338 48.027107 57.073696 65.431137 74.477722 84.915131 88.398445 97.44503 107.19329 110.67661 119.7232 123.2065 132.95477 142.00136 145.48466 153.84212 162.19955 171.24614 179.60359 183.0869 190.74266 198.87332 202.35663 210.01241 219.76067 228.80725 232.29056 244.11879 252.47623 260.13199 267.78778 271.96024 281.00681 289.36426 292.84756 301.89417">MAINSTREAMING BIODIVERSITY FOR WELL-BEING</tspan></text></svg>
