<svg id="Layer_1" data-name="Layer 1" xmlns="http://www.w3.org/2000/svg" viewBox="0 0 122.4 122.4"><defs><style>.cls-1{fill:#fff;}.cls-2{fill:#e6c71e;}.cls-3{fill:#1787b7;}.cls-4{fill:#9f5d26;}.cls-5{fill:#119b49;}.cls-6{fill:#0285b6;}.cls-7{fill:#e87847;}.cls-8{fill:#9e5a25;}.cls-9{fill:#e067a6;}.cls-10{fill:#009a49;}.cls-11{fill:#e464a4;}.cls-12{fill:#fbfcf8;}.cls-13{fill:#e6c81d;}.cls-14{fill:#fcfaf9;}.cls-15{fill:#1c9d4a;}</style></defs><path class="cls-1" d="M67.91,38.05V68.69c0,.21,0,.41,0,.62,0,0-.07.1-.11.11H7a2.92,2.92,0,0,1-.66,0s-.06,0-.08-.07a.25.25,0,0,1,0-.1c0-.21,0-.41,0-.62V15.43a4.21,4.21,0,0,1,0-.62l0-.28a7.82,7.82,0,0,1,.4-1.8,8.89,8.89,0,0,1,4.52-5.19,8.08,8.08,0,0,1,2.24-.74,10.23,10.23,0,0,1,1.65-.15c.2,0,.4,0,.6,0H67.09a4.85,4.85,0,0,1,.66,0,.16.16,0,0,1,.15.14.91.91,0,0,1,0,.17c0,.18,0,.37,0,.56Zm-1.15,0v-30a.52.52,0,0,1,0-.11s-.08-.11-.11-.11l-.66,0H15.12a8.11,8.11,0,0,0-1.21.09,7.61,7.61,0,0,0-5.4,3.69,7.48,7.48,0,0,0-1.09,3.66c0,.34,0,.68,0,1q0,25.59,0,51.18c0,.14,0,.29,0,.44v.17a.36.36,0,0,0,0,.11s.08.12.11.12H66.6a.17.17,0,0,0,.14-.14,3.19,3.19,0,0,0,0-.62Z" transform="translate(-6.25 -6.64)"/><path class="cls-2" d="M66.76,38.07V67.52a3.19,3.19,0,0,1,0,.62.17.17,0,0,1-.14.14H7.54s-.1-.09-.11-.12a.36.36,0,0,1,0-.11v-.17c0-.15,0-.3,0-.44q0-25.59,0-51.18c0-.33,0-.67,0-1a7.48,7.48,0,0,1,1.09-3.66,7.61,7.61,0,0,1,5.4-3.69,8.11,8.11,0,0,1,1.21-.09H66l.66,0s.1.07.11.11a.52.52,0,0,0,0,.11v30Z" transform="translate(-6.25 -6.64)"/><path class="cls-1" d="M97.82,69.44H67.12a.15.15,0,0,1-.11-.11,1,1,0,0,1,0-.17V6.84a.19.19,0,0,1,.22-.19h52.14l1.1,0a6,6,0,0,1,1.2.17,8.47,8.47,0,0,1,3.26,1.44,8.9,8.9,0,0,1,3.41,4.9,10,10,0,0,1,.23,1.09,9.34,9.34,0,0,1,.1,1.29v53.1a5,5,0,0,1,0,.67.15.15,0,0,1-.11.11H97.82Zm0-1.14h29.54a.18.18,0,0,0,.14-.15c0-.22,0-.45,0-.67V16.28c0-.25,0-.49,0-.73a12.15,12.15,0,0,0-.13-1.34,8.76,8.76,0,0,0-.54-1.76A7.89,7.89,0,0,0,123.94,9a8.23,8.23,0,0,0-1.32-.68,6.7,6.7,0,0,0-1.37-.4,7.12,7.12,0,0,0-1.59-.13H68.34l-.11,0s-.09.08-.1.12a5,5,0,0,0,0,.67V67.94c0,.06,0,.11,0,.17a.18.18,0,0,0,.17.18H97.83Z" transform="translate(-6.25 -6.64)"/><path class="cls-3" d="M97.83,68.3H68.29a.18.18,0,0,1-.17-.18c0-.06,0-.11,0-.17V8.61a5,5,0,0,1,0-.67s.07-.12.1-.12l.11,0h51.32a7.12,7.12,0,0,1,1.59.13,6.7,6.7,0,0,1,1.37.4,8.23,8.23,0,0,1,1.32.68,7.89,7.89,0,0,1,2.92,3.44,8.76,8.76,0,0,1,.54,1.76,12.15,12.15,0,0,1,.13,1.34c0,.24,0,.48,0,.73V67.47c0,.22,0,.45,0,.67a.18.18,0,0,1-.14.15H97.83Z" transform="translate(-6.25 -6.64)"/><path class="cls-1" d="M67,97.64V67c0-.2,0-.41,0-.61a.17.17,0,0,1,.1-.12l.16,0H128.4c.2,0,.25.07.25.28V120a12.81,12.81,0,0,1-.1,1.39,9.47,9.47,0,0,1-.58,2.1,8.93,8.93,0,0,1-5.51,5.14c-.29.09-.82.21-1.12.27a7.34,7.34,0,0,1-1.48.13H67.7a2.5,2.5,0,0,1-.61,0s-.06,0-.07-.07a.19.19,0,0,1,0-.1V97.64ZM97.78,67.39H68.25a.29.29,0,0,0-.11.11,4.28,4.28,0,0,0,0,.62v59.43a.86.86,0,0,1,0,.16.17.17,0,0,0,.19.16h51.61a9.07,9.07,0,0,0,1.37-.13,9.23,9.23,0,0,0,1.77-.6,7.8,7.8,0,0,0,4.13-4.92,6.58,6.58,0,0,0,.28-1.71c0-.3,0-.6,0-.9V68.11c0-.13,0-.26,0-.39v-.17a.16.16,0,0,0-.14-.15H97.78Z" transform="translate(-6.25 -6.64)"/><path class="cls-4" d="M97.78,67.39h29.57a.16.16,0,0,1,.14.15v.17c0,.13,0,.26,0,.39v51.51c0,.3,0,.6,0,.9a6.58,6.58,0,0,1-.28,1.71,7.8,7.8,0,0,1-4.13,4.92,9.23,9.23,0,0,1-1.77.6,9.07,9.07,0,0,1-1.37.13H68.32a.17.17,0,0,1-.19-.16.86.86,0,0,0,0-.16V68.13a4.28,4.28,0,0,1,0-.62.29.29,0,0,1,.11-.11H97.78Z" transform="translate(-6.25 -6.64)"/><path class="cls-1" d="M67.91,97.64v30.69a3.19,3.19,0,0,1,0,.62.14.14,0,0,1-.08.07.44.44,0,0,1-.16,0H15.58c-.42,0-.84,0-1.26,0a3.31,3.31,0,0,1-.55-.07,4.13,4.13,0,0,1-.7-.14,8.49,8.49,0,0,1-3.18-1.47,9,9,0,0,1-3.22-4.51,8.59,8.59,0,0,1-.41-2.26c0-.16,0-.33,0-.5V67c0-.23,0-.45,0-.68,0,0,.07-.1.1-.11H67.15l.66,0s.06,0,.08.07a.36.36,0,0,1,0,.11v31.2Zm-1.13,0v-30a.2.2,0,0,0,0-.11.12.12,0,0,0-.07-.07,3.64,3.64,0,0,0-.66,0H7.51s-.1.08-.11.12a3.47,3.47,0,0,0,0,.56v52.13a7,7,0,0,0,.26,1.88,7.7,7.7,0,0,0,3.71,4.81,7.21,7.21,0,0,0,3.63,1H66.5l.17,0s.1-.07.1-.11c0-.21,0-.41,0-.62Z" transform="translate(-6.25 -6.64)"/><path class="cls-5" d="M66.78,97.63v29.52c0,.21,0,.41,0,.62,0,0-.06.11-.1.11l-.17,0H15a7.21,7.21,0,0,1-3.63-1,7.7,7.7,0,0,1-3.71-4.81,7,7,0,0,1-.26-1.88V68.1a3.47,3.47,0,0,1,0-.56s.07-.12.11-.12H66a3.64,3.64,0,0,1,.66,0,.12.12,0,0,1,.07.07.2.2,0,0,1,0,.11v30Z" transform="translate(-6.25 -6.64)"/><path class="cls-1" d="M59.32,46.14a13.06,13.06,0,0,1-.08,1.46.72.72,0,0,1-.22.45.93.93,0,0,1-1,.32.11.11,0,0,0-.14.07c-.14.32-.28.64-.4,1s-.1.41-.15.61c-.31,1.47-.66,2.92-1.05,4.37a23.18,23.18,0,0,0-.51,2.74c0,.3-.08.61-.12.92a3.65,3.65,0,0,0,0,.66c0,.14,0,.17.18.2.34.08.69.14,1,.23a5,5,0,0,1,2.85,1.95,4.68,4.68,0,0,1,.86,3.68l-.05.39-.06.34a1.34,1.34,0,0,1,0,.31c0,.18-.09.5-.09.5a14.54,14.54,0,0,1-2.21,5,18.06,18.06,0,0,1-1.84,2.25L54.9,75A10.9,10.9,0,0,0,53,77.68c-.2.41-.39.83-.58,1.24a12.83,12.83,0,0,1-.64,1.22,5.72,5.72,0,0,1-1.38,1.56,3.64,3.64,0,0,1-2.27.79,7.46,7.46,0,0,0-.95.06,2,2,0,0,0-.88.33,4,4,0,0,0-.58.51c-.28.28-.55.57-.82.85A14.39,14.39,0,0,1,41.1,87a5.38,5.38,0,0,1-1.44.51,3.23,3.23,0,0,1-2.87-.73,6.15,6.15,0,0,1-.61-.64c-.25-.3-.51-.6-.75-.91a3.69,3.69,0,0,0-2-1.33l-1.62-.44a5.76,5.76,0,0,1-1.32-.52,4.51,4.51,0,0,1-1.58-1.4,10.13,10.13,0,0,1-.76-1.31l-.66-1.37a8.62,8.62,0,0,0-.6-1.07,3.84,3.84,0,0,0-1.45-1.32c-.43-.22-.89-.4-1.33-.6s-.6-.27-.9-.42a3.63,3.63,0,0,1-1.14-1A11.33,11.33,0,0,1,21,72.84a29.75,29.75,0,0,1-2.54-6.15c-.12-.39-.24-.78-.39-1.16a3.4,3.4,0,0,1-.12-2.43,3.73,3.73,0,0,1,.86-1.41,7.86,7.86,0,0,1,1.75-1.45,13.94,13.94,0,0,1,4.79-1.92c.33-.06.67-.1,1-.15a.67.67,0,0,0,.24-.07.22.22,0,0,0,.12-.13,1.11,1.11,0,0,0,0-.48,5.34,5.34,0,0,0-.29-1.11,16.29,16.29,0,0,0-1.1-2.31,18.76,18.76,0,0,1-1.83-4.56,12,12,0,0,1-.33-1.79,6.37,6.37,0,0,0-.83-2.51,8.81,8.81,0,0,0-1.93-2.32,15.15,15.15,0,0,0-2.12-1.52A6.46,6.46,0,0,0,16,40.54a8,8,0,0,0-1.09-.1,6.09,6.09,0,0,1-1.59-.21,7,7,0,0,1-2.27-1.16,3.46,3.46,0,0,1-.48-.46,1.74,1.74,0,0,1-.35-.64,1.18,1.18,0,0,1,.15-1.06,1.94,1.94,0,0,1,.49-.5,15.44,15.44,0,0,1,1.73-1.17l1.68-1A1.15,1.15,0,0,0,14.6,34,2.71,2.71,0,0,1,16,33a4,4,0,0,1,1-.23.42.42,0,0,0,.3-.18,5.62,5.62,0,0,1,.55-.64,2.06,2.06,0,0,1,.53-.4,1.35,1.35,0,0,1,1.16,0,1.11,1.11,0,0,1,.64.68,1.27,1.27,0,0,1,.06.18,1.06,1.06,0,0,0,.89.82c.21.06.43.08.64.12a9.36,9.36,0,0,1,1.71.52c.32.12.64.24,1,.38a4.81,4.81,0,0,0,1.66.4c.53,0,1.06.12,1.59.2.19,0,.38.07.58.09a4.38,4.38,0,0,1,1.31.43c.54.27,1.09.5,1.64.72a2.49,2.49,0,0,0,1.68.11c1-.3,2.11-.48,3.17-.72l1.77-.41a16.52,16.52,0,0,1,2.1-.27c1-.07,1.92-.07,2.88-.12s2.09-.05,3.14,0a12.27,12.27,0,0,1,1.92.22c.69.12,1.39.26,2.07.43a9.71,9.71,0,0,1,3,1.3l.86.56a5.68,5.68,0,0,0,1.46.67,4.15,4.15,0,0,1,2.33,1.75,9.43,9.43,0,0,1,1.09,2.26A12.87,12.87,0,0,1,59.32,46.14Zm-.74,21.75-.13.07a8.89,8.89,0,0,1-2.1,1.19c-.7.29-1.41.53-2.13.76A21.48,21.48,0,0,0,51.42,71c-.73.35-1.43.75-2.13,1.15s-1.4.81-2.12,1.17A14,14,0,0,1,42,74.85a11.41,11.41,0,0,1-3.73-.29,14.74,14.74,0,0,1-3.12-1.25c-.9-.46-1.77-1-2.65-1.49s-1.66-.95-2.52-1.34a13.71,13.71,0,0,0-3.74-1.09c-.92-.12-1.84-.23-2.75-.37A9.43,9.43,0,0,1,20.2,68s-.08-.06-.13,0a.64.64,0,0,0,.07.27c.27.76.57,1.5.91,2.23a20.57,20.57,0,0,0,1.45,2.7,7.71,7.71,0,0,0,.53.71,2.26,2.26,0,0,0,.53.45,7.38,7.38,0,0,0,1.05.53c.34.14.67.28,1,.44A5.34,5.34,0,0,1,28,77.39a11.21,11.21,0,0,1,.58,1.08c.2.41.39.83.59,1.24a8.29,8.29,0,0,0,.64,1.12,3.51,3.51,0,0,0,1.52,1.23,6.75,6.75,0,0,0,.83.28c.55.15,1.11.29,1.66.45a4.78,4.78,0,0,1,2.44,1.61l.58.72a7.19,7.19,0,0,0,.76.8,2,2,0,0,0,1.7.47,5,5,0,0,0,1.41-.5,12.9,12.9,0,0,0,3.56-2.63l.61-.63a5.59,5.59,0,0,1,.78-.68,3,3,0,0,1,1.74-.59c.33,0,.65,0,1,0a2.44,2.44,0,0,0,1.37-.55,4.18,4.18,0,0,0,.95-1,8.62,8.62,0,0,0,.6-1.07l.61-1.3a12.28,12.28,0,0,1,2.45-3.49c.42-.42.83-.84,1.24-1.27a15.06,15.06,0,0,0,2.16-2.85,12.37,12.37,0,0,0,.89-1.83s0-.06,0-.08S58.59,67.86,58.58,67.89ZM58,46.24a.55.55,0,0,0,.05-.29c0-.29,0-.57,0-.86a12.92,12.92,0,0,0-.57-2.68,8.74,8.74,0,0,0-1-2.14,3,3,0,0,0-1.65-1.22A7.08,7.08,0,0,1,53,38.19l-.83-.54a8.11,8.11,0,0,0-2.47-1.08c-.37-.09-.74-.18-1.1-.25-.65-.13-1.3-.26-1.95-.33a20,20,0,0,0-2.19-.09c-1.55,0-3.11.07-4.67.17a11.25,11.25,0,0,0-1.91.26l-1.35.32c-1.16.27-2.34.47-3.49.78a3.51,3.51,0,0,1-2.26-.14A18,18,0,0,1,29,36.53a3.65,3.65,0,0,0-.89-.32,20.61,20.61,0,0,0-2.21-.31,6.27,6.27,0,0,1-2.08-.5c-.49-.22-1-.39-1.5-.58a8.61,8.61,0,0,0-1.42-.33A2.32,2.32,0,0,1,19,32.84c0-.15-.12-.16-.24-.06a2.61,2.61,0,0,0-.43.45l-.34.44a.89.89,0,0,1-.59.33,2.3,2.3,0,0,1-.26,0,4.07,4.07,0,0,0-.91.24,1.43,1.43,0,0,0-.71.57,1,1,0,0,1-.36.35c-.62.4-1.25.77-1.9,1.13a14.8,14.8,0,0,0-1.44.94l-.23.18c-.2.17-.2.21,0,.41a2.67,2.67,0,0,0,.45.38,5.09,5.09,0,0,0,2.91,1,8.74,8.74,0,0,1,1.13.09,7.92,7.92,0,0,1,3,1.09,16.22,16.22,0,0,1,2.08,1.51,9.93,9.93,0,0,1,2.43,3,7,7,0,0,1,.79,2.45,14.08,14.08,0,0,0,.24,1.47,17.28,17.28,0,0,0,1.78,4.62c.19.34.38.69.56,1a12.73,12.73,0,0,1,.86,2.17,3.51,3.51,0,0,1,.12,1.61,2.18,2.18,0,0,1-1.15,1.67,5.54,5.54,0,0,0-.65.42c-.05,0-.11,0-.09.15l.36.06,1.22.19a12.89,12.89,0,0,0,2.4.2l2.15,0a2.33,2.33,0,0,0,.37,0,1.05,1.05,0,0,0,.76-.63,1.25,1.25,0,0,0,.11-.39,3.28,3.28,0,0,1,.24-.81,3,3,0,0,0,.14-.39c.27-.79.53-1.59.82-2.38a3.34,3.34,0,0,0,.19-1.17c0-.34,0-.69,0-1a15.16,15.16,0,0,0-.09-1.78,18.36,18.36,0,0,0-.46-2.75,1.75,1.75,0,0,1,0-.33.56.56,0,0,1,.48-.56.55.55,0,0,1,.61.35c0,.1.06.19.09.29A22.11,22.11,0,0,1,35.89,53c0,.2,0,.4,0,.59a.13.13,0,0,0,.13.15,12.08,12.08,0,0,1,1.58.25,8.6,8.6,0,0,0,2,.16,11,11,0,0,0,1.52-.17,5.09,5.09,0,0,1,1.46-.11c.13,0,.15,0,.16-.17a7.11,7.11,0,0,1,.15-1.14,5.79,5.79,0,0,1,1.76-3.19,3.11,3.11,0,0,1,.28-.23.57.57,0,0,1,.76.12.61.61,0,0,1-.07.81l-.16.15A4.7,4.7,0,0,0,44,53a11.13,11.13,0,0,0-.08,1.63,2.52,2.52,0,0,0,0,.48,3,3,0,0,1-.29,2.23c-.14.26-.3.51-.46.76a2.85,2.85,0,0,1-1.65,1.26c-.42.12-.83.3-1.24.46a.58.58,0,0,0-.36.34,2,2,0,0,0-.14.84.13.13,0,0,0,.11.12h.19c1.31,0,2.62.09,3.94.08s2.65,0,4-.07a3.62,3.62,0,0,0,.86-.16.79.79,0,0,0,.47-.43,3.61,3.61,0,0,0,.37-1.76,2.82,2.82,0,0,1,.5-1.79,7.73,7.73,0,0,1,.7-.9c.29-.34.59-.66.86-1,.51-.68,1-1.33,1.62-2,.24-.26.45-.54.67-.83.7-1,1.36-1.93,2-2.92a6,6,0,0,0,.81-1.81c.06-.22.13-.43.21-.64A.85.85,0,0,1,58,46.24Zm-33.1,13.4-.23,0a12.37,12.37,0,0,0-4.11,2,7.37,7.37,0,0,0-.94.82,3.3,3.3,0,0,0-.55.79A2.07,2.07,0,0,0,19,64.69a3.36,3.36,0,0,0,1.19,1.82,5.71,5.71,0,0,0,1.4.8,11.34,11.34,0,0,0,2.76.66c.91.13,1.83.22,2.74.39a12.7,12.7,0,0,1,2.77.79,23.52,23.52,0,0,1,2.36,1.17l2.45,1.4a20.05,20.05,0,0,0,2.22,1.12,10.42,10.42,0,0,0,3.45.86A11.12,11.12,0,0,0,44,73.29,13.59,13.59,0,0,0,47,72c.82-.44,1.62-.91,2.43-1.36A19.57,19.57,0,0,1,53.26,69c.64-.2,1.27-.42,1.91-.64a10.81,10.81,0,0,0,2-.89,5.83,5.83,0,0,0,1.26-1,3.9,3.9,0,0,0,1-2.24,3.45,3.45,0,0,0-.77-2.6,4.24,4.24,0,0,0-2.81-1.5l-.12.4A2,2,0,0,1,54,61.94a15.07,15.07,0,0,1-1.9,0l-1.93-.14a.48.48,0,0,0-.31.06,3.1,3.1,0,0,1-1.56.48c-.6,0-1.21.09-1.82.09-2.23,0-4.45,0-6.68-.09l-.87-.05c-.15,0-.15,0-.19-.18a4.38,4.38,0,0,1-.11-1.69,2.83,2.83,0,0,1,.19-.76,1.74,1.74,0,0,1,1-1l.24-.1,1.34-.49a1.29,1.29,0,0,0,.58-.37,4.87,4.87,0,0,0,.78-1.25,1.69,1.69,0,0,0,0-1.09.36.36,0,0,0-.36-.31H42l-1.41.2a10.36,10.36,0,0,1-1.93.07,19.33,19.33,0,0,1-2-.3L36.18,55c-.11,0-.15,0-.15.15a.17.17,0,0,0,0,.07,4,4,0,0,1-.3,1.56l-.29.84c-.21.63-.43,1.26-.65,1.89a3.7,3.7,0,0,0-.16.57A2.55,2.55,0,0,1,34,61.4a2.42,2.42,0,0,1-1.81.75l-2,0A13.74,13.74,0,0,1,27.47,62c-.83-.14-1.66-.27-2.5-.33a.49.49,0,0,1-.21,0,.15.15,0,0,1-.11-.09,2.34,2.34,0,0,1-.14-1A1.61,1.61,0,0,1,24.94,59.64Zm30.53-7.15-.22.29a33.81,33.81,0,0,1-2.35,3L51.82,57a7.34,7.34,0,0,0-.59.76,1.59,1.59,0,0,0-.27,1,4.34,4.34,0,0,1-.16,1.43c0,.13-.07.26-.1.39a.53.53,0,0,0,.32.08,16.82,16.82,0,0,0,2.84,0,.81.81,0,0,0,.74-.74,1.91,1.91,0,0,0-.07-.63A3.66,3.66,0,0,1,54.46,58c0-.3.07-.59.11-.88.13-.86.25-1.72.45-2.56.15-.6.31-1.2.47-1.8C55.5,52.65,55.55,52.58,55.47,52.49Z" transform="translate(-6.25 -6.64)"/><path class="cls-6" d="M58,46.24a.85.85,0,0,0-.93.67c-.08.21-.15.42-.21.64a6,6,0,0,1-.81,1.81c-.66,1-1.32,2-2,2.92-.22.29-.43.57-.67.83-.57.64-1.11,1.29-1.62,2-.27.36-.57.68-.86,1a7.73,7.73,0,0,0-.7.9,2.82,2.82,0,0,0-.5,1.79,3.61,3.61,0,0,1-.37,1.76.79.79,0,0,1-.47.43,3.62,3.62,0,0,1-.86.16c-1.33.1-2.65.06-4,.07s-2.63-.06-3.94-.08h-.19A.13.13,0,0,1,39.8,61a2,2,0,0,1,.14-.84.58.58,0,0,1,.36-.34c.41-.16.82-.34,1.24-.46a2.85,2.85,0,0,0,1.65-1.26c.16-.25.32-.5.46-.76a3,3,0,0,0,.29-2.23,2.52,2.52,0,0,1,0-.48A11.13,11.13,0,0,1,44,53a4.7,4.7,0,0,1,1.49-2.82l.16-.15a.61.61,0,0,0,.07-.81.57.57,0,0,0-.76-.12,3.11,3.11,0,0,0-.28.23,5.79,5.79,0,0,0-1.76,3.19,7.11,7.11,0,0,0-.15,1.14c0,.16,0,.19-.16.17a5.09,5.09,0,0,0-1.46.11,11,11,0,0,1-1.52.17,8.6,8.6,0,0,1-2-.16,12.08,12.08,0,0,0-1.58-.25.13.13,0,0,1-.13-.15c0-.19,0-.39,0-.59a22.11,22.11,0,0,0-.53-3.71c0-.1,0-.19-.09-.29a.55.55,0,0,0-.61-.35.56.56,0,0,0-.48.56,1.75,1.75,0,0,0,0,.33,18.36,18.36,0,0,1,.46,2.75A15.16,15.16,0,0,1,34.77,54c0,.35,0,.7,0,1a3.34,3.34,0,0,1-.19,1.17c-.29.79-.55,1.59-.82,2.38a3,3,0,0,1-.14.39,3.28,3.28,0,0,0-.24.81,1.25,1.25,0,0,1-.11.39,1.05,1.05,0,0,1-.76.63,2.33,2.33,0,0,1-.37,0l-2.15,0a12.89,12.89,0,0,1-2.4-.2l-1.22-.19L26,60.47c0-.1,0-.12.09-.15a5.54,5.54,0,0,1,.65-.42,2.18,2.18,0,0,0,1.15-1.67,3.51,3.51,0,0,0-.12-1.61,12.73,12.73,0,0,0-.86-2.17c-.18-.35-.37-.7-.56-1a17.28,17.28,0,0,1-1.78-4.62,14.08,14.08,0,0,1-.24-1.47,7,7,0,0,0-.79-2.45,9.93,9.93,0,0,0-2.43-3,16.22,16.22,0,0,0-2.08-1.51,7.92,7.92,0,0,0-3-1.09,8.74,8.74,0,0,0-1.13-.09,5.09,5.09,0,0,1-2.91-1,2.67,2.67,0,0,1-.45-.38c-.18-.2-.18-.24,0-.41l.23-.18a14.8,14.8,0,0,1,1.44-.94c.65-.36,1.28-.73,1.9-1.13a1,1,0,0,0,.36-.35,1.43,1.43,0,0,1,.71-.57,4.07,4.07,0,0,1,.91-.24,2.3,2.3,0,0,0,.26,0,.89.89,0,0,0,.59-.33l.34-.44a2.61,2.61,0,0,1,.43-.45c.12-.1.2-.09.24.06a2.32,2.32,0,0,0,1.93,1.65,8.61,8.61,0,0,1,1.42.33c.5.19,1,.36,1.5.58a6.27,6.27,0,0,0,2.08.5,20.61,20.61,0,0,1,2.21.31,3.65,3.65,0,0,1,.89.32,18,18,0,0,0,1.74.76,3.51,3.51,0,0,0,2.26.14c1.15-.31,2.33-.51,3.49-.78l1.35-.32a11.25,11.25,0,0,1,1.91-.26c1.56-.1,3.12-.15,4.67-.17a20,20,0,0,1,2.19.09c.65.07,1.3.2,1.95.33.36.07.73.16,1.1.25a8.11,8.11,0,0,1,2.47,1.08l.83.54a7.08,7.08,0,0,0,1.85.86,3,3,0,0,1,1.65,1.22,8.74,8.74,0,0,1,1,2.14,12.92,12.92,0,0,1,.57,2.68c0,.29,0,.57,0,.86A.55.55,0,0,1,58,46.24Z" transform="translate(-6.25 -6.64)"/><path class="cls-6" d="M24.94,59.64a1.61,1.61,0,0,0-.43.85,2.34,2.34,0,0,0,.14,1,.15.15,0,0,0,.11.09.49.49,0,0,0,.21,0c.84.06,1.67.19,2.5.33a13.74,13.74,0,0,0,2.72.21l2,0A2.42,2.42,0,0,0,34,61.4a2.55,2.55,0,0,0,.65-1.35,3.7,3.7,0,0,1,.16-.57c.22-.63.44-1.26.65-1.89l.29-.84a4,4,0,0,0,.3-1.56.17.17,0,0,1,0-.07c0-.12,0-.16.15-.15l.54.09a19.33,19.33,0,0,0,2,.3,10.36,10.36,0,0,0,1.93-.07l1.41-.2h.33a.36.36,0,0,1,.36.31,1.69,1.69,0,0,1,0,1.09,4.87,4.87,0,0,1-.78,1.25,1.29,1.29,0,0,1-.58.37L40,58.59l-.24.1a1.74,1.74,0,0,0-1,1,2.83,2.83,0,0,0-.19.76,4.38,4.38,0,0,0,.11,1.69c0,.16,0,.16.19.18l.87.05c2.23.08,4.45.11,6.68.09.61,0,1.22,0,1.82-.09a3.1,3.1,0,0,0,1.56-.48.48.48,0,0,1,.31-.06l1.93.14a15.07,15.07,0,0,0,1.9,0,2,2,0,0,0,1.78-1.43l.12-.4a4.24,4.24,0,0,1,2.81,1.5,3.45,3.45,0,0,1,.77,2.6,3.9,3.9,0,0,1-1,2.24,5.83,5.83,0,0,1-1.26,1,10.81,10.81,0,0,1-2,.89c-.64.22-1.27.44-1.91.64a19.57,19.57,0,0,0-3.8,1.69c-.81.45-1.61.92-2.43,1.36a13.59,13.59,0,0,1-3,1.25,11.12,11.12,0,0,1-3.72.41,10.42,10.42,0,0,1-3.45-.86,20.05,20.05,0,0,1-2.22-1.12l-2.45-1.4a23.52,23.52,0,0,0-2.36-1.17,12.7,12.7,0,0,0-2.77-.79c-.91-.17-1.83-.26-2.74-.39a11.34,11.34,0,0,1-2.76-.66,5.71,5.71,0,0,1-1.4-.8A3.36,3.36,0,0,1,19,64.69a2.07,2.07,0,0,1,.14-1.45,3.3,3.3,0,0,1,.55-.79,7.37,7.37,0,0,1,.94-.82,12.37,12.37,0,0,1,4.11-2Z" transform="translate(-6.25 -6.64)"/><path class="cls-6" d="M58.64,67.94a12.37,12.37,0,0,1-.89,1.83,15.06,15.06,0,0,1-2.16,2.85c-.41.43-.82.85-1.24,1.27a12.28,12.28,0,0,0-2.45,3.49l-.61,1.3a8.62,8.62,0,0,1-.6,1.07,4.18,4.18,0,0,1-.95,1,2.44,2.44,0,0,1-1.37.55c-.33,0-.65,0-1,0a3,3,0,0,0-1.74.59,5.59,5.59,0,0,0-.78.68l-.61.63a12.9,12.9,0,0,1-3.56,2.63,5,5,0,0,1-1.41.5,2,2,0,0,1-1.7-.47,7.19,7.19,0,0,1-.76-.8l-.58-.72a4.78,4.78,0,0,0-2.44-1.61c-.55-.16-1.11-.3-1.66-.45a6.75,6.75,0,0,1-.83-.28,3.51,3.51,0,0,1-1.52-1.23,8.29,8.29,0,0,1-.64-1.12c-.2-.41-.39-.83-.59-1.24A11.21,11.21,0,0,0,28,77.39a5.34,5.34,0,0,0-2.37-2.12c-.34-.16-.67-.3-1-.44a7.38,7.38,0,0,1-1.05-.53,2.26,2.26,0,0,1-.53-.45,7.71,7.71,0,0,1-.53-.71,20.57,20.57,0,0,1-1.45-2.7c-.34-.73-.64-1.47-.91-2.23a.64.64,0,0,1-.07-.27c.05,0,.09,0,.13,0A9.43,9.43,0,0,0,23.45,69c.91.14,1.83.25,2.75.37a13.71,13.71,0,0,1,3.74,1.09c.86.39,1.69.86,2.52,1.34s1.75,1,2.65,1.49a14.74,14.74,0,0,0,3.12,1.25,11.41,11.41,0,0,0,3.73.29,14,14,0,0,0,5.21-1.56c.72-.36,1.42-.77,2.12-1.17s1.4-.8,2.13-1.15a21.48,21.48,0,0,1,2.8-1.06c.72-.23,1.43-.47,2.13-.76A8.89,8.89,0,0,0,58.45,68l.13-.07Z" transform="translate(-6.25 -6.64)"/><path class="cls-6" d="M55.47,52.49c.08.09,0,.16,0,.22-.16.6-.32,1.2-.47,1.8-.2.84-.32,1.7-.45,2.56,0,.29-.07.58-.11.88a3.66,3.66,0,0,0,.07,1.36,1.91,1.91,0,0,1,.07.63.81.81,0,0,1-.74.74,16.82,16.82,0,0,1-2.84,0,.53.53,0,0,1-.32-.08c0-.13.07-.26.1-.39A4.34,4.34,0,0,0,51,58.75a1.59,1.59,0,0,1,.27-1,7.34,7.34,0,0,1,.59-.76l1.08-1.21a33.81,33.81,0,0,0,2.35-3Z" transform="translate(-6.25 -6.64)"/><path class="cls-7" d="M54.37,60.13s0-.06.06,0a0,0,0,0,1,0,.07Z" transform="translate(-6.25 -6.64)"/><path class="cls-1" d="M47.28,17.52l.35.3a4.83,4.83,0,0,1,.79.84.24.24,0,0,0,.27.1l.37-.07a6.7,6.7,0,0,1,1.73-.07,4.39,4.39,0,0,1,1.18.27,5.1,5.1,0,0,1,1.9,1.19,3.69,3.69,0,0,1,1,3.1,3,3,0,0,1-.33,1.07,4.24,4.24,0,0,1-3.17,2.42l-.1,0c-.16,0-.2,0-.23.24a3.51,3.51,0,0,1-.88,1.92A4.3,4.3,0,0,1,48.42,30a4,4,0,0,1-3.76-.5l-.23-.16,0,0-.3.23A5.15,5.15,0,0,1,41,30.6a5.86,5.86,0,0,1-2.33-.45,3.73,3.73,0,0,1-1.18-.78c-.12-.12-.13-.12-.26,0A4.23,4.23,0,0,1,35.8,30a4.54,4.54,0,0,1-2.63-.16A6.07,6.07,0,0,1,32,29.3a3.43,3.43,0,0,1-1.68-2.65l0-.25c0-.09-.07-.12-.15-.08l-.31.15a7.07,7.07,0,0,1-3.64.67,8.4,8.4,0,0,1-2.78-.68,5.57,5.57,0,0,1-2.08-1.55c-.07-.09-.12-.22-.24-.24s-.18.11-.27.19A6.13,6.13,0,0,1,18.3,26.2a5.93,5.93,0,0,1-2.1.13,8.11,8.11,0,0,1-3.9-1.61,5.29,5.29,0,0,1-1.83-2.64,7.69,7.69,0,0,1-.37-3.3,6.42,6.42,0,0,1,1.35-3.42A8.48,8.48,0,0,1,12.87,14l.44-.35a.14.14,0,0,0,.06-.18l-.13-.4a6.42,6.42,0,0,1-.12-3.11,8,8,0,0,1,.39-1.35,3.84,3.84,0,0,1,.42-.77,1.58,1.58,0,0,1,.88-.59,12.32,12.32,0,0,1,1.91-.34c1.13-.1,2.26-.07,3.39-.06,1.35,0,2.7,0,4.05,0,1.77,0,3.54,0,5.31,0h5.75l7.35.05,2.56,0a.56.56,0,0,1,.33.1A15.6,15.6,0,0,1,47,8.22a4.59,4.59,0,0,1,.71.82,7,7,0,0,1,1.25,4.21A6.7,6.7,0,0,1,48.21,16a9.14,9.14,0,0,1-.73,1.2C47.41,17.32,47.35,17.41,47.28,17.52Zm-26,5.19a.4.4,0,0,1,.15.19c.13.22.25.45.39.66a4.46,4.46,0,0,0,2.2,1.87,7.55,7.55,0,0,0,2.74.54,6.12,6.12,0,0,0,3.63-1.2.92.92,0,0,0,.29-.33,3.66,3.66,0,0,1,1-1.23l.59-.44a.21.21,0,0,0,.11-.26,1.36,1.36,0,0,1,0-.17,4.73,4.73,0,0,1,.18-2.61,4.56,4.56,0,0,1,3-3,6.9,6.9,0,0,1,1.19-.21,5.1,5.1,0,0,1,1.41.06,4.88,4.88,0,0,1,2.44,1.27c.06.06.11.12.17.17a.09.09,0,0,0,.13,0l.31-.28A4.93,4.93,0,0,1,46,16.87c.16.06.19.08.33-.09a6.82,6.82,0,0,0,1.1-2,5.43,5.43,0,0,0,.32-1.65A5.76,5.76,0,0,0,46.89,10,3.66,3.66,0,0,0,46,9l-.88-.68a.65.65,0,0,0-.42-.14c-.43,0-.85,0-1.28,0l-8.87-.06c-2.12,0-4.23,0-6.35,0S24.08,8,22,8H19.76a29.58,29.58,0,0,0-3,.07,12.16,12.16,0,0,0-1.6.28.54.54,0,0,0-.36.26c-.07.12-.14.24-.2.37a4.46,4.46,0,0,0-.24.73,6.18,6.18,0,0,0-.22,1.71,5.26,5.26,0,0,0,.53,2.1l.19.38a.12.12,0,0,1,0,.16l-.21.13a9.71,9.71,0,0,0-1.56,1.16,5.25,5.25,0,0,0-1.62,2.58,6.39,6.39,0,0,0,.13,3.75,4.11,4.11,0,0,0,1.54,2.16A7.41,7.41,0,0,0,15.56,25a4.84,4.84,0,0,0,3.12-.18,5.41,5.41,0,0,0,2-1.41l.48-.56C21.18,22.8,21.22,22.73,21.31,22.71ZM37.57,27.5c.13.17.25.38.37.57a2.56,2.56,0,0,0,1.29,1,5.15,5.15,0,0,0,1.56.31,4,4,0,0,0,2.89-1.08c.16-.14.31-.31.46-.47s.11-.12.17-.17a.1.1,0,0,1,.16,0l.19.2a4.59,4.59,0,0,0,.55.53,2.79,2.79,0,0,0,1.8.63,3.35,3.35,0,0,0,2.13-.82A2.17,2.17,0,0,0,49.87,27a2.83,2.83,0,0,0,.06-.77c0-.19,0-.38,0-.56s0-.15.14-.15.42,0,.63,0a3.07,3.07,0,0,0,2.81-1.73,2.19,2.19,0,0,0,.28-1.23,2.54,2.54,0,0,0-.9-1.8,4,4,0,0,0-2.44-1,5.26,5.26,0,0,0-2.11.34c-.27.1-.25.16-.43-.15A4.65,4.65,0,0,0,47,18.88a3.68,3.68,0,0,0-3.55-1,3.53,3.53,0,0,0-2.1,1.4l-.45.63c-.07.1-.11.09-.19,0s-.34-.5-.53-.74a3.71,3.71,0,0,0-1.94-1.34,4.23,4.23,0,0,0-2.56.11,3.6,3.6,0,0,0-2.29,3.28,3.88,3.88,0,0,0,.31,1.61c.16.42.19.36-.22.57a5.84,5.84,0,0,0-1.18.8,2.45,2.45,0,0,0-.77,1.31,2.83,2.83,0,0,0,0,1.16,2.23,2.23,0,0,0,1.1,1.59,4.92,4.92,0,0,0,1.05.46,3.68,3.68,0,0,0,1,.18A3.11,3.11,0,0,0,37,28c.13-.13.26-.27.4-.4A.26.26,0,0,1,37.57,27.5Z" transform="translate(-6.25 -6.64)"/><path class="cls-6" d="M21.31,22.71c-.09,0-.13.09-.18.15l-.48.56a5.41,5.41,0,0,1-2,1.41,4.84,4.84,0,0,1-3.12.18,7.41,7.41,0,0,1-2.44-1.16,4.11,4.11,0,0,1-1.54-2.16,6.39,6.39,0,0,1-.13-3.75,5.25,5.25,0,0,1,1.62-2.58,9.71,9.71,0,0,1,1.56-1.16l.21-.13a.12.12,0,0,0,0-.16l-.19-.38a5.26,5.26,0,0,1-.53-2.1,6.18,6.18,0,0,1,.22-1.71A4.46,4.46,0,0,1,14.62,9c.06-.13.13-.25.2-.37a.54.54,0,0,1,.36-.26,12.16,12.16,0,0,1,1.6-.28,29.58,29.58,0,0,1,3-.07H22c2.07,0,4.14.07,6.2.05s4.23,0,6.35,0l8.87.06c.43,0,.85,0,1.28,0a.65.65,0,0,1,.42.14L46,9a3.66,3.66,0,0,1,.88,1,5.76,5.76,0,0,1,.87,3.18,5.43,5.43,0,0,1-.32,1.65,6.82,6.82,0,0,1-1.1,2c-.14.17-.17.15-.33.09a4.93,4.93,0,0,0-4.79.88l-.31.28a.09.09,0,0,1-.13,0c-.06-.05-.11-.11-.17-.17a4.88,4.88,0,0,0-2.44-1.27,5.1,5.1,0,0,0-1.41-.06,6.9,6.9,0,0,0-1.19.21,4.56,4.56,0,0,0-3,3,4.73,4.73,0,0,0-.18,2.61,1.36,1.36,0,0,0,0,.17.21.21,0,0,1-.11.26l-.59.44a3.66,3.66,0,0,0-1,1.23.92.92,0,0,1-.29.33A6.12,6.12,0,0,1,26.79,26a7.55,7.55,0,0,1-2.74-.54,4.46,4.46,0,0,1-2.2-1.87c-.14-.21-.26-.44-.39-.66A.4.4,0,0,0,21.31,22.71Z" transform="translate(-6.25 -6.64)"/><path class="cls-6" d="M37.57,27.5a.26.26,0,0,0-.19.11c-.14.13-.27.27-.4.4a3.11,3.11,0,0,1-2.3.91,3.68,3.68,0,0,1-1-.18,4.92,4.92,0,0,1-1.05-.46,2.23,2.23,0,0,1-1.1-1.59,2.83,2.83,0,0,1,0-1.16,2.45,2.45,0,0,1,.77-1.31,5.84,5.84,0,0,1,1.18-.8c.41-.21.38-.15.22-.57a3.88,3.88,0,0,1-.31-1.61A3.6,3.6,0,0,1,35.71,18a4.23,4.23,0,0,1,2.56-.11,3.71,3.71,0,0,1,1.94,1.34c.19.24.35.5.53.74s.12.11.19,0l.45-.63a3.53,3.53,0,0,1,2.1-1.4,3.68,3.68,0,0,1,3.55,1A4.65,4.65,0,0,1,47.89,20c.18.31.16.25.43.15a5.26,5.26,0,0,1,2.11-.34,4,4,0,0,1,2.44,1,2.54,2.54,0,0,1,.9,1.8,2.19,2.19,0,0,1-.28,1.23,3.07,3.07,0,0,1-2.81,1.73c-.21,0-.42,0-.63,0s-.15,0-.14.15,0,.37,0,.56a2.83,2.83,0,0,1-.06.77,2.17,2.17,0,0,1-.73,1.22,3.35,3.35,0,0,1-2.13.82,2.79,2.79,0,0,1-1.8-.63,4.59,4.59,0,0,1-.55-.53l-.19-.2a.1.1,0,0,0-.16,0c-.06,0-.11.11-.17.17s-.3.33-.46.47a4,4,0,0,1-2.89,1.08,5.15,5.15,0,0,1-1.56-.31,2.56,2.56,0,0,1-1.29-1C37.82,27.88,37.7,27.67,37.57,27.5Z" transform="translate(-6.25 -6.64)"/><path class="cls-1" d="M83.08,37.86a.6.6,0,0,0-.08-.2c-.66-1.35-1.28-2.72-1.86-4.1A5.26,5.26,0,0,1,80.75,32a4,4,0,0,1,.4-2.09c.17-.35.36-.7.53-1a5.43,5.43,0,0,0,.5-1.57,8.74,8.74,0,0,1,1.92-4.2c.32-.38.67-.74,1-1.1a9.39,9.39,0,0,0,1.6-2.25A4.77,4.77,0,0,1,87.2,19a1.57,1.57,0,0,1,.43-.38.87.87,0,0,1,1.14.2,2.2,2.2,0,0,1,.32.53.08.08,0,0,0,.08,0,.78.78,0,0,1,1.14.2,1.51,1.51,0,0,1,.26.61c0,.1,0,.2.05.31s0,.17.22.19a1.52,1.52,0,0,1,1.3,1.19,1.2,1.2,0,0,1,0,.38v.26a.18.18,0,0,0,.15.19l.24.09a1.19,1.19,0,0,1,.78,1.35,5.29,5.29,0,0,1-.13.54.67.67,0,0,0,0,.24.27.27,0,0,0,.07.21,1.91,1.91,0,0,1,.52,1.77,3.37,3.37,0,0,1-.12.55.21.21,0,0,0,0,.17c.57.9,1.13,1.81,1.69,2.71l.05.06c.31-.45.64-.88,1-1.3a18.43,18.43,0,0,1,4.27-3.76c.62-.39,1.25-.76,1.85-1.18.82-.58,1.61-1.19,2.4-1.79l5.19-4c1.5-1.17,3-2.35,4.44-3.55,1.09-.89,2.17-1.8,3.25-2.7l.36-.31a1.31,1.31,0,0,1,.47-.27,4.64,4.64,0,0,1,.73-.2,1.19,1.19,0,0,1,.42,0,.66.66,0,0,1,.51.64V12a.33.33,0,0,0,.17-.07l.49-.25a.9.9,0,0,1,.33-.09.61.61,0,0,1,.6.26.62.62,0,0,1,0,.67,3.14,3.14,0,0,1-.18.31,1.59,1.59,0,0,0-.18.4s.09,0,.14,0a6,6,0,0,1,.63-.08.92.92,0,0,1,.43.08.74.74,0,0,1,.33.94,1.27,1.27,0,0,1-.2.38,3.5,3.5,0,0,1-.33.43c-.1.12-.1.13,0,.22a1.78,1.78,0,0,1,.56.95,1.36,1.36,0,0,1-.07.91,1.1,1.1,0,0,1-.27.38.69.69,0,0,1-.18.16.77.77,0,0,0-.35.78,2,2,0,0,1-.44,1.45c-.46.59-.91,1.18-1.34,1.79l-.29.46a.71.71,0,0,0-.11.57,1.81,1.81,0,0,1,.07.52,1.34,1.34,0,0,1-.58,1,3.42,3.42,0,0,1-.42.23.45.45,0,0,0-.28.44,1.48,1.48,0,0,1-.06.47,1.25,1.25,0,0,1-.89.85c-.1,0-.23,0-.3.08s0,.2,0,.3a1.18,1.18,0,0,1-.84,1.14l-.33.09a.43.43,0,0,0-.33.34,1.68,1.68,0,0,1-1.22,1.27l-.29.09a.76.76,0,0,0-.52.52,1.62,1.62,0,0,0,0,.19,3.87,3.87,0,0,1-.35,1.17c-.53,1.22-1.1,2.41-1.67,3.61s-1.06,2.29-1.66,3.41a12.54,12.54,0,0,1-1.33,2A6.45,6.45,0,0,1,107.11,42c-.39.2-.78.39-1.15.61A5.45,5.45,0,0,0,104.38,44a2.43,2.43,0,0,0-.31.54l0,.14a.37.37,0,0,0,.19.49,5.12,5.12,0,0,0,.73.39c1,.46,2,.94,3,1.34a14.72,14.72,0,0,0,2.53.75c.51.1,1,.24,1.52.37l2,.5a3.66,3.66,0,0,1,.94.34.81.81,0,0,1,.24.17.75.75,0,0,1,0,1.14,2,2,0,0,1-1.11.47h0c-.15,0-.22.06-.27.2a1,1,0,0,1-.61.63,2.16,2.16,0,0,1-.83.13,8,8,0,0,1-1.47-.2,5.78,5.78,0,0,0-2.89.1c-.58.16-1.16.35-1.76.46a21.64,21.64,0,0,1-2.52.3c-.71.05-1.42.06-2.14.06s-1.47,0-2.2-.09c-.95-.07-1.89-.19-2.83-.34a28.37,28.37,0,0,1-10.56-4,30.15,30.15,0,0,1-3.28-2.35,6,6,0,0,1-1-1.09A9.75,9.75,0,0,0,80,42.88a8.73,8.73,0,0,0-2.13-1.24c-1.3-.55-2.64-1-4-1.45-.53-.18-1.06-.37-1.6-.53a4.82,4.82,0,0,0-1.41-.21,28.54,28.54,0,0,1-3.33-.15,12.25,12.25,0,0,1-2.8-.59c-.55-.2-1.08-.45-1.61-.7a16.67,16.67,0,0,0-2.74-1,14.65,14.65,0,0,1-1.69-.58,1.16,1.16,0,0,1-.47-.35,2.65,2.65,0,0,1-.37-.57,1,1,0,0,1-.08-.67.65.65,0,0,1,.37-.45,2.83,2.83,0,0,1,.41-.14,19.94,19.94,0,0,1,2.56-.49,6,6,0,0,0,1.56-.34l.59-.25a6.69,6.69,0,0,1,2.75-.62,5.92,5.92,0,0,1,3,.76l.53.29a6.63,6.63,0,0,1,1.23.89,4.12,4.12,0,0,0,1,.72,7.28,7.28,0,0,0,.93.32c.78.25,1.57.44,2.35.68,1,.29,1.9.64,2.84,1a14.17,14.17,0,0,0,1.38.49,9.31,9.31,0,0,0,2.1.28A10,10,0,0,0,83,37.88Zm-23.9-2.55a.35.35,0,0,0,.19.1c.59.24,1.2.41,1.81.59A17.09,17.09,0,0,1,64,37.1a10,10,0,0,0,3.15,1,27.66,27.66,0,0,0,3.64.2,6,6,0,0,1,1.82.25c.59.18,1.18.39,1.77.58,1.38.45,2.74.94,4.08,1.51a8.82,8.82,0,0,1,2.87,1.88,13.45,13.45,0,0,1,1.11,1.27,5.24,5.24,0,0,0,.86.9,29.09,29.09,0,0,0,4,2.77,26.58,26.58,0,0,0,7.57,2.94c.77.17,1.55.31,2.33.42a30.35,30.35,0,0,0,4.47.32q1.29,0,2.58-.12a13.1,13.1,0,0,0,2.56-.46l1.05-.29a6.52,6.52,0,0,1,2.78-.07c.44.08.87.17,1.32.21a2.8,2.8,0,0,0,.5,0c.06,0,.1,0,.12-.09a1.26,1.26,0,0,1,.58-.72h0s-.06,0-.09,0l-1.23-.32c-.59-.15-1.18-.31-1.78-.43a15.19,15.19,0,0,1-2.79-.84c-1-.44-2.08-.94-3.11-1.43a4.5,4.5,0,0,1-.73-.43l-.11,0a.64.64,0,0,1-.26-.13,13.17,13.17,0,0,0-3-1.56.53.53,0,1,1,.35-1l.29.11a19.18,19.18,0,0,1,2,1l.07,0a.08.08,0,0,0,.05-.07,2.78,2.78,0,0,1,.41-.89,6.17,6.17,0,0,1,1.78-1.71,13.29,13.29,0,0,1,1.43-.79,5.22,5.22,0,0,0,1.64-1.32A9.88,9.88,0,0,0,109.24,38c.58-1,1.07-2.13,1.58-3.2.59-1.26,1.19-2.51,1.75-3.78a5,5,0,0,0,.34-1.1,1.88,1.88,0,0,1,1.37-1.56l.3-.09a.56.56,0,0,0,.4-.44,1.54,1.54,0,0,1,1.16-1.17,1.8,1.8,0,0,1,.22-.06c.07,0,.09-.05.08-.12s0-.16,0-.23a1.16,1.16,0,0,1,.78-1.11l.3-.08c.15,0,.19,0,.19-.22a1.57,1.57,0,0,1,.79-1.39,1.67,1.67,0,0,1,.23-.12c.28-.14.28-.14.22-.44a1.89,1.89,0,0,1,.25-1.43c.26-.41.54-.81.82-1.19s.61-.81.92-1.22a.91.91,0,0,0,.18-.55.66.66,0,0,1,0-.14,1.7,1.7,0,0,1,.68-1.6l.14-.11a.21.21,0,0,0,.07-.26.76.76,0,0,0-.23-.33,1.14,1.14,0,0,1-.4-1.3,2.74,2.74,0,0,1,.1-.31,1.16,1.16,0,0,1-.88-.24.93.93,0,0,1-.26-.88.43.43,0,0,0-.18.05,1.66,1.66,0,0,1-.49.11.78.78,0,0,1-.8-.63.47.47,0,0,0,0-.17.27.27,0,0,0-.12.09c-1.15,1-2.3,1.92-3.46,2.86-1.58,1.29-3.17,2.57-4.78,3.82q-2.85,2.24-5.73,4.43a29.8,29.8,0,0,1-2.64,1.85c-.43.26-.84.53-1.24.8a16.8,16.8,0,0,0-5,5.24,2.21,2.21,0,0,0-.24.52,3.07,3.07,0,0,1-.89,1.42c-.18.15-.34.32-.51.47a7.84,7.84,0,0,1-1.09.83.49.49,0,0,1-.35.09.56.56,0,0,1-.45-.4.52.52,0,0,1,.23-.58l.28-.18a10.57,10.57,0,0,0,1.38-1.22,1.26,1.26,0,0,0,.3-.48c.07-.19.12-.38.2-.56a.32.32,0,0,0,0-.34l-2.25-3.61a.24.24,0,0,1,0-.27.38.38,0,0,0,0-.1,2.93,2.93,0,0,0,.21-.92.62.62,0,0,0-.16-.52A1.44,1.44,0,0,1,92,24.55c0-.19.09-.37.13-.56s0-.18-.11-.2l-.13,0A1.32,1.32,0,0,1,91,22.56a3.23,3.23,0,0,1,0-.44.37.37,0,0,0-.19-.3.32.32,0,0,0-.17,0,1.29,1.29,0,0,1-1.15-1.05s0-.08-.06-.1l-.06,0a.8.8,0,0,1-1-.2,1.74,1.74,0,0,1-.32-.52s0-.09-.06-.1a4.07,4.07,0,0,0-.35.6,10.19,10.19,0,0,1-1.08,1.65c-.37.45-.77.87-1.17,1.29a7.68,7.68,0,0,0-2.11,4.18,6.53,6.53,0,0,1-.63,1.93c-.17.32-.34.64-.5,1a2.79,2.79,0,0,0-.25,1.61,4.82,4.82,0,0,0,.36,1.19q.91,2.17,2,4.3a.23.23,0,0,0,.24.14,7.77,7.77,0,0,1,2,.23,7.06,7.06,0,0,1,1.17.41.54.54,0,0,1,.29.72.55.55,0,0,1-.7.26,5.55,5.55,0,0,0-1.38-.44,4,4,0,0,0-1.57,0,12.11,12.11,0,0,1-3,.27,10.56,10.56,0,0,1-2.3-.34c-.41-.11-.8-.28-1.2-.43-1-.37-2-.73-3-1-.83-.26-1.68-.47-2.52-.73a7.47,7.47,0,0,1-1.08-.41,5.52,5.52,0,0,1-1.15-.83,7.08,7.08,0,0,0-1.93-1.22,4.66,4.66,0,0,0-2.21-.41,5.13,5.13,0,0,0-2,.45,8.33,8.33,0,0,1-2.66.75A17,17,0,0,0,59.18,35.31Z" transform="translate(-6.25 -6.64)"/><path class="cls-8" d="M59.18,35.31a17,17,0,0,1,2.07-.38,8.33,8.33,0,0,0,2.66-.75,5.13,5.13,0,0,1,2-.45,4.66,4.66,0,0,1,2.21.41,7.08,7.08,0,0,1,1.93,1.22,5.52,5.52,0,0,0,1.15.83,7.47,7.47,0,0,0,1.08.41c.84.26,1.69.47,2.52.73,1,.3,2,.66,3,1,.4.15.79.32,1.2.43a10.56,10.56,0,0,0,2.3.34,12.11,12.11,0,0,0,3-.27,4,4,0,0,1,1.57,0,5.55,5.55,0,0,1,1.38.44.55.55,0,0,0,.7-.26.54.54,0,0,0-.29-.72,7.06,7.06,0,0,0-1.17-.41,7.77,7.77,0,0,0-2-.23.23.23,0,0,1-.24-.14q-1.05-2.13-2-4.3a4.82,4.82,0,0,1-.36-1.19,2.79,2.79,0,0,1,.25-1.61c.16-.33.33-.65.5-1a6.53,6.53,0,0,0,.63-1.93,7.68,7.68,0,0,1,2.11-4.18c.4-.42.8-.84,1.17-1.29a10.19,10.19,0,0,0,1.08-1.65,4.07,4.07,0,0,1,.35-.6s0,.06.06.1a1.74,1.74,0,0,0,.32.52.8.8,0,0,0,1,.2l.06,0s0,.06.06.1a1.29,1.29,0,0,0,1.15,1.05.32.32,0,0,1,.17,0,.37.37,0,0,1,.19.3,3.23,3.23,0,0,0,0,.44,1.32,1.32,0,0,0,.91,1.19l.13,0c.12,0,.15,0,.11.2s-.1.37-.13.56a1.44,1.44,0,0,0,.43,1.39.62.62,0,0,1,.16.52,2.93,2.93,0,0,1-.21.92.38.38,0,0,1,0,.1.24.24,0,0,0,0,.27l2.25,3.61a.32.32,0,0,1,0,.34c-.08.18-.13.37-.2.56a1.26,1.26,0,0,1-.3.48A10.57,10.57,0,0,1,92.82,34l-.28.18a.52.52,0,0,0-.23.58.56.56,0,0,0,.45.4.49.49,0,0,0,.35-.09,7.84,7.84,0,0,0,1.09-.83c.17-.15.33-.32.51-.47a3.07,3.07,0,0,0,.89-1.42,2.21,2.21,0,0,1,.24-.52,16.8,16.8,0,0,1,5-5.24c.4-.27.81-.54,1.24-.8a29.8,29.8,0,0,0,2.64-1.85q2.88-2.19,5.73-4.43c1.61-1.25,3.2-2.53,4.78-3.82,1.16-.94,2.31-1.9,3.46-2.86a.27.27,0,0,1,.12-.09.47.47,0,0,1,0,.17.78.78,0,0,0,.8.63,1.66,1.66,0,0,0,.49-.11.43.43,0,0,1,.18-.05.93.93,0,0,0,.26.88,1.16,1.16,0,0,0,.88.24,2.74,2.74,0,0,0-.1.31,1.14,1.14,0,0,0,.4,1.3.76.76,0,0,1,.23.33.21.21,0,0,1-.07.26l-.14.11a1.7,1.7,0,0,0-.68,1.6.66.66,0,0,0,0,.14.91.91,0,0,1-.18.55c-.31.41-.62.81-.92,1.22s-.56.78-.82,1.19a1.89,1.89,0,0,0-.25,1.43c.06.3.06.3-.22.44a1.67,1.67,0,0,0-.23.12,1.57,1.57,0,0,0-.79,1.39c0,.2,0,.19-.19.22l-.3.08a1.16,1.16,0,0,0-.78,1.11c0,.07,0,.15,0,.23s0,.11-.08.12a1.8,1.8,0,0,0-.22.06A1.54,1.54,0,0,0,115,27.84a.56.56,0,0,1-.4.44l-.3.09a1.88,1.88,0,0,0-1.37,1.56,5,5,0,0,1-.34,1.1c-.56,1.27-1.16,2.52-1.75,3.78-.51,1.07-1,2.16-1.58,3.2a9.88,9.88,0,0,1-1.08,1.64A5.22,5.22,0,0,1,106.52,41a13.29,13.29,0,0,0-1.43.79,6.17,6.17,0,0,0-1.78,1.71,2.78,2.78,0,0,0-.41.89.08.08,0,0,1-.05.07l-.07,0a19.18,19.18,0,0,0-2-1l-.29-.11a.53.53,0,1,0-.35,1,13.17,13.17,0,0,1,3,1.56.64.64,0,0,0,.26.13l.11,0a4.5,4.5,0,0,0,.73.43c1,.49,2.06,1,3.11,1.43a15.19,15.19,0,0,0,2.79.84c.6.12,1.19.28,1.78.43l1.23.32s.07,0,.09,0h0a1.26,1.26,0,0,0-.58.72c0,.07-.06.08-.12.09a2.8,2.8,0,0,1-.5,0c-.45,0-.88-.13-1.32-.21a6.52,6.52,0,0,0-2.78.07l-1.05.29a13.1,13.1,0,0,1-2.56.46q-1.29.12-2.58.12a30.35,30.35,0,0,1-4.47-.32c-.78-.11-1.56-.25-2.33-.42a26.58,26.58,0,0,1-7.57-2.94,29.09,29.09,0,0,1-4-2.77,5.24,5.24,0,0,1-.86-.9,13.45,13.45,0,0,0-1.11-1.27,8.82,8.82,0,0,0-2.87-1.88c-1.34-.57-2.7-1.06-4.08-1.51-.59-.19-1.18-.4-1.77-.58a6,6,0,0,0-1.82-.25,27.66,27.66,0,0,1-3.64-.2,10,10,0,0,1-3.15-1A17.09,17.09,0,0,0,61.18,36c-.61-.18-1.22-.35-1.81-.59A.35.35,0,0,1,59.18,35.31Z" transform="translate(-6.25 -6.64)"/><path class="cls-9" d="M101.91,116.91s0,0,0,0,0,0,0,0Z" transform="translate(-6.25 -6.64)"/><path class="cls-1" d="M107.42,109.13c-.17.18-.33.33-.5.48a4.53,4.53,0,0,1-.89.61,1.82,1.82,0,0,1-.72.18,1.15,1.15,0,0,1-1-.58,2.28,2.28,0,0,1-.32-.95,13.8,13.8,0,0,1-.13-1.82,3.25,3.25,0,0,1,.12-1,.19.19,0,0,0-.07-.23,3.64,3.64,0,0,0-1.6-.92,3.33,3.33,0,0,0-.54-.07.48.48,0,0,1-.47-.45.49.49,0,0,1,.54-.54,3.77,3.77,0,0,1,1.09.22,4.9,4.9,0,0,1,1.41.83.43.43,0,0,0,.13.09,5.07,5.07,0,0,1,.48-.56s0-.07,0-.1a3.53,3.53,0,0,0-.64-.64,3.73,3.73,0,0,0-1.21-.61.49.49,0,0,1,0-.94.5.5,0,0,1,.34,0,4.63,4.63,0,0,1,2.22,1.47l.07.09c0,.09.1.09.19,0a2.42,2.42,0,0,1,1.12-.26,2.8,2.8,0,0,1,2.46,1.51l0,.08a.14.14,0,0,0,.15.1h.66a.18.18,0,0,0,.18-.11,7.94,7.94,0,0,1,.94-1.35,7.19,7.19,0,0,1,3.72-2.31,8.32,8.32,0,0,1,2.63-.26,4.05,4.05,0,0,1,1.28.26,2.65,2.65,0,0,1,.5.26,1.42,1.42,0,0,1,.59,1.59,3.92,3.92,0,0,1-.23.6.23.23,0,0,0,0,.15,5.12,5.12,0,0,1,.67,0,8.6,8.6,0,0,1,1.94.41,2.1,2.1,0,0,1,.66.35,1.25,1.25,0,0,1,.45,1.45,2.71,2.71,0,0,1-.84,1.21,3.19,3.19,0,0,1-.47.35,11,11,0,0,1-3.07,1.48l-.07,0a.21.21,0,0,0,.08.12,5.71,5.71,0,0,1,1.29,2.38,5.78,5.78,0,0,1,.13,1.81c-.08,1.15-.19,2.31-.38,3.45,0,.19-.07.38-.1.57s0,.11-.12.12a11.26,11.26,0,0,1-2.32.13,10.7,10.7,0,0,1-5.17-1.6,11.87,11.87,0,0,1-4-4,9,9,0,0,1-.93-2A6.06,6.06,0,0,1,107.42,109.13Zm8.07.37a1,1,0,0,0-.23,0c-.67,0-1.33-.08-2-.14a.49.49,0,0,1-.47-.54.48.48,0,0,1,.53-.44l.93.07,1.36.08a8.9,8.9,0,0,0,1.86,0,14.78,14.78,0,0,0,1.61-.32,10.38,10.38,0,0,0,2.35-1.13,4.1,4.1,0,0,0,.72-.54,1.46,1.46,0,0,0,.35-.5c.07-.18.06-.22-.11-.33a2.44,2.44,0,0,0-.44-.19,8.16,8.16,0,0,0-2.14-.33,14.76,14.76,0,0,0-2,.21,12.28,12.28,0,0,0-1.48.36,9.15,9.15,0,0,0-3.1,1.44.49.49,0,0,1-.61-.76l.17-.14a9.81,9.81,0,0,1,2.7-1.32,24.87,24.87,0,0,1,2.67-.68.27.27,0,0,0,.18-.1,4.35,4.35,0,0,0,.56-.79,2.07,2.07,0,0,0,.15-.34.32.32,0,0,0-.16-.43,1.84,1.84,0,0,0-.38-.17,4.34,4.34,0,0,0-1.13-.16,7.39,7.39,0,0,0-1.88.23,6.13,6.13,0,0,0-3,1.72,7.51,7.51,0,0,0-1.3,1.91c-.11.23,0,.19-.31.19H108.8s-.07,0-.09-.07l-.09-.36a1.66,1.66,0,0,0-2.53-1,2.64,2.64,0,0,0-1,1.26,1.94,1.94,0,0,0-.12.58,11.48,11.48,0,0,0,.13,2,1.42,1.42,0,0,0,.11.35c.05.11.08.12.19.09a1.57,1.57,0,0,0,.49-.27,4.15,4.15,0,0,0,1.07-1.1,3.48,3.48,0,0,1,.28-.39.68.68,0,0,1,.7-.24.7.7,0,0,1,.51.57.2.2,0,0,0,0,.07,8.67,8.67,0,0,1,.06.89,4.31,4.31,0,0,0,.29,1.46,10,10,0,0,0,1.78,3c.22.24.44.47.67.7.06.06.11.07.17,0l0,0a12.77,12.77,0,0,0,2.9-2.69A11.64,11.64,0,0,0,115.49,109.5ZM112.56,115c.29.2.58.38.87.56a.21.21,0,0,0,.27,0,14.42,14.42,0,0,0,4.6-5.21.16.16,0,0,0,0-.21c-.11-.09-.21-.2-.31-.3s-.22-.21-.52-.22h-.13a.19.19,0,0,0-.23.13,16.26,16.26,0,0,1-4.4,5.14S112.59,114.89,112.56,115Zm6.76-3.19a15.28,15.28,0,0,1-4,4.56l0,0a9.21,9.21,0,0,0,1.64.35.19.19,0,0,0,.16-.06,9.64,9.64,0,0,0,2.28-2.79.55.55,0,0,0,.06-.22,5.82,5.82,0,0,0,0-1.18A3.06,3.06,0,0,0,119.32,111.77Z" transform="translate(-6.25 -6.64)"/><path class="cls-10" d="M115.49,109.5a11.64,11.64,0,0,1-1.11,1.68,12.77,12.77,0,0,1-2.9,2.69l0,0c-.06.06-.11,0-.17,0-.23-.23-.45-.46-.67-.7a10,10,0,0,1-1.78-3,4.31,4.31,0,0,1-.29-1.46,8.67,8.67,0,0,0-.06-.89.2.2,0,0,1,0-.07.7.7,0,0,0-.51-.57.68.68,0,0,0-.7.24,3.48,3.48,0,0,0-.28.39,4.15,4.15,0,0,1-1.07,1.1,1.57,1.57,0,0,1-.49.27c-.11,0-.14,0-.19-.09a1.42,1.42,0,0,1-.11-.35,11.48,11.48,0,0,1-.13-2,1.94,1.94,0,0,1,.12-.58,2.64,2.64,0,0,1,1-1.26,1.66,1.66,0,0,1,2.53,1l.09.36s0,.07.09.07h2.09c.27,0,.2,0,.31-.19a7.51,7.51,0,0,1,1.3-1.91,6.13,6.13,0,0,1,3-1.72,7.39,7.39,0,0,1,1.88-.23,4.34,4.34,0,0,1,1.13.16,1.84,1.84,0,0,1,.38.17.32.32,0,0,1,.16.43,2.07,2.07,0,0,1-.15.34,4.35,4.35,0,0,1-.56.79.27.27,0,0,1-.18.1,24.87,24.87,0,0,0-2.67.68,9.81,9.81,0,0,0-2.7,1.32l-.17.14a.49.49,0,0,0,.61.76,9.15,9.15,0,0,1,3.1-1.44,12.28,12.28,0,0,1,1.48-.36,14.76,14.76,0,0,1,2-.21,8.16,8.16,0,0,1,2.14.33,2.44,2.44,0,0,1,.44.19c.17.11.18.15.11.33a1.46,1.46,0,0,1-.35.5,4.1,4.1,0,0,1-.72.54,10.38,10.38,0,0,1-2.35,1.13,14.78,14.78,0,0,1-1.61.32,8.9,8.9,0,0,1-1.86,0l-1.36-.08-.93-.07a.48.48,0,0,0-.53.44.49.49,0,0,0,.47.54c.67.06,1.33.11,2,.14A1,1,0,0,1,115.49,109.5Z" transform="translate(-6.25 -6.64)"/><path class="cls-10" d="M112.56,115c0-.07.09-.09.13-.13a16.26,16.26,0,0,0,4.4-5.14.19.19,0,0,1,.23-.13h.13c.3,0,.3,0,.52.22s.2.21.31.3a.16.16,0,0,1,0,.21,14.42,14.42,0,0,1-4.6,5.21.21.21,0,0,1-.27,0C113.14,115.34,112.85,115.16,112.56,115Z" transform="translate(-6.25 -6.64)"/><path class="cls-10" d="M119.32,111.77a3.06,3.06,0,0,1,.18.69,5.82,5.82,0,0,1,0,1.18.55.55,0,0,1-.06.22,9.64,9.64,0,0,1-2.28,2.79.19.19,0,0,1-.16.06,9.21,9.21,0,0,1-1.64-.35l0,0A15.28,15.28,0,0,0,119.32,111.77Z" transform="translate(-6.25 -6.64)"/><path class="cls-11" d="M64.27,88.48s0,0,0,0h0Z" transform="translate(-6.25 -6.64)"/><path class="cls-12" d="M59.17,102.23a.78.78,0,0,0-.34,0,7.43,7.43,0,0,1-3.35,0,2.83,2.83,0,0,1-.65-.25,2.1,2.1,0,0,1-.5-.34,1.52,1.52,0,0,1-.43-1.56,3.66,3.66,0,0,1,.23-.63c.09-.21.18-.41.26-.62a2.9,2.9,0,0,0,0-2.11c-.07-.18-.15-.35-.22-.53a3.16,3.16,0,0,1,.4-3,2,2,0,0,1,1.9-.85,4.46,4.46,0,0,1,1.56.38c.23.1.45.22.68.34.07,0,.12.08.2.08s0-.1,0-.15a4.5,4.5,0,0,1,0-2.53,4.74,4.74,0,0,1,1.21-2.19,2.4,2.4,0,0,1,1.33-.7,3.29,3.29,0,0,1,.94,0l.76.08a2.88,2.88,0,0,0,1-.07c.21,0,.41-.1.62-.13a2.14,2.14,0,0,1,2,.63,3.42,3.42,0,0,1,.9,1.81,3.77,3.77,0,0,1,0,1.34,1.25,1.25,0,0,0,0,.39.56.56,0,0,0,.23-.19,9.48,9.48,0,0,1,1.38-1.23,3.65,3.65,0,0,1,1.3-.63,2.5,2.5,0,0,1,2.87,1.51l.18.54A2.46,2.46,0,0,0,74.68,93l0,0a2.34,2.34,0,0,1,1.2,2,2.6,2.6,0,0,1-1.07,2.37,6.52,6.52,0,0,1-1.36.77l-.28.13c0,.08.08.07.12.09l.11.05a3.79,3.79,0,0,1,2,1.67,2.9,2.9,0,0,1,.41,1.84,2.84,2.84,0,0,1-.29,1,6.15,6.15,0,0,1-.57.92l-.45.63a2.83,2.83,0,0,0-.53,1.29c0,.12,0,.23-.07.35a2.51,2.51,0,0,1-1.71,1.94,3.12,3.12,0,0,1-2.52-.17,5,5,0,0,1-1.7-1.51l-.3-.43a.51.51,0,0,0-.09.28A6,6,0,0,1,67,108a4.07,4.07,0,0,1-.86,1.19,3,3,0,0,1-2.55.86,2.14,2.14,0,0,1-1.2-.52l-.4-.37c-.1-.11-.2-.22-.31-.32a.68.68,0,0,0-.68-.16l-.57.19c-.22.08-.45.18-.68.24a1.91,1.91,0,0,1-1.85-.46,2.61,2.61,0,0,1-.78-1.34A.86.86,0,0,0,57,107a4.19,4.19,0,0,0-.45.39l-.44.37-.48.38-.46.33c-.16.12-.33.23-.5.34s-.32.21-.49.3l-.52.29-.52.25c-.17.09-.37.14-.54.25a.69.69,0,0,0,.25.18,5.31,5.31,0,0,1,.81.6,3.6,3.6,0,0,1,1.22,2.23,7.25,7.25,0,0,0,1.64,3.64,9.38,9.38,0,0,0,.79.87c0,.06.11.11.16.16a.53.53,0,0,1,.05.6.49.49,0,0,1-.55.22l-.06,0c-1-.36-2-.71-2.94-1.09a13,13,0,0,1-1.78-.82,6.39,6.39,0,0,1-2.21-2A6.79,6.79,0,0,1,49,112a3.35,3.35,0,0,1,0-1.51,1.2,1.2,0,0,0-.41-.06,15.43,15.43,0,0,1-2.85-.71c-.71-.23-1.42-.47-2.15-.64-.19,0-.38,0-.56-.08a5.6,5.6,0,0,0-1.73-.09,5.35,5.35,0,0,0-1.92.5,7.87,7.87,0,0,0-1.27.78c-.51.37-1,.75-1.5,1.13a12.61,12.61,0,0,1-1.64,1.09,6.77,6.77,0,0,1-2.08.72,4,4,0,0,1-2.15-.21,2.8,2.8,0,0,1-.61-.34.57.57,0,0,1-.25-.32.49.49,0,0,1,.67-.59l.13.08a2.67,2.67,0,0,0,1.94.41,5.82,5.82,0,0,0,1.77-.57,9.45,9.45,0,0,0,1.34-.85l1.26-1a13.68,13.68,0,0,1,1.42-1,6.61,6.61,0,0,1,3.06-.91l.24,0a.18.18,0,0,0,0-.16,5.08,5.08,0,0,1-.1-1.86,6.49,6.49,0,0,1,.69-2.36,6.41,6.41,0,0,1,1.06-1.51,11.79,11.79,0,0,1,1.56-1.36c.53-.4,1.07-.76,1.62-1.13l1.23-.85a.44.44,0,0,1,.5,0,.49.49,0,0,1,.24.65,2.79,2.79,0,0,1-.16.28A9.78,9.78,0,0,0,47.26,102a6.92,6.92,0,0,0-.15,2.4,3.55,3.55,0,0,1-.5,2.21,5.51,5.51,0,0,1-1.4,1.56c-.07.05-.16.07-.17.19l.92.31a19.21,19.21,0,0,0,2.1.58,7.45,7.45,0,0,0,5.15-.76,13.31,13.31,0,0,0,2.71-1.89c.43-.38.84-.77,1.25-1.18a1.11,1.11,0,0,0,.21-.32,7,7,0,0,1,.82-1.52c.28-.4.57-.79.86-1.19C59.1,102.37,59.17,102.33,59.17,102.23Zm-12.55-1.62-.09,0a16.38,16.38,0,0,0-2.32,1.83,5.39,5.39,0,0,0-1.54,2.82,5.07,5.07,0,0,0-.09,1.82,1.74,1.74,0,0,0,.16.55.52.52,0,0,0,.51.31,1.9,1.9,0,0,0,.25,0,2.3,2.3,0,0,0,.57-.21,4.26,4.26,0,0,0,1.5-1.3,3.61,3.61,0,0,0,.35-.6,2.18,2.18,0,0,0,.22-1c0-.34,0-.69-.06-1a8.18,8.18,0,0,1,.46-2.77,1,1,0,0,0,.1-.37l0,0S46.63,100.58,46.62,100.61Zm15.46-12h-.31a1.35,1.35,0,0,0-1,.41,3.84,3.84,0,0,0-.44.54,4.32,4.32,0,0,0-.6,1.55,3.29,3.29,0,0,0,0,1.25,4.68,4.68,0,0,0,.43,1.24,8.76,8.76,0,0,0,1.09,1.61,3.47,3.47,0,0,1,.25.29,1,1,0,0,1,.16.31.48.48,0,0,1-.13.5.44.44,0,0,1-.46.13.65.65,0,0,1-.3-.18,2.85,2.85,0,0,1-.23-.26,10.2,10.2,0,0,0-1.36-1.35,6.27,6.27,0,0,0-1.75-1,3.29,3.29,0,0,0-1.2-.24,1.05,1.05,0,0,0-1,.53,2.18,2.18,0,0,0-.22,1.94c.06.17.14.33.21.5a3.93,3.93,0,0,1,0,2.92c-.09.23-.2.45-.29.68s-.11.3-.16.45a.47.47,0,0,0,.1.48,1,1,0,0,0,.3.24,2.1,2.1,0,0,0,.53.19,6.75,6.75,0,0,0,1.79.16c.22,0,.44,0,.66-.07a7.59,7.59,0,0,0,2.52-.89l.23-.12a.49.49,0,0,1,.56.18.51.51,0,0,1,0,.6l-.18.18c-.36.36-.71.74-1,1.13a16.67,16.67,0,0,0-1.69,2.37,4.46,4.46,0,0,0-.52,1.23,2.06,2.06,0,0,0,0,1.18,1.52,1.52,0,0,0,.51.72.88.88,0,0,0,.8.18c.19-.05.38-.12.57-.19a6,6,0,0,1,.59-.22,1.72,1.72,0,0,1,1.84.45l.42.43a1.52,1.52,0,0,0,1.3.45,2,2,0,0,0,1.22-.55,3.42,3.42,0,0,0,.72-.93,5.77,5.77,0,0,0,.07-4.89.92.92,0,0,1-.13-.36.5.5,0,0,1,.31-.51A.48.48,0,0,1,67,102a4.52,4.52,0,0,1,.23.5c.18.43.35.87.53,1.31a11.53,11.53,0,0,0,.77,1.58,5.09,5.09,0,0,0,.9,1.12,3,3,0,0,0,.81.55,2.11,2.11,0,0,0,1.72.08,1.57,1.57,0,0,0,1-1.2c0-.14,0-.27.07-.41a3.6,3.6,0,0,1,.5-1.31c.14-.22.29-.43.43-.64s.33-.45.48-.68a2.55,2.55,0,0,0,.31-.59,1.69,1.69,0,0,0,.09-.86,2.37,2.37,0,0,0-.25-.72,2.89,2.89,0,0,0-1.37-1.24A4.2,4.2,0,0,0,72,99.15a8.83,8.83,0,0,0-2,0,2.84,2.84,0,0,1-.41,0,.49.49,0,0,1-.47-.45.49.49,0,0,1,.39-.54l.31,0,.38,0A12.65,12.65,0,0,0,72,97.72a8.14,8.14,0,0,0,1.94-.84,2.44,2.44,0,0,0,.62-.49,1.35,1.35,0,0,0,.33-.58,2.06,2.06,0,0,0-.1-1.32.93.93,0,0,0-.35-.41,3.53,3.53,0,0,0-.32-.21,3.32,3.32,0,0,1-1.41-1.68q-.13-.33-.24-.66a1.43,1.43,0,0,0-1-1,1.47,1.47,0,0,0-1.16.11,3.94,3.94,0,0,0-.88.58,10.16,10.16,0,0,0-2.54,3.17c0,.1-.09.19-.15.29a.48.48,0,0,1-.55.21.47.47,0,0,1-.34-.45,1.39,1.39,0,0,1,0-.35c0-.21.09-.42.14-.62.15-.52.29-1,.44-1.55a5.81,5.81,0,0,0,.19-1.24A2.78,2.78,0,0,0,66.12,89a1.21,1.21,0,0,0-1.28-.51,3.78,3.78,0,0,0-.46.1,5,5,0,0,1-1.63.09ZM50.72,110.38l-.28,0a.56.56,0,0,0-.57.6,2.14,2.14,0,0,0,0,.67,5.55,5.55,0,0,0,2.65,3.82,15.15,15.15,0,0,0,2.6,1.16c.06,0,.15.08.2,0s0-.11-.07-.17A8.16,8.16,0,0,1,53.92,113a2.43,2.43,0,0,0-.64-1.3,4.06,4.06,0,0,0-1.75-1.11A3.16,3.16,0,0,0,50.72,110.38Zm4.69,6.31,0,0,0,0,0,0A0,0,0,0,0,55.41,116.69Z" transform="translate(-6.25 -6.64)"/><path class="cls-13" d="M62.08,88.56l.67.07a5,5,0,0,0,1.63-.09,3.78,3.78,0,0,1,.46-.1,1.21,1.21,0,0,1,1.28.51,2.78,2.78,0,0,1,.54,1.78A5.81,5.81,0,0,1,66.47,92c-.15.51-.29,1-.44,1.55,0,.2-.1.41-.14.62a1.39,1.39,0,0,0,0,.35.47.47,0,0,0,.34.45.48.48,0,0,0,.55-.21c.06-.1.1-.19.15-.29a10.16,10.16,0,0,1,2.54-3.17,3.94,3.94,0,0,1,.88-.58,1.47,1.47,0,0,1,1.16-.11,1.43,1.43,0,0,1,1,1q.11.33.24.66a3.32,3.32,0,0,0,1.41,1.68,3.53,3.53,0,0,1,.32.21.93.93,0,0,1,.35.41,2.06,2.06,0,0,1,.1,1.32,1.35,1.35,0,0,1-.33.58,2.44,2.44,0,0,1-.62.49,8.14,8.14,0,0,1-1.94.84,12.65,12.65,0,0,1-1.83.38l-.38,0-.31,0a.49.49,0,0,0-.39.54.49.49,0,0,0,.47.45,2.84,2.84,0,0,0,.41,0,8.83,8.83,0,0,1,2,0,4.2,4.2,0,0,1,1.25.33,2.89,2.89,0,0,1,1.37,1.24,2.37,2.37,0,0,1,.25.72,1.69,1.69,0,0,1-.09.86,2.55,2.55,0,0,1-.31.59c-.15.23-.32.46-.48.68s-.29.42-.43.64a3.6,3.6,0,0,0-.5,1.31c0,.14,0,.27-.07.41a1.57,1.57,0,0,1-1,1.2,2.11,2.11,0,0,1-1.72-.08,3,3,0,0,1-.81-.55,5.09,5.09,0,0,1-.9-1.12,11.53,11.53,0,0,1-.77-1.58c-.18-.44-.35-.88-.53-1.31A4.52,4.52,0,0,0,67,102a.48.48,0,0,0-.58-.19.5.5,0,0,0-.31.51.92.92,0,0,0,.13.36,5.77,5.77,0,0,1-.07,4.89,3.42,3.42,0,0,1-.72.93,2,2,0,0,1-1.22.55,1.52,1.52,0,0,1-1.3-.45l-.42-.43a1.72,1.72,0,0,0-1.84-.45,6,6,0,0,0-.59.22c-.19.07-.38.14-.57.19a.88.88,0,0,1-.8-.18,1.52,1.52,0,0,1-.51-.72,2.06,2.06,0,0,1,0-1.18,4.46,4.46,0,0,1,.52-1.23,16.67,16.67,0,0,1,1.69-2.37c.33-.39.68-.77,1-1.13l.18-.18a.51.51,0,0,0,0-.6.49.49,0,0,0-.56-.18l-.23.12a7.59,7.59,0,0,1-2.52.89c-.22,0-.44,0-.66.07a6.75,6.75,0,0,1-1.79-.16,2.1,2.1,0,0,1-.53-.19,1,1,0,0,1-.3-.24.47.47,0,0,1-.1-.48c0-.15.1-.3.16-.45s.2-.45.29-.68a3.93,3.93,0,0,0,0-2.92c-.07-.17-.15-.33-.21-.5a2.18,2.18,0,0,1,.22-1.94,1.05,1.05,0,0,1,1-.53,3.29,3.29,0,0,1,1.2.24,6.27,6.27,0,0,1,1.75,1A10.2,10.2,0,0,1,60.54,96a2.85,2.85,0,0,0,.23.26.65.65,0,0,0,.3.18.44.44,0,0,0,.46-.13.48.48,0,0,0,.13-.5,1,1,0,0,0-.16-.31,3.47,3.47,0,0,0-.25-.29,8.76,8.76,0,0,1-1.09-1.61,4.68,4.68,0,0,1-.43-1.24,3.29,3.29,0,0,1,0-1.25,4.32,4.32,0,0,1,.6-1.55,3.84,3.84,0,0,1,.44-.54,1.35,1.35,0,0,1,1-.41Z" transform="translate(-6.25 -6.64)"/><path class="cls-13" d="M46.64,100.63a1,1,0,0,1-.1.37,8.18,8.18,0,0,0-.46,2.77c0,.34,0,.69.06,1a2.18,2.18,0,0,1-.22,1,3.61,3.61,0,0,1-.35.6,4.26,4.26,0,0,1-1.5,1.3,2.3,2.3,0,0,1-.57.21,1.9,1.9,0,0,1-.25,0,.52.52,0,0,1-.51-.31,1.74,1.74,0,0,1-.16-.55,5.07,5.07,0,0,1,.09-1.82,5.39,5.39,0,0,1,1.54-2.82,16.38,16.38,0,0,1,2.32-1.83l.09,0Z" transform="translate(-6.25 -6.64)"/><path class="cls-13" d="M50.72,110.38a3.16,3.16,0,0,1,.81.17,4.06,4.06,0,0,1,1.75,1.11,2.43,2.43,0,0,1,.64,1.3,8.16,8.16,0,0,0,1.36,3.52c0,.06.1.12.07.17s-.14,0-.2,0a15.15,15.15,0,0,1-2.6-1.16,5.55,5.55,0,0,1-2.65-3.82,2.14,2.14,0,0,1,0-.67.56.56,0,0,1,.57-.6Z" transform="translate(-6.25 -6.64)"/><path class="cls-13" d="M46.62,100.61s0,0,.05,0l0,0Z" transform="translate(-6.25 -6.64)"/><path class="cls-13" d="M55.41,116.69a0,0,0,0,1,0,0l0,0,0,0Z" transform="translate(-6.25 -6.64)"/><path class="cls-12" d="M24.32,128.82h-2a.52.52,0,0,1-.49-.4,1.23,1.23,0,0,1-.05-.25c-.1-1.08-.21-2.16-.31-3.23l-.21-2.18s0-.07,0-.11a.12.12,0,0,0-.12-.11l-.43,0a8.29,8.29,0,0,1-4.81-2.13.6.6,0,0,1-.18-.81c.29-.73.59-1.46.87-2.2a69.65,69.65,0,0,0,3.18-11.07q.48-2.42.78-4.86a6.91,6.91,0,0,0,.1-1,2.12,2.12,0,0,0-.57-1.49l-.48-.5a8.43,8.43,0,0,1-1.4-1.89l-.09-.15s0,0,0,0-.05,0-.05,0a2.35,2.35,0,0,0,.05.65,3.76,3.76,0,0,0,.37,1.1l.32.61a7.17,7.17,0,0,1,.79,3.3,5.37,5.37,0,0,1-.47,2.2,3.48,3.48,0,0,1-2.83,2.14,5.25,5.25,0,0,1-4-1.07,1.66,1.66,0,0,1-.6-.76.67.67,0,0,1,0-.32.56.56,0,0,1,.41-.46.55.55,0,0,1,.58.19l.1.15a1,1,0,0,0,1.08.49,1.69,1.69,0,0,0,1-.48,2.61,2.61,0,0,0,.8-2.21,3.43,3.43,0,0,0-.63-1.72c-.42-.58-.83-1.17-1.23-1.75a19.69,19.69,0,0,1-1.17-1.84,8.51,8.51,0,0,1-1-2.91,6,6,0,0,1,1.13-4.57,4.44,4.44,0,0,1,2.87-1.71,6.56,6.56,0,0,1,2.21,0,6.54,6.54,0,0,1,2.68,1.08.27.27,0,0,1,.08.07.22.22,0,0,0,.27,0,9.18,9.18,0,0,1,1.26-.5,8,8,0,0,1,3.16-.32,6.7,6.7,0,0,1,3.34,1.28,5.06,5.06,0,0,1,.9.89,4.27,4.27,0,0,1,.77,1.74,15,15,0,0,1,.29,1.88,1.73,1.73,0,0,0,.59,1.2,4.21,4.21,0,0,0,.64.47.67.67,0,0,1,.25.25.58.58,0,0,1-.18.74c-.08,0-.18.08-.26.13a3.13,3.13,0,0,0-.34.21A.46.46,0,0,0,31,97c0,.25,0,.49,0,.73a6.31,6.31,0,0,1-.08.76,1.21,1.21,0,0,1-.66.94,3.16,3.16,0,0,1-.88.3,6.82,6.82,0,0,1-1.35.16.21.21,0,0,0-.24.16c-.13.41-.25.81-.39,1.21a.39.39,0,0,0,0,.35c.28.59.57,1.18.84,1.77a56.15,56.15,0,0,1,3.85,11.73c.28,1.32.51,2.65.68,4,.06.47.13.94.19,1.41s0,.62-.44.85a11.16,11.16,0,0,1-4.29,1.31q-.46,0-.93.06c-.18,0-.19,0-.24.19a11.31,11.31,0,0,0-.48,3.6,7.38,7.38,0,0,0,.19,1.55.7.7,0,0,1,0,.43.5.5,0,0,1-.45.35h-2Zm6.07-33.13a3.15,3.15,0,0,1-.28-.25,2.54,2.54,0,0,1-.7-1.37,5,5,0,0,1-.07-.54A10.29,10.29,0,0,0,29,91.7a2.71,2.71,0,0,0-.65-1.2,4,4,0,0,0-.76-.66,5.61,5.61,0,0,0-2.84-.93,7.07,7.07,0,0,0-3.76.85l-.19.1a.53.53,0,0,1-.58,0L20,89.64a5.71,5.71,0,0,0-4.12-1.12,3.35,3.35,0,0,0-2.57,1.61,5,5,0,0,0-.71,3.32,7.36,7.36,0,0,0,.7,2.25,14.86,14.86,0,0,0,1.11,1.83c.45.66.91,1.31,1.37,2a4.41,4.41,0,0,1,.82,2,3.75,3.75,0,0,1-1.3,3.65s-.11.06-.08.16a3.48,3.48,0,0,0,1.2-.09,2.41,2.41,0,0,0,1.73-1.55,4.53,4.53,0,0,0,.31-1.89,6.25,6.25,0,0,0-.7-2.58c-.11-.19-.21-.39-.31-.58a5.46,5.46,0,0,1-.38-1A6.45,6.45,0,0,1,17.32,94a.78.78,0,0,1,.12-.22.53.53,0,0,1,.36-.22.56.56,0,0,1,.61.4c.06.19.1.38.16.56a7.83,7.83,0,0,0,1.74,3l.51.52a3.22,3.22,0,0,1,.72,1.12,2.82,2.82,0,0,1,.23,1.31c-.05.61-.12,1.21-.2,1.81-.21,1.57-.47,3.13-.79,4.68A71.11,71.11,0,0,1,17.54,118c-.2.51-.41,1-.61,1.52-.05.13,0,.16.07.25l.05,0a7.05,7.05,0,0,0,4.14,1.54h.57a.55.55,0,0,1,.54.44,2.23,2.23,0,0,1,.05.36c.06.55.11,1.09.16,1.63.1,1.09.21,2.18.32,3.27,0,.16,0,.32.05.47a.12.12,0,0,0,.12.11h2.29a.4.4,0,0,0,.27-.06c0-.15,0-.32,0-.49a7.4,7.4,0,0,1-.05-.94c0-.34,0-.68.06-1a12.88,12.88,0,0,1,.6-3,1.82,1.82,0,0,1,.11-.3.56.56,0,0,1,.52-.33h.36a9.69,9.69,0,0,0,3.91-.75c.25-.1.48-.22.72-.33a.13.13,0,0,0,.08-.15.66.66,0,0,0,0-.14c-.18-1.48-.41-2.94-.7-4.39a55.21,55.21,0,0,0-4.4-13.08c-.1-.19-.19-.39-.28-.59a1.72,1.72,0,0,1-.09-1.28c.18-.55.35-1.11.54-1.66a.57.57,0,0,1,.68-.45,5.69,5.69,0,0,0,1.88-.21l.2-.07a.28.28,0,0,0,.18-.25,2.11,2.11,0,0,0,0-.25c0-.37,0-.73.05-1.1a1.47,1.47,0,0,1,.34-.9A.59.59,0,0,0,30.39,95.69Z" transform="translate(-6.25 -6.64)"/><path class="cls-13" d="M30.39,95.69a.59.59,0,0,1-.16.24,1.47,1.47,0,0,0-.34.9c0,.37,0,.73-.05,1.1a2.11,2.11,0,0,1,0,.25.28.28,0,0,1-.18.25l-.2.07a5.69,5.69,0,0,1-1.88.21.57.57,0,0,0-.68.45c-.19.55-.36,1.11-.54,1.66a1.72,1.72,0,0,0,.09,1.28c.09.2.18.4.28.59a55.21,55.21,0,0,1,4.4,13.08c.29,1.45.52,2.91.7,4.39a.66.66,0,0,1,0,.14.13.13,0,0,1-.08.15c-.24.11-.47.23-.72.33a9.69,9.69,0,0,1-3.91.75h-.36a.56.56,0,0,0-.52.33,1.82,1.82,0,0,0-.11.3,12.88,12.88,0,0,0-.6,3c0,.34-.06.68-.06,1a7.4,7.4,0,0,0,.05.94c0,.17,0,.34,0,.49a.4.4,0,0,1-.27.06H23a.12.12,0,0,1-.12-.11c0-.15,0-.31-.05-.47-.11-1.09-.22-2.18-.32-3.27-.05-.54-.1-1.08-.16-1.63a2.23,2.23,0,0,0-.05-.36.55.55,0,0,0-.54-.44h-.57a7.05,7.05,0,0,1-4.14-1.54l-.05,0c-.11-.09-.12-.12-.07-.25.2-.51.41-1,.61-1.52A71.11,71.11,0,0,0,20.78,107c.32-1.55.58-3.11.79-4.68.08-.6.15-1.2.2-1.81a2.82,2.82,0,0,0-.23-1.31A3.22,3.22,0,0,0,20.82,98l-.51-.52a7.83,7.83,0,0,1-1.74-3c-.06-.18-.1-.37-.16-.56a.56.56,0,0,0-.61-.4.53.53,0,0,0-.36.22.78.78,0,0,0-.12.22,6.45,6.45,0,0,0-.26,3.59,5.46,5.46,0,0,0,.38,1c.1.19.2.39.31.58a6.25,6.25,0,0,1,.7,2.58,4.53,4.53,0,0,1-.31,1.89,2.41,2.41,0,0,1-1.73,1.55,3.48,3.48,0,0,1-1.2.09c0-.1,0-.12.08-.16a3.75,3.75,0,0,0,1.3-3.65,4.41,4.41,0,0,0-.82-2c-.46-.65-.92-1.3-1.37-2a14.86,14.86,0,0,1-1.11-1.83,7.36,7.36,0,0,1-.7-2.25,5,5,0,0,1,.71-3.32,3.35,3.35,0,0,1,2.57-1.61A5.71,5.71,0,0,1,20,89.64l.26.19a.53.53,0,0,0,.58,0l.19-.1a7.07,7.07,0,0,1,3.76-.85,5.61,5.61,0,0,1,2.84.93,4,4,0,0,1,.76.66A2.71,2.71,0,0,1,29,91.7a10.29,10.29,0,0,1,.31,1.83,5,5,0,0,0,.07.54,2.54,2.54,0,0,0,.7,1.37A3.15,3.15,0,0,0,30.39,95.69Z" transform="translate(-6.25 -6.64)"/><path class="cls-14" d="M96.92,103.38c0,1.87-.09,4.35-.14,6.82a8.27,8.27,0,0,0,.08,1.49,3,3,0,0,0,1.26,2l.74.51a23.94,23.94,0,0,1,6.89,6.93c.07.12.15.23.21.35a.52.52,0,0,1-.47.73,1.32,1.32,0,0,1-.34,0,5.14,5.14,0,0,1-1.41-.59,8.38,8.38,0,0,1-1.23-.89c-.46-.38-.91-.78-1.36-1.17a8.82,8.82,0,0,0-1.47-1,4.07,4.07,0,0,0-1.18-.43,2.8,2.8,0,0,0-.41,0,.07.07,0,0,0-.06.1,2.88,2.88,0,0,0,.13.31l.45.77a3,3,0,0,1,.34,1,2.15,2.15,0,0,1-.13,1,.67.67,0,0,1-.06.12,1.18,1.18,0,0,1-1.77.43,3.23,3.23,0,0,1-.51-.47c-.14-.15-.26-.32-.39-.47a3.23,3.23,0,0,0-1-.83,1.78,1.78,0,0,0-.93-.25.36.36,0,0,0-.34.19c-.08.19-.16.38-.25.56a7.89,7.89,0,0,1-2.44,3c-.19.14-.38.26-.58.38a.54.54,0,0,1-.77-.65c0-.12.13-.24.18-.36a3.72,3.72,0,0,0,.3-2.25c-.08-.5-.07-.63-.63-.28a16.86,16.86,0,0,1-4.4,1.89l-.2,0a.55.55,0,0,1-.62-.5,2.64,2.64,0,0,1,.37-1.28,3.79,3.79,0,0,1,.68-.87c.26-.25.53-.5.82-.73A7.21,7.21,0,0,0,88,116.88a15.64,15.64,0,0,0,1.13-2.46,22.19,22.19,0,0,0,1-3.64,13.28,13.28,0,0,0,.22-1.54c.09-1.23.15-2.47.16-3.71,0-2.12-.06-4.24-.17-6.35-.07-1.13-.17-2.25-.29-3.37a12,12,0,0,0-.34-2.06.55.55,0,0,1,.5-.68,2.06,2.06,0,0,1,.35,0c.56,0,1.12,0,1.68,0a16.69,16.69,0,0,1,4.32.83,2.53,2.53,0,0,1,.37.18.39.39,0,0,1,.21.33c0,.12,0,.23,0,.34Zm-1.09-.09h0l0-.61c.07-2.45.15-4.91.22-7.36a1.93,1.93,0,0,0,0-.34.33.33,0,0,0-.11-.16.45.45,0,0,0-.12-.06,14,14,0,0,0-4.63-.65.31.31,0,0,0-.13,0,.23.23,0,0,0-.08.09,1.23,1.23,0,0,0,0,.27c.07.56.16,1.12.21,1.68.11,1.16.21,2.33.27,3.5s.11,2.57.14,3.85c0,1.73,0,3.47-.11,5.2,0,.58-.1,1.17-.19,1.74a21.47,21.47,0,0,1-.92,3.61,18.82,18.82,0,0,1-1.54,3.47,7.68,7.68,0,0,1-1.81,2.13c-.29.23-.55.48-.82.73a2.62,2.62,0,0,0-.28.3c0,.06-.06.16,0,.18a.31.31,0,0,0,.13,0l.26-.08,1-.43a17.83,17.83,0,0,0,2.3-1.29l.47-.29a.43.43,0,0,1,.41,0,.55.55,0,0,1,.29.27,4.86,4.86,0,0,1,.43,1.21,7.5,7.5,0,0,1,.12,1.34s0,.06,0,.06.1,0,.12,0a2.61,2.61,0,0,0,.27-.31,7.19,7.19,0,0,0,1-2,.78.78,0,0,1,.6-.52,2.47,2.47,0,0,1,.9-.1,3.37,3.37,0,0,1,1.5.52,4.66,4.66,0,0,1,1.07,1c.13.16.26.32.4.47a1.94,1.94,0,0,0,.26.23.15.15,0,0,0,.17-.06.73.73,0,0,0,.07-.19,1.45,1.45,0,0,0-.22-1c-.14-.26-.3-.51-.44-.77a3.11,3.11,0,0,1-.4-1.14.57.57,0,0,1,.43-.68A3.15,3.15,0,0,1,98.4,117a4.72,4.72,0,0,1,1.48.41,7.64,7.64,0,0,1,1.46.92c.4.31.78.64,1.17,1l.95.79s.08,0,.12,0,.08,0,0,0-.14-.23-.23-.34a22.54,22.54,0,0,0-5.18-4.7c-.33-.22-.65-.44-1-.68A3.74,3.74,0,0,1,96,112.78a4.14,4.14,0,0,1-.28-1.18c0-.61-.05-1.22-.05-1.83,0-1.6.05-3.2.08-4.79C95.8,104.41,95.82,103.85,95.83,103.29Z" transform="translate(-6.25 -6.64)"/><path class="cls-15" d="M95.83,103.29c0,.56,0,1.12,0,1.69,0,1.59-.06,3.19-.08,4.79,0,.61,0,1.22.05,1.83a4.14,4.14,0,0,0,.28,1.18,3.74,3.74,0,0,0,1.22,1.62c.31.24.63.46,1,.68a22.54,22.54,0,0,1,5.18,4.7c.09.11.15.23.23.34s0,.08,0,0-.09,0-.12,0l-.95-.79c-.39-.33-.77-.66-1.17-1a7.64,7.64,0,0,0-1.46-.92A4.72,4.72,0,0,0,98.4,117a3.15,3.15,0,0,0-1.18.12.57.57,0,0,0-.43.68,3.11,3.11,0,0,0,.4,1.14c.14.26.3.51.44.77a1.45,1.45,0,0,1,.22,1,.73.73,0,0,1-.07.19.15.15,0,0,1-.17.06,1.94,1.94,0,0,1-.26-.23c-.14-.15-.27-.31-.4-.47a4.66,4.66,0,0,0-1.07-1,3.37,3.37,0,0,0-1.5-.52,2.47,2.47,0,0,0-.9.1.78.78,0,0,0-.6.52,7.19,7.19,0,0,1-1,2,2.61,2.61,0,0,1-.27.31s-.08,0-.12,0,0,0,0-.06a7.5,7.5,0,0,0-.12-1.34,4.86,4.86,0,0,0-.43-1.21.55.55,0,0,0-.29-.27.43.43,0,0,0-.41,0l-.47.29a17.83,17.83,0,0,1-2.3,1.29l-1,.43-.26.08a.31.31,0,0,1-.13,0s0-.12,0-.18a2.62,2.62,0,0,1,.28-.3c.27-.25.53-.5.82-.73a7.68,7.68,0,0,0,1.81-2.13,18.82,18.82,0,0,0,1.54-3.47,21.47,21.47,0,0,0,.92-3.61c.09-.57.15-1.16.19-1.74.13-1.73.15-3.47.11-5.2,0-1.28-.07-2.57-.14-3.85s-.16-2.34-.27-3.5c0-.56-.14-1.12-.21-1.68a1.23,1.23,0,0,1,0-.27.23.23,0,0,1,.08-.09.31.31,0,0,1,.13,0,14,14,0,0,1,4.63.65.45.45,0,0,1,.12.06.33.33,0,0,1,.11.16,1.93,1.93,0,0,1,0,.34c-.07,2.45-.15,4.91-.22,7.36l0,.61Z" transform="translate(-6.25 -6.64)"/><path class="cls-14" d="M79.07,88.29v-.54a1.17,1.17,0,0,0-.37-.8c-.15-.15-.32-.29-.49-.44L77.6,86a3.16,3.16,0,0,1-1.11-2.45A4.7,4.7,0,0,1,76.77,82,6.8,6.8,0,0,1,78.1,79.8l.48-.53A1.77,1.77,0,0,0,79,78.2c0-.29,0-.59,0-.88a3.11,3.11,0,0,1,.13-.8,2,2,0,0,1,1.1-1.18,6.23,6.23,0,0,1,.65-.24,1.91,1.91,0,0,0,1.27-1.2,4.57,4.57,0,0,0,.29-1.46c0-.43,0-.86,0-1.28A4.81,4.81,0,0,1,82.64,70a3.41,3.41,0,0,1,1.57-2.19,5.77,5.77,0,0,1,1.08-.55l1.45-.52c.39-.14.77-.27,1.15-.43a3,3,0,0,0,.83-.51,1.58,1.58,0,0,0,.57-.94c0-.29.07-.58.1-.87s0-.54,0-.81a2.28,2.28,0,0,1,1.13-1.78l.32-.19a2.67,2.67,0,0,0,1.09-1A9,9,0,0,1,93,58.78q.18-.2.36-.36a1.62,1.62,0,0,1,.7-.43,4.67,4.67,0,0,0,1-.47c.2-.11.39-.23.59-.33a1.41,1.41,0,0,1,.91-.13,3.22,3.22,0,0,0,.93,0q.75,0,1.5-.06a1.43,1.43,0,0,1,.81.21,16.8,16.8,0,0,0,2.52,1.23l.56.25a2.49,2.49,0,0,1,1.32,1.45c.07.22.13.44.2.66a2.4,2.4,0,0,0,.78,1.15c.17.14.33.29.51.42a5.15,5.15,0,0,1,1.52,1.94c.21.49.44,1,.65,1.45a8,8,0,0,0,.74,1.34,6.06,6.06,0,0,0,.71.81,3.75,3.75,0,0,0,1,.68L113.12,70l.76.35c.17.07.34.13.5.21a2.9,2.9,0,0,1,1.79,2.46,3.46,3.46,0,0,1-.23,1.53l-.33.91a1,1,0,0,0,0,.66,3,3,0,0,0,.62,1.15,5,5,0,0,1,1.2,3.57,3.19,3.19,0,0,1-.4,1.36,5.18,5.18,0,0,1-.6.87A9.89,9.89,0,0,1,114,85.19l-.38.24a.6.6,0,0,0-.31.65,2,2,0,0,0,.15.45,4.67,4.67,0,0,0,.27.49,4.62,4.62,0,0,1,.62,2.75,4.24,4.24,0,0,1-.15,1,3.18,3.18,0,0,1-.9,1.48,10.85,10.85,0,0,0-1.09,1.16,4.54,4.54,0,0,1-1.18,1,34,34,0,0,1-3.5,1.81,3.46,3.46,0,0,1-1.66.3c-.24,0-.48,0-.71,0a10.54,10.54,0,0,0-2.51-.07,8.6,8.6,0,0,0-3.21.82l-.41.2a4.7,4.7,0,0,1-3.42.24c-.49-.15-1-.33-1.45-.51s-.77-.29-1.17-.4a3.58,3.58,0,0,0-1.78,0c-.35.09-.69.2-1,.3a8.61,8.61,0,0,1-1.83.37,4,4,0,0,1-1.24-.11,2.17,2.17,0,0,1-1.41-1.11,3.56,3.56,0,0,1-.34-1c0-.29-.1-.58-.18-.87a2.78,2.78,0,0,0-.21-.57.8.8,0,0,0-.68-.41c-.21,0-.42,0-.63,0H82.7a1.93,1.93,0,0,1-1.46-.7,2.78,2.78,0,0,1-.45-.78l-.2-.59A1.63,1.63,0,0,0,80,90.4c-.08-.05-.15-.12-.23-.18a1.87,1.87,0,0,1-.71-1.39c0-.18,0-.36,0-.54Zm26.82,7.17a2,2,0,0,0,1.19-.26c.13-.07.28-.13.42-.19a28,28,0,0,0,2.56-1.31,4.22,4.22,0,0,0,1.35-1.12,6.13,6.13,0,0,1,.9-.94,2.06,2.06,0,0,0,.69-1.11,4,4,0,0,0-.33-3c-.12-.23-.26-.45-.38-.67a1.82,1.82,0,0,1-.21-1.12,1.45,1.45,0,0,1,.63-1c.18-.13.37-.25.56-.37a8.47,8.47,0,0,0,2.2-1.91,5.58,5.58,0,0,0,.44-.64,1.66,1.66,0,0,0,.26-.7,3.93,3.93,0,0,0,0-1.41,4.15,4.15,0,0,0-1-1.9,2.7,2.7,0,0,1-.59-1c-.06-.17-.11-.34-.17-.52a1.33,1.33,0,0,1,0-.86c.06-.2.14-.39.21-.58s.19-.52.27-.78a2.46,2.46,0,0,0,.08-1,1.8,1.8,0,0,0-1.09-1.47l-.49-.22-.77-.34-2.92-1.45a4.81,4.81,0,0,1-1.48-1.1,7.39,7.39,0,0,1-1.3-1.92c-.23-.47-.47-1-.66-1.44a4.65,4.65,0,0,0-1.7-2.15,3.22,3.22,0,0,1-1-1.18,8.76,8.76,0,0,1-.37-.89c-.06-.15-.1-.3-.15-.45a1.2,1.2,0,0,0-.72-.76l-1.05-.46a12.84,12.84,0,0,1-1.7-.85,1.51,1.51,0,0,0-1-.26c-.26,0-.52,0-.78,0a5.23,5.23,0,0,1-1.25,0,.56.56,0,0,0-.38.08l-.33.18a4.55,4.55,0,0,1-1.08.54,1.29,1.29,0,0,0-.49.33,6.5,6.5,0,0,0-.83,1l-.51.76a3.14,3.14,0,0,1-1.07,1l-.58.35a1.08,1.08,0,0,0-.5.74c0,.26-.07.54-.09.8s0,.63-.07.95a2.68,2.68,0,0,1-1.28,2,5.59,5.59,0,0,1-1.14.59c-.51.19-1,.35-1.53.54s-.81.3-1.21.48a2.51,2.51,0,0,0-1.6,2.11,2.69,2.69,0,0,0,0,.4c0,.32,0,.63,0,1a9.58,9.58,0,0,1-.12,1.41,3.88,3.88,0,0,1-.49,1.42A2.78,2.78,0,0,1,81.56,76l-.58.22a.93.93,0,0,0-.68.83c0,.23,0,.45,0,.68l-.09.87a2.37,2.37,0,0,1-.56,1.25l-.66.76A5.31,5.31,0,0,0,78,82.09a3.57,3.57,0,0,0-.3,1.79,2.17,2.17,0,0,0,.68,1.33c.16.15.34.29.5.43l.56.48a2.27,2.27,0,0,1,.82,1.7c0,.21,0,.41,0,.61s0,.27,0,.41a.85.85,0,0,0,.31.6l.34.28a2.38,2.38,0,0,1,.65.84c.09.21.18.42.26.63s.13.35.2.51a.84.84,0,0,0,.82.53h.48l.39,0a3.13,3.13,0,0,1,.86.07,2,2,0,0,1,1.51,1.07,4.29,4.29,0,0,1,.31,1c0,.27.1.53.16.8a2.91,2.91,0,0,0,.12.39,1.26,1.26,0,0,0,1.18.76,2.48,2.48,0,0,0,.86-.06l1-.27c.3-.09.59-.19.9-.26a9.58,9.58,0,0,1,1.07-.19,4.09,4.09,0,0,1,1.7.21c.46.15.92.32,1.38.48s.77.28,1.17.39a3.33,3.33,0,0,0,2.5-.2l.27-.13a8.62,8.62,0,0,1,2.56-.82,11.55,11.55,0,0,1,3.52-.12C105.21,95.42,105.55,95.44,105.89,95.46Z" transform="translate(-6.25 -6.64)"/><path class="cls-15" d="M105.89,95.46c-.34,0-.68,0-1-.08a11.47,11.47,0,0,0-3.51.12,8.68,8.68,0,0,0-2.57.82l-.27.13a3.33,3.33,0,0,1-2.5.2c-.4-.11-.78-.26-1.17-.39s-.92-.33-1.38-.48a4.09,4.09,0,0,0-1.7-.21,9.58,9.58,0,0,0-1.07.19c-.3.07-.6.17-.9.26l-1,.27a2.44,2.44,0,0,1-.85.06,1.24,1.24,0,0,1-1.18-.76,3,3,0,0,1-.13-.39c-.06-.27-.11-.53-.16-.8a3.88,3.88,0,0,0-.31-1,2,2,0,0,0-1.51-1.07,3.13,3.13,0,0,0-.86-.07l-.39,0h-.47a.85.85,0,0,1-.83-.53c-.07-.16-.13-.34-.19-.51s-.17-.42-.27-.63a2.27,2.27,0,0,0-.65-.84l-.34-.28a.85.85,0,0,1-.31-.6v-.41c0-.2,0-.4,0-.61a2.24,2.24,0,0,0-.82-1.7l-.56-.48c-.16-.14-.34-.28-.49-.43a2.14,2.14,0,0,1-.69-1.33,3.57,3.57,0,0,1,.3-1.79A5.12,5.12,0,0,1,79,80.61c.21-.26.44-.51.65-.76a2.37,2.37,0,0,0,.56-1.25c0-.29.07-.58.09-.87s0-.45,0-.68a.93.93,0,0,1,.68-.83l.58-.22a2.77,2.77,0,0,0,1.56-1.27,4,4,0,0,0,.48-1.42,9.58,9.58,0,0,0,.12-1.41c0-.32,0-.63,0-1l0-.4a2.51,2.51,0,0,1,1.6-2.11c.4-.18.81-.33,1.22-.48s1-.35,1.52-.54a5.59,5.59,0,0,0,1.14-.59,2.69,2.69,0,0,0,1.29-2c0-.32,0-.63.06-.95s.05-.54.09-.8a1.06,1.06,0,0,1,.51-.74l.58-.35a3.2,3.2,0,0,0,1.06-1c.18-.26.34-.51.52-.76a5.91,5.91,0,0,1,.82-1,1.29,1.29,0,0,1,.49-.33,4.82,4.82,0,0,0,1.09-.54l.32-.18a.56.56,0,0,1,.38-.08,5.23,5.23,0,0,0,1.25,0c.26,0,.53,0,.79,0a1.5,1.5,0,0,1,1,.26,12.84,12.84,0,0,0,1.7.85c.36.15.71.3,1.05.46a1.22,1.22,0,0,1,.73.76c0,.15.09.3.14.45a8.76,8.76,0,0,0,.37.89,3.22,3.22,0,0,0,1,1.18,4.65,4.65,0,0,1,1.7,2.15c.19.49.43,1,.66,1.44a7.65,7.65,0,0,0,1.3,1.92,4.81,4.81,0,0,0,1.48,1.1L112.6,71l.76.34.49.22A1.78,1.78,0,0,1,114.94,73a2.46,2.46,0,0,1-.08,1c-.08.26-.18.52-.27.78l-.21.58a1.27,1.27,0,0,0,0,.86c.05.18.1.35.16.52a2.84,2.84,0,0,0,.59,1,4.15,4.15,0,0,1,1,1.9,3.93,3.93,0,0,1,0,1.41,1.66,1.66,0,0,1-.26.7,5.5,5.5,0,0,1-.43.64,8.47,8.47,0,0,1-2.2,1.91c-.2.12-.39.24-.57.37a1.45,1.45,0,0,0-.63,1,1.82,1.82,0,0,0,.21,1.12c.12.22.26.44.38.67a4,4,0,0,1,.34,3,2.13,2.13,0,0,1-.7,1.11,6.65,6.65,0,0,0-.9.94,4.29,4.29,0,0,1-1.34,1.12A28.17,28.17,0,0,1,107.5,95a3.89,3.89,0,0,0-.41.19A2.08,2.08,0,0,1,105.89,95.46Z" transform="translate(-6.25 -6.64)"/></svg>